%FSLAX45Y45*%
G04 Gerber Fmt 4.5, Leading zero omitted, Abs format (unit mm)*
G04 Created by KiCad (PCBNEW 4.0.7+dfsg1-1~bpo8+1) date Thu Sep  6 01:00:10 2018*
%MOMM*%
%LPD*%
G01*
G04 APERTURE LIST*
%ADD10C,0.127000*%
%ADD11C,0.150000*%
%ADD12C,0.200000*%
%ADD13C,0.300000*%
G04 APERTURE END LIST*
D10*
D11*
X14575071Y-8810000D02*
G75*
G03X14575071Y-8810000I-175071J0D01*
G01*
X23380000Y-8810000D02*
G75*
G03X23380000Y-8810000I-175071J0D01*
G01*
X24775000Y-4140000D02*
G75*
G03X24775000Y-4140000I-175071J0D01*
G01*
X14575071Y-4140000D02*
G75*
G03X14575071Y-4140000I-175071J0D01*
G01*
X14575071Y-10730000D02*
G75*
G03X14575071Y-10730000I-175071J0D01*
G01*
X25000000Y-3740000D02*
X14000000Y-3740000D01*
X25000000Y-11140000D02*
X25000000Y-3740000D01*
X14000000Y-11140000D02*
X25000000Y-11140000D01*
X14000000Y-3740000D02*
X14000000Y-11140000D01*
D12*
X18522000Y-5804220D02*
X18562000Y-5844220D01*
X18562000Y-5804220D02*
X18522000Y-5844220D01*
X18631840Y-5673040D02*
X18671840Y-5713040D01*
X18671840Y-5673040D02*
X18631840Y-5713040D01*
X18782480Y-5448830D02*
X18822480Y-5488830D01*
X18822480Y-5448830D02*
X18782480Y-5488830D01*
X19048330Y-6009520D02*
X19088330Y-6049520D01*
X19088330Y-6009520D02*
X19048330Y-6049520D01*
X19176050Y-7968300D02*
X19216050Y-8008300D01*
X19216050Y-7968300D02*
X19176050Y-8008300D01*
X19237010Y-6018580D02*
X19277010Y-6058580D01*
X19277010Y-6018580D02*
X19237010Y-6058580D01*
X19361470Y-8713790D02*
X19401470Y-8753790D01*
X19401470Y-8713790D02*
X19361470Y-8753790D01*
X19401250Y-5969580D02*
X19441250Y-6009580D01*
X19441250Y-5969580D02*
X19401250Y-6009580D01*
X19729770Y-8811580D02*
X19769770Y-8851580D01*
X19769770Y-8811580D02*
X19729770Y-8851580D01*
X19734750Y-6028950D02*
X19774750Y-6068950D01*
X19774750Y-6028950D02*
X19734750Y-6068950D01*
X19787230Y-6331790D02*
X19827230Y-6371790D01*
X19827230Y-6331790D02*
X19787230Y-6371790D01*
X19793270Y-5800410D02*
X19833270Y-5840410D01*
X19833270Y-5800410D02*
X19793270Y-5840410D01*
X20307620Y-9400860D02*
X20347620Y-9440860D01*
X20347620Y-9400860D02*
X20307620Y-9440860D01*
X20360960Y-9251000D02*
X20400960Y-9291000D01*
X20400960Y-9251000D02*
X20360960Y-9291000D01*
X20889280Y-5747070D02*
X20929280Y-5787070D01*
X20929280Y-5747070D02*
X20889280Y-5787070D01*
X20889280Y-8235000D02*
X20929280Y-8275000D01*
X20929280Y-8235000D02*
X20889280Y-8275000D01*
X21286790Y-9652320D02*
X21326790Y-9692320D01*
X21326790Y-9652320D02*
X21286790Y-9692320D01*
X21374420Y-5697540D02*
X21414420Y-5737540D01*
X21414420Y-5697540D02*
X21374420Y-5737540D01*
X21747800Y-8219760D02*
X21787800Y-8259760D01*
X21787800Y-8219760D02*
X21747800Y-8259760D01*
X22215160Y-7813360D02*
X22255160Y-7853360D01*
X22255160Y-7813360D02*
X22215160Y-7853360D01*
X22274850Y-8405180D02*
X22314850Y-8445180D01*
X22314850Y-8405180D02*
X22274850Y-8445180D01*
X22697760Y-4554540D02*
X22737760Y-4594540D01*
X22737760Y-4554540D02*
X22697760Y-4594540D01*
X23006370Y-10071420D02*
X23046370Y-10111420D01*
X23046370Y-10071420D02*
X23006370Y-10111420D01*
X23152420Y-8407720D02*
X23192420Y-8447720D01*
X23192420Y-8407720D02*
X23152420Y-8447720D01*
X23219730Y-10071420D02*
X23259730Y-10111420D01*
X23259730Y-10071420D02*
X23219730Y-10111420D01*
X24358920Y-10990900D02*
X24398920Y-11030900D01*
X24398920Y-10990900D02*
X24358920Y-11030900D01*
X19410200Y-5359400D02*
G75*
G03X19410200Y-5359400I-30000J0D01*
G01*
X19537200Y-5486400D02*
G75*
G03X19537200Y-5486400I-30000J0D01*
G01*
X19664200Y-5359400D02*
G75*
G03X19664200Y-5359400I-30000J0D01*
G01*
X19050000Y-6310000D02*
X19050000Y-6390000D01*
X19010000Y-6350000D02*
X19090000Y-6350000D01*
X19050000Y-6564000D02*
X19050000Y-6644000D01*
X19010000Y-6604000D02*
X19090000Y-6604000D01*
X19050000Y-6818000D02*
X19050000Y-6898000D01*
X19010000Y-6858000D02*
X19090000Y-6858000D01*
X19050000Y-7072000D02*
X19050000Y-7152000D01*
X19010000Y-7112000D02*
X19090000Y-7112000D01*
X19050000Y-7326000D02*
X19050000Y-7406000D01*
X19010000Y-7366000D02*
X19090000Y-7366000D01*
X19050000Y-7580000D02*
X19050000Y-7660000D01*
X19010000Y-7620000D02*
X19090000Y-7620000D01*
X19050000Y-7834000D02*
X19050000Y-7914000D01*
X19010000Y-7874000D02*
X19090000Y-7874000D01*
X19050000Y-8088000D02*
X19050000Y-8168000D01*
X19010000Y-8128000D02*
X19090000Y-8128000D01*
X19050000Y-8342000D02*
X19050000Y-8422000D01*
X19010000Y-8382000D02*
X19090000Y-8382000D01*
X19050000Y-8596000D02*
X19050000Y-8676000D01*
X19010000Y-8636000D02*
X19090000Y-8636000D01*
X19050000Y-8850000D02*
X19050000Y-8930000D01*
X19010000Y-8890000D02*
X19090000Y-8890000D01*
X19050000Y-9104000D02*
X19050000Y-9184000D01*
X19010000Y-9144000D02*
X19090000Y-9144000D01*
X19050000Y-9358000D02*
X19050000Y-9438000D01*
X19010000Y-9398000D02*
X19090000Y-9398000D01*
X19050000Y-9612000D02*
X19050000Y-9692000D01*
X19010000Y-9652000D02*
X19090000Y-9652000D01*
X19050000Y-9866000D02*
X19050000Y-9946000D01*
X19010000Y-9906000D02*
X19090000Y-9906000D01*
X20574000Y-6310000D02*
X20574000Y-6390000D01*
X20534000Y-6350000D02*
X20614000Y-6350000D01*
X20574000Y-6564000D02*
X20574000Y-6644000D01*
X20534000Y-6604000D02*
X20614000Y-6604000D01*
X20574000Y-6818000D02*
X20574000Y-6898000D01*
X20534000Y-6858000D02*
X20614000Y-6858000D01*
X20574000Y-7072000D02*
X20574000Y-7152000D01*
X20534000Y-7112000D02*
X20614000Y-7112000D01*
X20574000Y-7326000D02*
X20574000Y-7406000D01*
X20534000Y-7366000D02*
X20614000Y-7366000D01*
X20574000Y-7580000D02*
X20574000Y-7660000D01*
X20534000Y-7620000D02*
X20614000Y-7620000D01*
X20574000Y-7834000D02*
X20574000Y-7914000D01*
X20534000Y-7874000D02*
X20614000Y-7874000D01*
X20574000Y-8088000D02*
X20574000Y-8168000D01*
X20534000Y-8128000D02*
X20614000Y-8128000D01*
X20574000Y-8342000D02*
X20574000Y-8422000D01*
X20534000Y-8382000D02*
X20614000Y-8382000D01*
X20574000Y-8596000D02*
X20574000Y-8676000D01*
X20534000Y-8636000D02*
X20614000Y-8636000D01*
X20574000Y-8850000D02*
X20574000Y-8930000D01*
X20534000Y-8890000D02*
X20614000Y-8890000D01*
X20574000Y-9104000D02*
X20574000Y-9184000D01*
X20534000Y-9144000D02*
X20614000Y-9144000D01*
X20574000Y-9358000D02*
X20574000Y-9438000D01*
X20534000Y-9398000D02*
X20614000Y-9398000D01*
X20574000Y-9612000D02*
X20574000Y-9692000D01*
X20534000Y-9652000D02*
X20614000Y-9652000D01*
X20574000Y-9866000D02*
X20574000Y-9946000D01*
X20534000Y-9906000D02*
X20614000Y-9906000D01*
X22002820Y-5492820D02*
X22002820Y-5429180D01*
X21939180Y-5429180D01*
X21939180Y-5492820D01*
X22002820Y-5492820D01*
X22002820Y-5746820D02*
X22002820Y-5683180D01*
X21939180Y-5683180D01*
X21939180Y-5746820D01*
X22002820Y-5746820D01*
X22764820Y-5492820D02*
X22764820Y-5429180D01*
X22701180Y-5429180D01*
X22701180Y-5492820D01*
X22764820Y-5492820D01*
X22764820Y-5746820D02*
X22764820Y-5683180D01*
X22701180Y-5683180D01*
X22701180Y-5746820D01*
X22764820Y-5746820D01*
X23653820Y-5492820D02*
X23653820Y-5429180D01*
X23590180Y-5429180D01*
X23590180Y-5492820D01*
X23653820Y-5492820D01*
X23653820Y-5746820D02*
X23653820Y-5683180D01*
X23590180Y-5683180D01*
X23590180Y-5746820D01*
X23653820Y-5746820D01*
X24415820Y-5492820D02*
X24415820Y-5429180D01*
X24352180Y-5429180D01*
X24352180Y-5492820D01*
X24415820Y-5492820D01*
X24415820Y-5746820D02*
X24415820Y-5683180D01*
X24352180Y-5683180D01*
X24352180Y-5746820D01*
X24415820Y-5746820D01*
X14579600Y-4774400D02*
X14629600Y-4724400D01*
X14579600Y-4674400D01*
X14529600Y-4724400D01*
X14579600Y-4774400D01*
X14579600Y-5028400D02*
X14629600Y-4978400D01*
X14579600Y-4928400D01*
X14529600Y-4978400D01*
X14579600Y-5028400D01*
X14579600Y-5282400D02*
X14629600Y-5232400D01*
X14579600Y-5182400D01*
X14529600Y-5232400D01*
X14579600Y-5282400D01*
X14579600Y-7263600D02*
X14629600Y-7213600D01*
X14579600Y-7163600D01*
X14529600Y-7213600D01*
X14579600Y-7263600D01*
X14579600Y-7517600D02*
X14629600Y-7467600D01*
X14579600Y-7417600D01*
X14529600Y-7467600D01*
X14579600Y-7517600D01*
X14579600Y-7771600D02*
X14629600Y-7721600D01*
X14579600Y-7671600D01*
X14529600Y-7721600D01*
X14579600Y-7771600D01*
X14579600Y-9803600D02*
X14629600Y-9753600D01*
X14579600Y-9703600D01*
X14529600Y-9753600D01*
X14579600Y-9803600D01*
X14579600Y-10057600D02*
X14629600Y-10007600D01*
X14579600Y-9957600D01*
X14529600Y-10007600D01*
X14579600Y-10057600D01*
X14579600Y-10311600D02*
X14629600Y-10261600D01*
X14579600Y-10211600D01*
X14529600Y-10261600D01*
X14579600Y-10311600D01*
X14706600Y-6247600D02*
X14756600Y-6197600D01*
X14706600Y-6147600D01*
X14656600Y-6197600D01*
X14706600Y-6247600D01*
X14960600Y-4774400D02*
X15010600Y-4724400D01*
X14960600Y-4674400D01*
X14910600Y-4724400D01*
X14960600Y-4774400D01*
X14960600Y-5028400D02*
X15010600Y-4978400D01*
X14960600Y-4928400D01*
X14910600Y-4978400D01*
X14960600Y-5028400D01*
X14960600Y-5282400D02*
X15010600Y-5232400D01*
X14960600Y-5182400D01*
X14910600Y-5232400D01*
X14960600Y-5282400D01*
X14960600Y-6247600D02*
X15010600Y-6197600D01*
X14960600Y-6147600D01*
X14910600Y-6197600D01*
X14960600Y-6247600D01*
X14960600Y-7263600D02*
X15010600Y-7213600D01*
X14960600Y-7163600D01*
X14910600Y-7213600D01*
X14960600Y-7263600D01*
X14960600Y-7517600D02*
X15010600Y-7467600D01*
X14960600Y-7417600D01*
X14910600Y-7467600D01*
X14960600Y-7517600D01*
X14960600Y-7771600D02*
X15010600Y-7721600D01*
X14960600Y-7671600D01*
X14910600Y-7721600D01*
X14960600Y-7771600D01*
X14960600Y-9803600D02*
X15010600Y-9753600D01*
X14960600Y-9703600D01*
X14910600Y-9753600D01*
X14960600Y-9803600D01*
X14960600Y-10057600D02*
X15010600Y-10007600D01*
X14960600Y-9957600D01*
X14910600Y-10007600D01*
X14960600Y-10057600D01*
X14960600Y-10311600D02*
X15010600Y-10261600D01*
X14960600Y-10211600D01*
X14910600Y-10261600D01*
X14960600Y-10311600D01*
X15214600Y-6247600D02*
X15264600Y-6197600D01*
X15214600Y-6147600D01*
X15164600Y-6197600D01*
X15214600Y-6247600D01*
X15341600Y-4774400D02*
X15391600Y-4724400D01*
X15341600Y-4674400D01*
X15291600Y-4724400D01*
X15341600Y-4774400D01*
X15341600Y-5028400D02*
X15391600Y-4978400D01*
X15341600Y-4928400D01*
X15291600Y-4978400D01*
X15341600Y-5028400D01*
X15341600Y-5282400D02*
X15391600Y-5232400D01*
X15341600Y-5182400D01*
X15291600Y-5232400D01*
X15341600Y-5282400D01*
X15341600Y-7263600D02*
X15391600Y-7213600D01*
X15341600Y-7163600D01*
X15291600Y-7213600D01*
X15341600Y-7263600D01*
X15341600Y-7517600D02*
X15391600Y-7467600D01*
X15341600Y-7417600D01*
X15291600Y-7467600D01*
X15341600Y-7517600D01*
X15341600Y-7771600D02*
X15391600Y-7721600D01*
X15341600Y-7671600D01*
X15291600Y-7721600D01*
X15341600Y-7771600D01*
X15341600Y-9803600D02*
X15391600Y-9753600D01*
X15341600Y-9703600D01*
X15291600Y-9753600D01*
X15341600Y-9803600D01*
X15341600Y-10057600D02*
X15391600Y-10007600D01*
X15341600Y-9957600D01*
X15291600Y-10007600D01*
X15341600Y-10057600D01*
X15341600Y-10311600D02*
X15391600Y-10261600D01*
X15341600Y-10211600D01*
X15291600Y-10261600D01*
X15341600Y-10311600D01*
X15875000Y-5841200D02*
X15925000Y-5791200D01*
X15875000Y-5741200D01*
X15825000Y-5791200D01*
X15875000Y-5841200D01*
X16129000Y-5841200D02*
X16179000Y-5791200D01*
X16129000Y-5741200D01*
X16079000Y-5791200D01*
X16129000Y-5841200D01*
X16129000Y-6323800D02*
X16179000Y-6273800D01*
X16129000Y-6223800D01*
X16079000Y-6273800D01*
X16129000Y-6323800D01*
X16141700Y-9301400D02*
X16191700Y-9251400D01*
X16141700Y-9201400D01*
X16091700Y-9251400D01*
X16141700Y-9301400D01*
X16256000Y-4469600D02*
X16306000Y-4419600D01*
X16256000Y-4369600D01*
X16206000Y-4419600D01*
X16256000Y-4469600D01*
X16281400Y-4037800D02*
X16331400Y-3987800D01*
X16281400Y-3937800D01*
X16231400Y-3987800D01*
X16281400Y-4037800D01*
X16383000Y-5841200D02*
X16433000Y-5791200D01*
X16383000Y-5741200D01*
X16333000Y-5791200D01*
X16383000Y-5841200D01*
X16383000Y-6323800D02*
X16433000Y-6273800D01*
X16383000Y-6223800D01*
X16333000Y-6273800D01*
X16383000Y-6323800D01*
X16383000Y-9829000D02*
X16433000Y-9779000D01*
X16383000Y-9729000D01*
X16333000Y-9779000D01*
X16383000Y-9829000D01*
X16383000Y-10210000D02*
X16433000Y-10160000D01*
X16383000Y-10110000D01*
X16333000Y-10160000D01*
X16383000Y-10210000D01*
X16383000Y-10591000D02*
X16433000Y-10541000D01*
X16383000Y-10491000D01*
X16333000Y-10541000D01*
X16383000Y-10591000D01*
X16395700Y-9301400D02*
X16445700Y-9251400D01*
X16395700Y-9201400D01*
X16345700Y-9251400D01*
X16395700Y-9301400D01*
X16510000Y-4469600D02*
X16560000Y-4419600D01*
X16510000Y-4369600D01*
X16460000Y-4419600D01*
X16510000Y-4469600D01*
X16510000Y-6851400D02*
X16560000Y-6801400D01*
X16510000Y-6751400D01*
X16460000Y-6801400D01*
X16510000Y-6851400D01*
X16535400Y-4037800D02*
X16585400Y-3987800D01*
X16535400Y-3937800D01*
X16485400Y-3987800D01*
X16535400Y-4037800D01*
X16637000Y-5841200D02*
X16687000Y-5791200D01*
X16637000Y-5741200D01*
X16587000Y-5791200D01*
X16637000Y-5841200D01*
X16637000Y-6323800D02*
X16687000Y-6273800D01*
X16637000Y-6223800D01*
X16587000Y-6273800D01*
X16637000Y-6323800D01*
X16637000Y-9829000D02*
X16687000Y-9779000D01*
X16637000Y-9729000D01*
X16587000Y-9779000D01*
X16637000Y-9829000D01*
X16637000Y-10210000D02*
X16687000Y-10160000D01*
X16637000Y-10110000D01*
X16587000Y-10160000D01*
X16637000Y-10210000D01*
X16637000Y-10591000D02*
X16687000Y-10541000D01*
X16637000Y-10491000D01*
X16587000Y-10541000D01*
X16637000Y-10591000D01*
X16649700Y-9301400D02*
X16699700Y-9251400D01*
X16649700Y-9201400D01*
X16599700Y-9251400D01*
X16649700Y-9301400D01*
X16764000Y-4469600D02*
X16814000Y-4419600D01*
X16764000Y-4369600D01*
X16714000Y-4419600D01*
X16764000Y-4469600D01*
X16764000Y-6851400D02*
X16814000Y-6801400D01*
X16764000Y-6751400D01*
X16714000Y-6801400D01*
X16764000Y-6851400D01*
X16789400Y-4037800D02*
X16839400Y-3987800D01*
X16789400Y-3937800D01*
X16739400Y-3987800D01*
X16789400Y-4037800D01*
X16891000Y-5841200D02*
X16941000Y-5791200D01*
X16891000Y-5741200D01*
X16841000Y-5791200D01*
X16891000Y-5841200D01*
X16891000Y-6323800D02*
X16941000Y-6273800D01*
X16891000Y-6223800D01*
X16841000Y-6273800D01*
X16891000Y-6323800D01*
X16891000Y-9829000D02*
X16941000Y-9779000D01*
X16891000Y-9729000D01*
X16841000Y-9779000D01*
X16891000Y-9829000D01*
X16891000Y-10210000D02*
X16941000Y-10160000D01*
X16891000Y-10110000D01*
X16841000Y-10160000D01*
X16891000Y-10210000D01*
X16891000Y-10591000D02*
X16941000Y-10541000D01*
X16891000Y-10491000D01*
X16841000Y-10541000D01*
X16891000Y-10591000D01*
X16903700Y-9301400D02*
X16953700Y-9251400D01*
X16903700Y-9201400D01*
X16853700Y-9251400D01*
X16903700Y-9301400D01*
X17018000Y-4469600D02*
X17068000Y-4419600D01*
X17018000Y-4369600D01*
X16968000Y-4419600D01*
X17018000Y-4469600D01*
X17018000Y-6851400D02*
X17068000Y-6801400D01*
X17018000Y-6751400D01*
X16968000Y-6801400D01*
X17018000Y-6851400D01*
X17043400Y-4037800D02*
X17093400Y-3987800D01*
X17043400Y-3937800D01*
X16993400Y-3987800D01*
X17043400Y-4037800D01*
X17145000Y-5841200D02*
X17195000Y-5791200D01*
X17145000Y-5741200D01*
X17095000Y-5791200D01*
X17145000Y-5841200D01*
X17145000Y-6323800D02*
X17195000Y-6273800D01*
X17145000Y-6223800D01*
X17095000Y-6273800D01*
X17145000Y-6323800D01*
X17145000Y-9829000D02*
X17195000Y-9779000D01*
X17145000Y-9729000D01*
X17095000Y-9779000D01*
X17145000Y-9829000D01*
X17145000Y-10210000D02*
X17195000Y-10160000D01*
X17145000Y-10110000D01*
X17095000Y-10160000D01*
X17145000Y-10210000D01*
X17145000Y-10591000D02*
X17195000Y-10541000D01*
X17145000Y-10491000D01*
X17095000Y-10541000D01*
X17145000Y-10591000D01*
X17157700Y-9301400D02*
X17207700Y-9251400D01*
X17157700Y-9201400D01*
X17107700Y-9251400D01*
X17157700Y-9301400D01*
X17272000Y-4469600D02*
X17322000Y-4419600D01*
X17272000Y-4369600D01*
X17222000Y-4419600D01*
X17272000Y-4469600D01*
X17272000Y-6851400D02*
X17322000Y-6801400D01*
X17272000Y-6751400D01*
X17222000Y-6801400D01*
X17272000Y-6851400D01*
X17399000Y-5841200D02*
X17449000Y-5791200D01*
X17399000Y-5741200D01*
X17349000Y-5791200D01*
X17399000Y-5841200D01*
X17399000Y-6323800D02*
X17449000Y-6273800D01*
X17399000Y-6223800D01*
X17349000Y-6273800D01*
X17399000Y-6323800D01*
X17411700Y-9301400D02*
X17461700Y-9251400D01*
X17411700Y-9201400D01*
X17361700Y-9251400D01*
X17411700Y-9301400D01*
X17526000Y-4469600D02*
X17576000Y-4419600D01*
X17526000Y-4369600D01*
X17476000Y-4419600D01*
X17526000Y-4469600D01*
X17526000Y-6851400D02*
X17576000Y-6801400D01*
X17526000Y-6751400D01*
X17476000Y-6801400D01*
X17526000Y-6851400D01*
X17653000Y-5841200D02*
X17703000Y-5791200D01*
X17653000Y-5741200D01*
X17603000Y-5791200D01*
X17653000Y-5841200D01*
X17653000Y-6323800D02*
X17703000Y-6273800D01*
X17653000Y-6223800D01*
X17603000Y-6273800D01*
X17653000Y-6323800D01*
X17665700Y-9301400D02*
X17715700Y-9251400D01*
X17665700Y-9201400D01*
X17615700Y-9251400D01*
X17665700Y-9301400D01*
X17881600Y-4149560D02*
X17931600Y-4099560D01*
X17881600Y-4049560D01*
X17831600Y-4099560D01*
X17881600Y-4149560D01*
X17881600Y-4403560D02*
X17931600Y-4353560D01*
X17881600Y-4303560D01*
X17831600Y-4353560D01*
X17881600Y-4403560D01*
X17907000Y-5841200D02*
X17957000Y-5791200D01*
X17907000Y-5741200D01*
X17857000Y-5791200D01*
X17907000Y-5841200D01*
X17907000Y-6323800D02*
X17957000Y-6273800D01*
X17907000Y-6223800D01*
X17857000Y-6273800D01*
X17907000Y-6323800D01*
X18161000Y-5841200D02*
X18211000Y-5791200D01*
X18161000Y-5741200D01*
X18111000Y-5791200D01*
X18161000Y-5841200D01*
X18288000Y-4063200D02*
X18338000Y-4013200D01*
X18288000Y-3963200D01*
X18238000Y-4013200D01*
X18288000Y-4063200D01*
X18288000Y-4469600D02*
X18338000Y-4419600D01*
X18288000Y-4369600D01*
X18238000Y-4419600D01*
X18288000Y-4469600D01*
X18542000Y-4063200D02*
X18592000Y-4013200D01*
X18542000Y-3963200D01*
X18492000Y-4013200D01*
X18542000Y-4063200D01*
X18542000Y-4469600D02*
X18592000Y-4419600D01*
X18542000Y-4369600D01*
X18492000Y-4419600D01*
X18542000Y-4469600D01*
X18542000Y-6400000D02*
X18592000Y-6350000D01*
X18542000Y-6300000D01*
X18492000Y-6350000D01*
X18542000Y-6400000D01*
X18542000Y-6654000D02*
X18592000Y-6604000D01*
X18542000Y-6554000D01*
X18492000Y-6604000D01*
X18542000Y-6654000D01*
X18542000Y-6908000D02*
X18592000Y-6858000D01*
X18542000Y-6808000D01*
X18492000Y-6858000D01*
X18542000Y-6908000D01*
X18542000Y-7162000D02*
X18592000Y-7112000D01*
X18542000Y-7062000D01*
X18492000Y-7112000D01*
X18542000Y-7162000D01*
X18542000Y-7416000D02*
X18592000Y-7366000D01*
X18542000Y-7316000D01*
X18492000Y-7366000D01*
X18542000Y-7416000D01*
X18542000Y-7670000D02*
X18592000Y-7620000D01*
X18542000Y-7570000D01*
X18492000Y-7620000D01*
X18542000Y-7670000D01*
X18542000Y-7924000D02*
X18592000Y-7874000D01*
X18542000Y-7824000D01*
X18492000Y-7874000D01*
X18542000Y-7924000D01*
X18542000Y-8178000D02*
X18592000Y-8128000D01*
X18542000Y-8078000D01*
X18492000Y-8128000D01*
X18542000Y-8178000D01*
X18542000Y-8432000D02*
X18592000Y-8382000D01*
X18542000Y-8332000D01*
X18492000Y-8382000D01*
X18542000Y-8432000D01*
X18542000Y-8686000D02*
X18592000Y-8636000D01*
X18542000Y-8586000D01*
X18492000Y-8636000D01*
X18542000Y-8686000D01*
X18542000Y-8940000D02*
X18592000Y-8890000D01*
X18542000Y-8840000D01*
X18492000Y-8890000D01*
X18542000Y-8940000D01*
X18542000Y-9194000D02*
X18592000Y-9144000D01*
X18542000Y-9094000D01*
X18492000Y-9144000D01*
X18542000Y-9194000D01*
X18542000Y-9448000D02*
X18592000Y-9398000D01*
X18542000Y-9348000D01*
X18492000Y-9398000D01*
X18542000Y-9448000D01*
X18542000Y-9702000D02*
X18592000Y-9652000D01*
X18542000Y-9602000D01*
X18492000Y-9652000D01*
X18542000Y-9702000D01*
X18542000Y-9956000D02*
X18592000Y-9906000D01*
X18542000Y-9856000D01*
X18492000Y-9906000D01*
X18542000Y-9956000D01*
X18669000Y-4876000D02*
X18719000Y-4826000D01*
X18669000Y-4776000D01*
X18619000Y-4826000D01*
X18669000Y-4876000D01*
X18796000Y-4063200D02*
X18846000Y-4013200D01*
X18796000Y-3963200D01*
X18746000Y-4013200D01*
X18796000Y-4063200D01*
X18796000Y-4469600D02*
X18846000Y-4419600D01*
X18796000Y-4369600D01*
X18746000Y-4419600D01*
X18796000Y-4469600D01*
X18923000Y-4876000D02*
X18973000Y-4826000D01*
X18923000Y-4776000D01*
X18873000Y-4826000D01*
X18923000Y-4876000D01*
X19050000Y-4063200D02*
X19100000Y-4013200D01*
X19050000Y-3963200D01*
X19000000Y-4013200D01*
X19050000Y-4063200D01*
X19050000Y-4469600D02*
X19100000Y-4419600D01*
X19050000Y-4369600D01*
X19000000Y-4419600D01*
X19050000Y-4469600D01*
X19177000Y-4876000D02*
X19227000Y-4826000D01*
X19177000Y-4776000D01*
X19127000Y-4826000D01*
X19177000Y-4876000D01*
X19304000Y-4063200D02*
X19354000Y-4013200D01*
X19304000Y-3963200D01*
X19254000Y-4013200D01*
X19304000Y-4063200D01*
X19304000Y-4469600D02*
X19354000Y-4419600D01*
X19304000Y-4369600D01*
X19254000Y-4419600D01*
X19304000Y-4469600D01*
X19431000Y-4876000D02*
X19481000Y-4826000D01*
X19431000Y-4776000D01*
X19381000Y-4826000D01*
X19431000Y-4876000D01*
X19558000Y-4063200D02*
X19608000Y-4013200D01*
X19558000Y-3963200D01*
X19508000Y-4013200D01*
X19558000Y-4063200D01*
X19558000Y-4469600D02*
X19608000Y-4419600D01*
X19558000Y-4369600D01*
X19508000Y-4419600D01*
X19558000Y-4469600D01*
X19685000Y-4876000D02*
X19735000Y-4826000D01*
X19685000Y-4776000D01*
X19635000Y-4826000D01*
X19685000Y-4876000D01*
X19812000Y-4063200D02*
X19862000Y-4013200D01*
X19812000Y-3963200D01*
X19762000Y-4013200D01*
X19812000Y-4063200D01*
X19812000Y-4469600D02*
X19862000Y-4419600D01*
X19812000Y-4369600D01*
X19762000Y-4419600D01*
X19812000Y-4469600D01*
X19939000Y-4876000D02*
X19989000Y-4826000D01*
X19939000Y-4776000D01*
X19889000Y-4826000D01*
X19939000Y-4876000D01*
X19939000Y-10591000D02*
X19989000Y-10541000D01*
X19939000Y-10491000D01*
X19889000Y-10541000D01*
X19939000Y-10591000D01*
X19939000Y-10845000D02*
X19989000Y-10795000D01*
X19939000Y-10745000D01*
X19889000Y-10795000D01*
X19939000Y-10845000D01*
X19997800Y-5587200D02*
X20047800Y-5537200D01*
X19997800Y-5487200D01*
X19947800Y-5537200D01*
X19997800Y-5587200D01*
X20015200Y-5231600D02*
X20065200Y-5181600D01*
X20015200Y-5131600D01*
X19965200Y-5181600D01*
X20015200Y-5231600D01*
X20066000Y-4063200D02*
X20116000Y-4013200D01*
X20066000Y-3963200D01*
X20016000Y-4013200D01*
X20066000Y-4063200D01*
X20066000Y-4469600D02*
X20116000Y-4419600D01*
X20066000Y-4369600D01*
X20016000Y-4419600D01*
X20066000Y-4469600D01*
X20193000Y-4876000D02*
X20243000Y-4826000D01*
X20193000Y-4776000D01*
X20143000Y-4826000D01*
X20193000Y-4876000D01*
X20193000Y-10591000D02*
X20243000Y-10541000D01*
X20193000Y-10491000D01*
X20143000Y-10541000D01*
X20193000Y-10591000D01*
X20193000Y-10845000D02*
X20243000Y-10795000D01*
X20193000Y-10745000D01*
X20143000Y-10795000D01*
X20193000Y-10845000D01*
X20320000Y-4063200D02*
X20370000Y-4013200D01*
X20320000Y-3963200D01*
X20270000Y-4013200D01*
X20320000Y-4063200D01*
X20320000Y-4469600D02*
X20370000Y-4419600D01*
X20320000Y-4369600D01*
X20270000Y-4419600D01*
X20320000Y-4469600D01*
X20447000Y-4876000D02*
X20497000Y-4826000D01*
X20447000Y-4776000D01*
X20397000Y-4826000D01*
X20447000Y-4876000D01*
X20447000Y-10591000D02*
X20497000Y-10541000D01*
X20447000Y-10491000D01*
X20397000Y-10541000D01*
X20447000Y-10591000D01*
X20447000Y-10845000D02*
X20497000Y-10795000D01*
X20447000Y-10745000D01*
X20397000Y-10795000D01*
X20447000Y-10845000D01*
X20574000Y-4063200D02*
X20624000Y-4013200D01*
X20574000Y-3963200D01*
X20524000Y-4013200D01*
X20574000Y-4063200D01*
X20574000Y-4469600D02*
X20624000Y-4419600D01*
X20574000Y-4369600D01*
X20524000Y-4419600D01*
X20574000Y-4469600D01*
X20701000Y-4876000D02*
X20751000Y-4826000D01*
X20701000Y-4776000D01*
X20651000Y-4826000D01*
X20701000Y-4876000D01*
X20701000Y-10591000D02*
X20751000Y-10541000D01*
X20701000Y-10491000D01*
X20651000Y-10541000D01*
X20701000Y-10591000D01*
X20701000Y-10845000D02*
X20751000Y-10795000D01*
X20701000Y-10745000D01*
X20651000Y-10795000D01*
X20701000Y-10845000D01*
X20828000Y-4063200D02*
X20878000Y-4013200D01*
X20828000Y-3963200D01*
X20778000Y-4013200D01*
X20828000Y-4063200D01*
X20828000Y-4469600D02*
X20878000Y-4419600D01*
X20828000Y-4369600D01*
X20778000Y-4419600D01*
X20828000Y-4469600D01*
X20955000Y-10591000D02*
X21005000Y-10541000D01*
X20955000Y-10491000D01*
X20905000Y-10541000D01*
X20955000Y-10591000D01*
X20955000Y-10845000D02*
X21005000Y-10795000D01*
X20955000Y-10745000D01*
X20905000Y-10795000D01*
X20955000Y-10845000D01*
X20997800Y-5587200D02*
X21047800Y-5537200D01*
X20997800Y-5487200D01*
X20947800Y-5537200D01*
X20997800Y-5587200D01*
X21015200Y-5231600D02*
X21065200Y-5181600D01*
X21015200Y-5131600D01*
X20965200Y-5181600D01*
X21015200Y-5231600D01*
X21082000Y-4063200D02*
X21132000Y-4013200D01*
X21082000Y-3963200D01*
X21032000Y-4013200D01*
X21082000Y-4063200D01*
X21082000Y-4469600D02*
X21132000Y-4419600D01*
X21082000Y-4369600D01*
X21032000Y-4419600D01*
X21082000Y-4469600D01*
X21082000Y-6400000D02*
X21132000Y-6350000D01*
X21082000Y-6300000D01*
X21032000Y-6350000D01*
X21082000Y-6400000D01*
X21082000Y-6654000D02*
X21132000Y-6604000D01*
X21082000Y-6554000D01*
X21032000Y-6604000D01*
X21082000Y-6654000D01*
X21082000Y-6908000D02*
X21132000Y-6858000D01*
X21082000Y-6808000D01*
X21032000Y-6858000D01*
X21082000Y-6908000D01*
X21082000Y-7162000D02*
X21132000Y-7112000D01*
X21082000Y-7062000D01*
X21032000Y-7112000D01*
X21082000Y-7162000D01*
X21082000Y-7416000D02*
X21132000Y-7366000D01*
X21082000Y-7316000D01*
X21032000Y-7366000D01*
X21082000Y-7416000D01*
X21082000Y-7670000D02*
X21132000Y-7620000D01*
X21082000Y-7570000D01*
X21032000Y-7620000D01*
X21082000Y-7670000D01*
X21082000Y-7924000D02*
X21132000Y-7874000D01*
X21082000Y-7824000D01*
X21032000Y-7874000D01*
X21082000Y-7924000D01*
X21082000Y-8178000D02*
X21132000Y-8128000D01*
X21082000Y-8078000D01*
X21032000Y-8128000D01*
X21082000Y-8178000D01*
X21082000Y-8432000D02*
X21132000Y-8382000D01*
X21082000Y-8332000D01*
X21032000Y-8382000D01*
X21082000Y-8432000D01*
X21082000Y-8686000D02*
X21132000Y-8636000D01*
X21082000Y-8586000D01*
X21032000Y-8636000D01*
X21082000Y-8686000D01*
X21082000Y-8940000D02*
X21132000Y-8890000D01*
X21082000Y-8840000D01*
X21032000Y-8890000D01*
X21082000Y-8940000D01*
X21082000Y-9194000D02*
X21132000Y-9144000D01*
X21082000Y-9094000D01*
X21032000Y-9144000D01*
X21082000Y-9194000D01*
X21082000Y-9448000D02*
X21132000Y-9398000D01*
X21082000Y-9348000D01*
X21032000Y-9398000D01*
X21082000Y-9448000D01*
X21082000Y-9702000D02*
X21132000Y-9652000D01*
X21082000Y-9602000D01*
X21032000Y-9652000D01*
X21082000Y-9702000D01*
X21082000Y-9956000D02*
X21132000Y-9906000D01*
X21082000Y-9856000D01*
X21032000Y-9906000D01*
X21082000Y-9956000D01*
X21209000Y-10591000D02*
X21259000Y-10541000D01*
X21209000Y-10491000D01*
X21159000Y-10541000D01*
X21209000Y-10591000D01*
X21209000Y-10845000D02*
X21259000Y-10795000D01*
X21209000Y-10745000D01*
X21159000Y-10795000D01*
X21209000Y-10845000D01*
X21463000Y-10591000D02*
X21513000Y-10541000D01*
X21463000Y-10491000D01*
X21413000Y-10541000D01*
X21463000Y-10591000D01*
X21463000Y-10845000D02*
X21513000Y-10795000D01*
X21463000Y-10745000D01*
X21413000Y-10795000D01*
X21463000Y-10845000D01*
X21492210Y-4148290D02*
X21542210Y-4098290D01*
X21492210Y-4048290D01*
X21442210Y-4098290D01*
X21492210Y-4148290D01*
X21492210Y-4402290D02*
X21542210Y-4352290D01*
X21492210Y-4302290D01*
X21442210Y-4352290D01*
X21492210Y-4402290D01*
X21539200Y-4876000D02*
X21589200Y-4826000D01*
X21539200Y-4776000D01*
X21489200Y-4826000D01*
X21539200Y-4876000D01*
X21547200Y-6095200D02*
X21597200Y-6045200D01*
X21547200Y-5995200D01*
X21497200Y-6045200D01*
X21547200Y-6095200D01*
X21590000Y-6400000D02*
X21640000Y-6350000D01*
X21590000Y-6300000D01*
X21540000Y-6350000D01*
X21590000Y-6400000D01*
X21717000Y-8051000D02*
X21767000Y-8001000D01*
X21717000Y-7951000D01*
X21667000Y-8001000D01*
X21717000Y-8051000D01*
X21717000Y-10591000D02*
X21767000Y-10541000D01*
X21717000Y-10491000D01*
X21667000Y-10541000D01*
X21717000Y-10591000D01*
X21717000Y-10845000D02*
X21767000Y-10795000D01*
X21717000Y-10745000D01*
X21667000Y-10795000D01*
X21717000Y-10845000D01*
X21844000Y-6400000D02*
X21894000Y-6350000D01*
X21844000Y-6300000D01*
X21794000Y-6350000D01*
X21844000Y-6400000D01*
X21844000Y-9194000D02*
X21894000Y-9144000D01*
X21844000Y-9094000D01*
X21794000Y-9144000D01*
X21844000Y-9194000D01*
X21844000Y-9448000D02*
X21894000Y-9398000D01*
X21844000Y-9348000D01*
X21794000Y-9398000D01*
X21844000Y-9448000D01*
X21844000Y-9702000D02*
X21894000Y-9652000D01*
X21844000Y-9602000D01*
X21794000Y-9652000D01*
X21844000Y-9702000D01*
X21844000Y-9956000D02*
X21894000Y-9906000D01*
X21844000Y-9856000D01*
X21794000Y-9906000D01*
X21844000Y-9956000D01*
X21859240Y-4148290D02*
X21909240Y-4098290D01*
X21859240Y-4048290D01*
X21809240Y-4098290D01*
X21859240Y-4148290D01*
X21859240Y-4402290D02*
X21909240Y-4352290D01*
X21859240Y-4302290D01*
X21809240Y-4352290D01*
X21859240Y-4402290D01*
X21971000Y-8051000D02*
X22021000Y-8001000D01*
X21971000Y-7951000D01*
X21921000Y-8001000D01*
X21971000Y-8051000D01*
X21971000Y-10591000D02*
X22021000Y-10541000D01*
X21971000Y-10491000D01*
X21921000Y-10541000D01*
X21971000Y-10591000D01*
X21971000Y-10845000D02*
X22021000Y-10795000D01*
X21971000Y-10745000D01*
X21921000Y-10795000D01*
X21971000Y-10845000D01*
X22050000Y-8425000D02*
X22100000Y-8375000D01*
X22050000Y-8325000D01*
X22000000Y-8375000D01*
X22050000Y-8425000D01*
X22050000Y-8800000D02*
X22100000Y-8750000D01*
X22050000Y-8700000D01*
X22000000Y-8750000D01*
X22050000Y-8800000D01*
X22098000Y-6400000D02*
X22148000Y-6350000D01*
X22098000Y-6300000D01*
X22048000Y-6350000D01*
X22098000Y-6400000D01*
X22225000Y-9194000D02*
X22275000Y-9144000D01*
X22225000Y-9094000D01*
X22175000Y-9144000D01*
X22225000Y-9194000D01*
X22225000Y-9448000D02*
X22275000Y-9398000D01*
X22225000Y-9348000D01*
X22175000Y-9398000D01*
X22225000Y-9448000D01*
X22225000Y-9702000D02*
X22275000Y-9652000D01*
X22225000Y-9602000D01*
X22175000Y-9652000D01*
X22225000Y-9702000D01*
X22225000Y-9956000D02*
X22275000Y-9906000D01*
X22225000Y-9856000D01*
X22175000Y-9906000D01*
X22225000Y-9956000D01*
X22225000Y-10591000D02*
X22275000Y-10541000D01*
X22225000Y-10491000D01*
X22175000Y-10541000D01*
X22225000Y-10591000D01*
X22225000Y-10845000D02*
X22275000Y-10795000D01*
X22225000Y-10745000D01*
X22175000Y-10795000D01*
X22225000Y-10845000D01*
X22476460Y-6400000D02*
X22526460Y-6350000D01*
X22476460Y-6300000D01*
X22426460Y-6350000D01*
X22476460Y-6400000D01*
X22479000Y-10591000D02*
X22529000Y-10541000D01*
X22479000Y-10491000D01*
X22429000Y-10541000D01*
X22479000Y-10591000D01*
X22479000Y-10845000D02*
X22529000Y-10795000D01*
X22479000Y-10745000D01*
X22429000Y-10795000D01*
X22479000Y-10845000D01*
X22539200Y-4876000D02*
X22589200Y-4826000D01*
X22539200Y-4776000D01*
X22489200Y-4826000D01*
X22539200Y-4876000D01*
X22547200Y-6095200D02*
X22597200Y-6045200D01*
X22547200Y-5995200D01*
X22497200Y-6045200D01*
X22547200Y-6095200D01*
X22606000Y-8051000D02*
X22656000Y-8001000D01*
X22606000Y-7951000D01*
X22556000Y-8001000D01*
X22606000Y-8051000D01*
X22730460Y-6400000D02*
X22780460Y-6350000D01*
X22730460Y-6300000D01*
X22680460Y-6350000D01*
X22730460Y-6400000D01*
X22733000Y-10591000D02*
X22783000Y-10541000D01*
X22733000Y-10491000D01*
X22683000Y-10541000D01*
X22733000Y-10591000D01*
X22733000Y-10845000D02*
X22783000Y-10795000D01*
X22733000Y-10745000D01*
X22683000Y-10795000D01*
X22733000Y-10845000D01*
X22860000Y-8051000D02*
X22910000Y-8001000D01*
X22860000Y-7951000D01*
X22810000Y-8001000D01*
X22860000Y-8051000D01*
X22984460Y-6400000D02*
X23034460Y-6350000D01*
X22984460Y-6300000D01*
X22934460Y-6350000D01*
X22984460Y-6400000D01*
X22987000Y-10591000D02*
X23037000Y-10541000D01*
X22987000Y-10491000D01*
X22937000Y-10541000D01*
X22987000Y-10591000D01*
X22987000Y-10845000D02*
X23037000Y-10795000D01*
X22987000Y-10745000D01*
X22937000Y-10795000D01*
X22987000Y-10845000D01*
X23122000Y-4876000D02*
X23172000Y-4826000D01*
X23122000Y-4776000D01*
X23072000Y-4826000D01*
X23122000Y-4876000D01*
X23122000Y-6095200D02*
X23172000Y-6045200D01*
X23122000Y-5995200D01*
X23072000Y-6045200D01*
X23122000Y-6095200D01*
X23241000Y-10591000D02*
X23291000Y-10541000D01*
X23241000Y-10491000D01*
X23191000Y-10541000D01*
X23241000Y-10591000D01*
X23241000Y-10845000D02*
X23291000Y-10795000D01*
X23241000Y-10745000D01*
X23191000Y-10795000D01*
X23241000Y-10845000D01*
X23368000Y-6400000D02*
X23418000Y-6350000D01*
X23368000Y-6300000D01*
X23318000Y-6350000D01*
X23368000Y-6400000D01*
X23495000Y-8051000D02*
X23545000Y-8001000D01*
X23495000Y-7951000D01*
X23445000Y-8001000D01*
X23495000Y-8051000D01*
X23495000Y-10591000D02*
X23545000Y-10541000D01*
X23495000Y-10491000D01*
X23445000Y-10541000D01*
X23495000Y-10591000D01*
X23495000Y-10845000D02*
X23545000Y-10795000D01*
X23495000Y-10745000D01*
X23445000Y-10795000D01*
X23495000Y-10845000D01*
X23622000Y-6400000D02*
X23672000Y-6350000D01*
X23622000Y-6300000D01*
X23572000Y-6350000D01*
X23622000Y-6400000D01*
X23622000Y-8559000D02*
X23672000Y-8509000D01*
X23622000Y-8459000D01*
X23572000Y-8509000D01*
X23622000Y-8559000D01*
X23749000Y-8051000D02*
X23799000Y-8001000D01*
X23749000Y-7951000D01*
X23699000Y-8001000D01*
X23749000Y-8051000D01*
X23749000Y-10591000D02*
X23799000Y-10541000D01*
X23749000Y-10491000D01*
X23699000Y-10541000D01*
X23749000Y-10591000D01*
X23749000Y-10845000D02*
X23799000Y-10795000D01*
X23749000Y-10745000D01*
X23699000Y-10795000D01*
X23749000Y-10845000D01*
X23876000Y-6400000D02*
X23926000Y-6350000D01*
X23876000Y-6300000D01*
X23826000Y-6350000D01*
X23876000Y-6400000D01*
X23876000Y-8559000D02*
X23926000Y-8509000D01*
X23876000Y-8459000D01*
X23826000Y-8509000D01*
X23876000Y-8559000D01*
X24003000Y-9194000D02*
X24053000Y-9144000D01*
X24003000Y-9094000D01*
X23953000Y-9144000D01*
X24003000Y-9194000D01*
X24003000Y-9448000D02*
X24053000Y-9398000D01*
X24003000Y-9348000D01*
X23953000Y-9398000D01*
X24003000Y-9448000D01*
X24003000Y-9702000D02*
X24053000Y-9652000D01*
X24003000Y-9602000D01*
X23953000Y-9652000D01*
X24003000Y-9702000D01*
X24003000Y-9956000D02*
X24053000Y-9906000D01*
X24003000Y-9856000D01*
X23953000Y-9906000D01*
X24003000Y-9956000D01*
X24003000Y-10591000D02*
X24053000Y-10541000D01*
X24003000Y-10491000D01*
X23953000Y-10541000D01*
X24003000Y-10591000D01*
X24003000Y-10845000D02*
X24053000Y-10795000D01*
X24003000Y-10745000D01*
X23953000Y-10795000D01*
X24003000Y-10845000D01*
X24122000Y-4876000D02*
X24172000Y-4826000D01*
X24122000Y-4776000D01*
X24072000Y-4826000D01*
X24122000Y-4876000D01*
X24122000Y-6095200D02*
X24172000Y-6045200D01*
X24122000Y-5995200D01*
X24072000Y-6045200D01*
X24122000Y-6095200D01*
X24130000Y-8559000D02*
X24180000Y-8509000D01*
X24130000Y-8459000D01*
X24080000Y-8509000D01*
X24130000Y-8559000D01*
X24257000Y-6400000D02*
X24307000Y-6350000D01*
X24257000Y-6300000D01*
X24207000Y-6350000D01*
X24257000Y-6400000D01*
X24257000Y-10591000D02*
X24307000Y-10541000D01*
X24257000Y-10491000D01*
X24207000Y-10541000D01*
X24257000Y-10591000D01*
X24257000Y-10845000D02*
X24307000Y-10795000D01*
X24257000Y-10745000D01*
X24207000Y-10795000D01*
X24257000Y-10845000D01*
X24384000Y-8051000D02*
X24434000Y-8001000D01*
X24384000Y-7951000D01*
X24334000Y-8001000D01*
X24384000Y-8051000D01*
X24384000Y-8559000D02*
X24434000Y-8509000D01*
X24384000Y-8459000D01*
X24334000Y-8509000D01*
X24384000Y-8559000D01*
X24384000Y-9194000D02*
X24434000Y-9144000D01*
X24384000Y-9094000D01*
X24334000Y-9144000D01*
X24384000Y-9194000D01*
X24384000Y-9448000D02*
X24434000Y-9398000D01*
X24384000Y-9348000D01*
X24334000Y-9398000D01*
X24384000Y-9448000D01*
X24384000Y-9702000D02*
X24434000Y-9652000D01*
X24384000Y-9602000D01*
X24334000Y-9652000D01*
X24384000Y-9702000D01*
X24384000Y-9956000D02*
X24434000Y-9906000D01*
X24384000Y-9856000D01*
X24334000Y-9906000D01*
X24384000Y-9956000D01*
X24511000Y-6400000D02*
X24561000Y-6350000D01*
X24511000Y-6300000D01*
X24461000Y-6350000D01*
X24511000Y-6400000D01*
X24511000Y-10591000D02*
X24561000Y-10541000D01*
X24511000Y-10491000D01*
X24461000Y-10541000D01*
X24511000Y-10591000D01*
X24511000Y-10845000D02*
X24561000Y-10795000D01*
X24511000Y-10745000D01*
X24461000Y-10795000D01*
X24511000Y-10845000D01*
X24638000Y-8051000D02*
X24688000Y-8001000D01*
X24638000Y-7951000D01*
X24588000Y-8001000D01*
X24638000Y-8051000D01*
X24638000Y-8559000D02*
X24688000Y-8509000D01*
X24638000Y-8459000D01*
X24588000Y-8509000D01*
X24638000Y-8559000D01*
X24765000Y-6400000D02*
X24815000Y-6350000D01*
X24765000Y-6300000D01*
X24715000Y-6350000D01*
X24765000Y-6400000D01*
X24765000Y-9321000D02*
X24815000Y-9271000D01*
X24765000Y-9221000D01*
X24715000Y-9271000D01*
X24765000Y-9321000D01*
X24765000Y-9575000D02*
X24815000Y-9525000D01*
X24765000Y-9475000D01*
X24715000Y-9525000D01*
X24765000Y-9575000D01*
X24765000Y-9829000D02*
X24815000Y-9779000D01*
X24765000Y-9729000D01*
X24715000Y-9779000D01*
X24765000Y-9829000D01*
X24765000Y-10591000D02*
X24815000Y-10541000D01*
X24765000Y-10491000D01*
X24715000Y-10541000D01*
X24765000Y-10591000D01*
X24765000Y-10845000D02*
X24815000Y-10795000D01*
X24765000Y-10745000D01*
X24715000Y-10795000D01*
X24765000Y-10845000D01*
X21539200Y-6553200D02*
X21640800Y-6654800D01*
X21640800Y-6553200D02*
X21539200Y-6654800D01*
X21640800Y-6604000D02*
G75*
G03X21640800Y-6604000I-50800J0D01*
G01*
X21539200Y-7315200D02*
X21640800Y-7416800D01*
X21640800Y-7315200D02*
X21539200Y-7416800D01*
X21640800Y-7366000D02*
G75*
G03X21640800Y-7366000I-50800J0D01*
G01*
X22047200Y-6553200D02*
X22148800Y-6654800D01*
X22148800Y-6553200D02*
X22047200Y-6654800D01*
X22148800Y-6604000D02*
G75*
G03X22148800Y-6604000I-50800J0D01*
G01*
X22047200Y-7315200D02*
X22148800Y-7416800D01*
X22148800Y-7315200D02*
X22047200Y-7416800D01*
X22148800Y-7366000D02*
G75*
G03X22148800Y-7366000I-50800J0D01*
G01*
X22428200Y-6553200D02*
X22529800Y-6654800D01*
X22529800Y-6553200D02*
X22428200Y-6654800D01*
X22529800Y-6604000D02*
G75*
G03X22529800Y-6604000I-50800J0D01*
G01*
X22428200Y-7315200D02*
X22529800Y-7416800D01*
X22529800Y-7315200D02*
X22428200Y-7416800D01*
X22529800Y-7366000D02*
G75*
G03X22529800Y-7366000I-50800J0D01*
G01*
X22555200Y-4013200D02*
X22656800Y-4114800D01*
X22656800Y-4013200D02*
X22555200Y-4114800D01*
X22656800Y-4064000D02*
G75*
G03X22656800Y-4064000I-50800J0D01*
G01*
X22555200Y-4267200D02*
X22656800Y-4368800D01*
X22656800Y-4267200D02*
X22555200Y-4368800D01*
X22656800Y-4318000D02*
G75*
G03X22656800Y-4318000I-50800J0D01*
G01*
X22682200Y-8839200D02*
X22783800Y-8940800D01*
X22783800Y-8839200D02*
X22682200Y-8940800D01*
X22783800Y-8890000D02*
G75*
G03X22783800Y-8890000I-50800J0D01*
G01*
X22682200Y-9093200D02*
X22783800Y-9194800D01*
X22783800Y-9093200D02*
X22682200Y-9194800D01*
X22783800Y-9144000D02*
G75*
G03X22783800Y-9144000I-50800J0D01*
G01*
X22682200Y-9347200D02*
X22783800Y-9448800D01*
X22783800Y-9347200D02*
X22682200Y-9448800D01*
X22783800Y-9398000D02*
G75*
G03X22783800Y-9398000I-50800J0D01*
G01*
X22682200Y-9601200D02*
X22783800Y-9702800D01*
X22783800Y-9601200D02*
X22682200Y-9702800D01*
X22783800Y-9652000D02*
G75*
G03X22783800Y-9652000I-50800J0D01*
G01*
X22682200Y-9855200D02*
X22783800Y-9956800D01*
X22783800Y-9855200D02*
X22682200Y-9956800D01*
X22783800Y-9906000D02*
G75*
G03X22783800Y-9906000I-50800J0D01*
G01*
X22682200Y-10109200D02*
X22783800Y-10210800D01*
X22783800Y-10109200D02*
X22682200Y-10210800D01*
X22783800Y-10160000D02*
G75*
G03X22783800Y-10160000I-50800J0D01*
G01*
X22809200Y-4013200D02*
X22910800Y-4114800D01*
X22910800Y-4013200D02*
X22809200Y-4114800D01*
X22910800Y-4064000D02*
G75*
G03X22910800Y-4064000I-50800J0D01*
G01*
X22809200Y-4267200D02*
X22910800Y-4368800D01*
X22910800Y-4267200D02*
X22809200Y-4368800D01*
X22910800Y-4318000D02*
G75*
G03X22910800Y-4318000I-50800J0D01*
G01*
X22936200Y-6553200D02*
X23037800Y-6654800D01*
X23037800Y-6553200D02*
X22936200Y-6654800D01*
X23037800Y-6604000D02*
G75*
G03X23037800Y-6604000I-50800J0D01*
G01*
X22936200Y-7315200D02*
X23037800Y-7416800D01*
X23037800Y-7315200D02*
X22936200Y-7416800D01*
X23037800Y-7366000D02*
G75*
G03X23037800Y-7366000I-50800J0D01*
G01*
X23063200Y-4013200D02*
X23164800Y-4114800D01*
X23164800Y-4013200D02*
X23063200Y-4114800D01*
X23164800Y-4064000D02*
G75*
G03X23164800Y-4064000I-50800J0D01*
G01*
X23063200Y-4267200D02*
X23164800Y-4368800D01*
X23164800Y-4267200D02*
X23063200Y-4368800D01*
X23164800Y-4318000D02*
G75*
G03X23164800Y-4318000I-50800J0D01*
G01*
X23317200Y-4013200D02*
X23418800Y-4114800D01*
X23418800Y-4013200D02*
X23317200Y-4114800D01*
X23418800Y-4064000D02*
G75*
G03X23418800Y-4064000I-50800J0D01*
G01*
X23317200Y-4267200D02*
X23418800Y-4368800D01*
X23418800Y-4267200D02*
X23317200Y-4368800D01*
X23418800Y-4318000D02*
G75*
G03X23418800Y-4318000I-50800J0D01*
G01*
X23317200Y-6553200D02*
X23418800Y-6654800D01*
X23418800Y-6553200D02*
X23317200Y-6654800D01*
X23418800Y-6604000D02*
G75*
G03X23418800Y-6604000I-50800J0D01*
G01*
X23317200Y-7315200D02*
X23418800Y-7416800D01*
X23418800Y-7315200D02*
X23317200Y-7416800D01*
X23418800Y-7366000D02*
G75*
G03X23418800Y-7366000I-50800J0D01*
G01*
X23571200Y-4013200D02*
X23672800Y-4114800D01*
X23672800Y-4013200D02*
X23571200Y-4114800D01*
X23672800Y-4064000D02*
G75*
G03X23672800Y-4064000I-50800J0D01*
G01*
X23571200Y-4267200D02*
X23672800Y-4368800D01*
X23672800Y-4267200D02*
X23571200Y-4368800D01*
X23672800Y-4318000D02*
G75*
G03X23672800Y-4318000I-50800J0D01*
G01*
X23698200Y-8839200D02*
X23799800Y-8940800D01*
X23799800Y-8839200D02*
X23698200Y-8940800D01*
X23799800Y-8890000D02*
G75*
G03X23799800Y-8890000I-50800J0D01*
G01*
X23698200Y-9093200D02*
X23799800Y-9194800D01*
X23799800Y-9093200D02*
X23698200Y-9194800D01*
X23799800Y-9144000D02*
G75*
G03X23799800Y-9144000I-50800J0D01*
G01*
X23698200Y-9347200D02*
X23799800Y-9448800D01*
X23799800Y-9347200D02*
X23698200Y-9448800D01*
X23799800Y-9398000D02*
G75*
G03X23799800Y-9398000I-50800J0D01*
G01*
X23698200Y-9601200D02*
X23799800Y-9702800D01*
X23799800Y-9601200D02*
X23698200Y-9702800D01*
X23799800Y-9652000D02*
G75*
G03X23799800Y-9652000I-50800J0D01*
G01*
X23698200Y-9855200D02*
X23799800Y-9956800D01*
X23799800Y-9855200D02*
X23698200Y-9956800D01*
X23799800Y-9906000D02*
G75*
G03X23799800Y-9906000I-50800J0D01*
G01*
X23698200Y-10109200D02*
X23799800Y-10210800D01*
X23799800Y-10109200D02*
X23698200Y-10210800D01*
X23799800Y-10160000D02*
G75*
G03X23799800Y-10160000I-50800J0D01*
G01*
X23825200Y-6553200D02*
X23926800Y-6654800D01*
X23926800Y-6553200D02*
X23825200Y-6654800D01*
X23926800Y-6604000D02*
G75*
G03X23926800Y-6604000I-50800J0D01*
G01*
X23825200Y-7315200D02*
X23926800Y-7416800D01*
X23926800Y-7315200D02*
X23825200Y-7416800D01*
X23926800Y-7366000D02*
G75*
G03X23926800Y-7366000I-50800J0D01*
G01*
X24206200Y-6553200D02*
X24307800Y-6654800D01*
X24307800Y-6553200D02*
X24206200Y-6654800D01*
X24307800Y-6604000D02*
G75*
G03X24307800Y-6604000I-50800J0D01*
G01*
X24206200Y-7315200D02*
X24307800Y-7416800D01*
X24307800Y-7315200D02*
X24206200Y-7416800D01*
X24307800Y-7366000D02*
G75*
G03X24307800Y-7366000I-50800J0D01*
G01*
X24714200Y-6553200D02*
X24815800Y-6654800D01*
X24815800Y-6553200D02*
X24714200Y-6654800D01*
X24815800Y-6604000D02*
G75*
G03X24815800Y-6604000I-50800J0D01*
G01*
X24714200Y-7315200D02*
X24815800Y-7416800D01*
X24815800Y-7315200D02*
X24714200Y-7416800D01*
X24815800Y-7366000D02*
G75*
G03X24815800Y-7366000I-50800J0D01*
G01*
D13*
X14263928Y-11613214D02*
X14263928Y-11313214D01*
X14335357Y-11313214D01*
X14378214Y-11327500D01*
X14406786Y-11356071D01*
X14421071Y-11384643D01*
X14435357Y-11441786D01*
X14435357Y-11484643D01*
X14421071Y-11541786D01*
X14406786Y-11570357D01*
X14378214Y-11598929D01*
X14335357Y-11613214D01*
X14263928Y-11613214D01*
X14563928Y-11613214D02*
X14563928Y-11413214D01*
X14563928Y-11470357D02*
X14578214Y-11441786D01*
X14592500Y-11427500D01*
X14621071Y-11413214D01*
X14649643Y-11413214D01*
X14749643Y-11613214D02*
X14749643Y-11413214D01*
X14749643Y-11313214D02*
X14735357Y-11327500D01*
X14749643Y-11341786D01*
X14763928Y-11327500D01*
X14749643Y-11313214D01*
X14749643Y-11341786D01*
X14935357Y-11613214D02*
X14906786Y-11598929D01*
X14892500Y-11570357D01*
X14892500Y-11313214D01*
X15092500Y-11613214D02*
X15063928Y-11598929D01*
X15049643Y-11570357D01*
X15049643Y-11313214D01*
X15435357Y-11613214D02*
X15435357Y-11313214D01*
X15535357Y-11527500D01*
X15635357Y-11313214D01*
X15635357Y-11613214D01*
X15906786Y-11613214D02*
X15906786Y-11456071D01*
X15892500Y-11427500D01*
X15863928Y-11413214D01*
X15806786Y-11413214D01*
X15778214Y-11427500D01*
X15906786Y-11598929D02*
X15878214Y-11613214D01*
X15806786Y-11613214D01*
X15778214Y-11598929D01*
X15763928Y-11570357D01*
X15763928Y-11541786D01*
X15778214Y-11513214D01*
X15806786Y-11498929D01*
X15878214Y-11498929D01*
X15906786Y-11484643D01*
X16049643Y-11413214D02*
X16049643Y-11713214D01*
X16049643Y-11427500D02*
X16078214Y-11413214D01*
X16135357Y-11413214D01*
X16163928Y-11427500D01*
X16178214Y-11441786D01*
X16192500Y-11470357D01*
X16192500Y-11556071D01*
X16178214Y-11584643D01*
X16163928Y-11598929D01*
X16135357Y-11613214D01*
X16078214Y-11613214D01*
X16049643Y-11598929D01*
X16321071Y-11584643D02*
X16335357Y-11598929D01*
X16321071Y-11613214D01*
X16306786Y-11598929D01*
X16321071Y-11584643D01*
X16321071Y-11613214D01*
X16321071Y-11427500D02*
X16335357Y-11441786D01*
X16321071Y-11456071D01*
X16306786Y-11441786D01*
X16321071Y-11427500D01*
X16321071Y-11456071D01*
X13952500Y-12087500D02*
X13992500Y-12127500D01*
X13992500Y-12087500D02*
X13952500Y-12127500D01*
X14321071Y-11943214D02*
X14349643Y-11943214D01*
X14378214Y-11957500D01*
X14392500Y-11971786D01*
X14406786Y-12000357D01*
X14421071Y-12057500D01*
X14421071Y-12128929D01*
X14406786Y-12186071D01*
X14392500Y-12214643D01*
X14378214Y-12228929D01*
X14349643Y-12243214D01*
X14321071Y-12243214D01*
X14292500Y-12228929D01*
X14278214Y-12214643D01*
X14263928Y-12186071D01*
X14249643Y-12128929D01*
X14249643Y-12057500D01*
X14263928Y-12000357D01*
X14278214Y-11971786D01*
X14292500Y-11957500D01*
X14321071Y-11943214D01*
X14549643Y-12214643D02*
X14563928Y-12228929D01*
X14549643Y-12243214D01*
X14535357Y-12228929D01*
X14549643Y-12214643D01*
X14549643Y-12243214D01*
X14821071Y-12043214D02*
X14821071Y-12243214D01*
X14749643Y-11928929D02*
X14678214Y-12143214D01*
X14863928Y-12143214D01*
X15035357Y-11943214D02*
X15063928Y-11943214D01*
X15092500Y-11957500D01*
X15106786Y-11971786D01*
X15121071Y-12000357D01*
X15135357Y-12057500D01*
X15135357Y-12128929D01*
X15121071Y-12186071D01*
X15106786Y-12214643D01*
X15092500Y-12228929D01*
X15063928Y-12243214D01*
X15035357Y-12243214D01*
X15006786Y-12228929D01*
X14992500Y-12214643D01*
X14978214Y-12186071D01*
X14963928Y-12128929D01*
X14963928Y-12057500D01*
X14978214Y-12000357D01*
X14992500Y-11971786D01*
X15006786Y-11957500D01*
X15035357Y-11943214D01*
X15263928Y-12243214D02*
X15263928Y-12043214D01*
X15263928Y-12071786D02*
X15278214Y-12057500D01*
X15306786Y-12043214D01*
X15349643Y-12043214D01*
X15378214Y-12057500D01*
X15392500Y-12086071D01*
X15392500Y-12243214D01*
X15392500Y-12086071D02*
X15406786Y-12057500D01*
X15435357Y-12043214D01*
X15478214Y-12043214D01*
X15506786Y-12057500D01*
X15521071Y-12086071D01*
X15521071Y-12243214D01*
X15663928Y-12243214D02*
X15663928Y-12043214D01*
X15663928Y-12071786D02*
X15678214Y-12057500D01*
X15706786Y-12043214D01*
X15749643Y-12043214D01*
X15778214Y-12057500D01*
X15792500Y-12086071D01*
X15792500Y-12243214D01*
X15792500Y-12086071D02*
X15806786Y-12057500D01*
X15835357Y-12043214D01*
X15878214Y-12043214D01*
X15906786Y-12057500D01*
X15921071Y-12086071D01*
X15921071Y-12243214D01*
X16506786Y-11928929D02*
X16249643Y-12314643D01*
X16892500Y-11943214D02*
X16921071Y-11943214D01*
X16949643Y-11957500D01*
X16963928Y-11971786D01*
X16978214Y-12000357D01*
X16992500Y-12057500D01*
X16992500Y-12128929D01*
X16978214Y-12186071D01*
X16963928Y-12214643D01*
X16949643Y-12228929D01*
X16921071Y-12243214D01*
X16892500Y-12243214D01*
X16863928Y-12228929D01*
X16849643Y-12214643D01*
X16835357Y-12186071D01*
X16821071Y-12128929D01*
X16821071Y-12057500D01*
X16835357Y-12000357D01*
X16849643Y-11971786D01*
X16863928Y-11957500D01*
X16892500Y-11943214D01*
X17121071Y-12214643D02*
X17135357Y-12228929D01*
X17121071Y-12243214D01*
X17106786Y-12228929D01*
X17121071Y-12214643D01*
X17121071Y-12243214D01*
X17321071Y-11943214D02*
X17349643Y-11943214D01*
X17378214Y-11957500D01*
X17392500Y-11971786D01*
X17406786Y-12000357D01*
X17421071Y-12057500D01*
X17421071Y-12128929D01*
X17406786Y-12186071D01*
X17392500Y-12214643D01*
X17378214Y-12228929D01*
X17349643Y-12243214D01*
X17321071Y-12243214D01*
X17292500Y-12228929D01*
X17278214Y-12214643D01*
X17263928Y-12186071D01*
X17249643Y-12128929D01*
X17249643Y-12057500D01*
X17263928Y-12000357D01*
X17278214Y-11971786D01*
X17292500Y-11957500D01*
X17321071Y-11943214D01*
X17706786Y-12243214D02*
X17535357Y-12243214D01*
X17621071Y-12243214D02*
X17621071Y-11943214D01*
X17592500Y-11986071D01*
X17563928Y-12014643D01*
X17535357Y-12028929D01*
X17963928Y-11943214D02*
X17906786Y-11943214D01*
X17878214Y-11957500D01*
X17863928Y-11971786D01*
X17835357Y-12014643D01*
X17821071Y-12071786D01*
X17821071Y-12186071D01*
X17835357Y-12214643D01*
X17849643Y-12228929D01*
X17878214Y-12243214D01*
X17935357Y-12243214D01*
X17963928Y-12228929D01*
X17978214Y-12214643D01*
X17992500Y-12186071D01*
X17992500Y-12114643D01*
X17978214Y-12086071D01*
X17963928Y-12071786D01*
X17935357Y-12057500D01*
X17878214Y-12057500D01*
X17849643Y-12071786D01*
X17835357Y-12086071D01*
X17821071Y-12114643D01*
X18106786Y-11943214D02*
X18106786Y-12000357D01*
X18221071Y-11943214D02*
X18221071Y-12000357D01*
X18663928Y-12357500D02*
X18649643Y-12343214D01*
X18621071Y-12300357D01*
X18606786Y-12271786D01*
X18592500Y-12228929D01*
X18578214Y-12157500D01*
X18578214Y-12100357D01*
X18592500Y-12028929D01*
X18606786Y-11986071D01*
X18621071Y-11957500D01*
X18649643Y-11914643D01*
X18663928Y-11900357D01*
X18763928Y-11971786D02*
X18778214Y-11957500D01*
X18806786Y-11943214D01*
X18878214Y-11943214D01*
X18906786Y-11957500D01*
X18921071Y-11971786D01*
X18935357Y-12000357D01*
X18935357Y-12028929D01*
X18921071Y-12071786D01*
X18749643Y-12243214D01*
X18935357Y-12243214D01*
X19192500Y-11943214D02*
X19135357Y-11943214D01*
X19106786Y-11957500D01*
X19092500Y-11971786D01*
X19063928Y-12014643D01*
X19049643Y-12071786D01*
X19049643Y-12186071D01*
X19063928Y-12214643D01*
X19078214Y-12228929D01*
X19106786Y-12243214D01*
X19163928Y-12243214D01*
X19192500Y-12228929D01*
X19206786Y-12214643D01*
X19221071Y-12186071D01*
X19221071Y-12114643D01*
X19206786Y-12086071D01*
X19192500Y-12071786D01*
X19163928Y-12057500D01*
X19106786Y-12057500D01*
X19078214Y-12071786D01*
X19063928Y-12086071D01*
X19049643Y-12114643D01*
X19578214Y-12243214D02*
X19578214Y-11943214D01*
X19706786Y-12243214D02*
X19706786Y-12086071D01*
X19692500Y-12057500D01*
X19663928Y-12043214D01*
X19621071Y-12043214D01*
X19592500Y-12057500D01*
X19578214Y-12071786D01*
X19892500Y-12243214D02*
X19863928Y-12228929D01*
X19849643Y-12214643D01*
X19835357Y-12186071D01*
X19835357Y-12100357D01*
X19849643Y-12071786D01*
X19863928Y-12057500D01*
X19892500Y-12043214D01*
X19935357Y-12043214D01*
X19963928Y-12057500D01*
X19978214Y-12071786D01*
X19992500Y-12100357D01*
X19992500Y-12186071D01*
X19978214Y-12214643D01*
X19963928Y-12228929D01*
X19935357Y-12243214D01*
X19892500Y-12243214D01*
X20163928Y-12243214D02*
X20135357Y-12228929D01*
X20121071Y-12200357D01*
X20121071Y-11943214D01*
X20392500Y-12228929D02*
X20363929Y-12243214D01*
X20306786Y-12243214D01*
X20278214Y-12228929D01*
X20263929Y-12200357D01*
X20263929Y-12086071D01*
X20278214Y-12057500D01*
X20306786Y-12043214D01*
X20363929Y-12043214D01*
X20392500Y-12057500D01*
X20406786Y-12086071D01*
X20406786Y-12114643D01*
X20263929Y-12143214D01*
X20521071Y-12228929D02*
X20549643Y-12243214D01*
X20606786Y-12243214D01*
X20635357Y-12228929D01*
X20649643Y-12200357D01*
X20649643Y-12186071D01*
X20635357Y-12157500D01*
X20606786Y-12143214D01*
X20563929Y-12143214D01*
X20535357Y-12128929D01*
X20521071Y-12100357D01*
X20521071Y-12086071D01*
X20535357Y-12057500D01*
X20563929Y-12043214D01*
X20606786Y-12043214D01*
X20635357Y-12057500D01*
X20749643Y-12357500D02*
X20763929Y-12343214D01*
X20792500Y-12300357D01*
X20806786Y-12271786D01*
X20821071Y-12228929D01*
X20835357Y-12157500D01*
X20835357Y-12100357D01*
X20821071Y-12028929D01*
X20806786Y-11986071D01*
X20792500Y-11957500D01*
X20763929Y-11914643D01*
X20749643Y-11900357D01*
X13992500Y-12503500D02*
G75*
G03X13992500Y-12503500I-30000J0D01*
G01*
X14321071Y-12339214D02*
X14349643Y-12339214D01*
X14378214Y-12353500D01*
X14392500Y-12367786D01*
X14406786Y-12396357D01*
X14421071Y-12453500D01*
X14421071Y-12524929D01*
X14406786Y-12582071D01*
X14392500Y-12610643D01*
X14378214Y-12624929D01*
X14349643Y-12639214D01*
X14321071Y-12639214D01*
X14292500Y-12624929D01*
X14278214Y-12610643D01*
X14263928Y-12582071D01*
X14249643Y-12524929D01*
X14249643Y-12453500D01*
X14263928Y-12396357D01*
X14278214Y-12367786D01*
X14292500Y-12353500D01*
X14321071Y-12339214D01*
X14549643Y-12610643D02*
X14563928Y-12624929D01*
X14549643Y-12639214D01*
X14535357Y-12624929D01*
X14549643Y-12610643D01*
X14549643Y-12639214D01*
X14821071Y-12339214D02*
X14763928Y-12339214D01*
X14735357Y-12353500D01*
X14721071Y-12367786D01*
X14692500Y-12410643D01*
X14678214Y-12467786D01*
X14678214Y-12582071D01*
X14692500Y-12610643D01*
X14706786Y-12624929D01*
X14735357Y-12639214D01*
X14792500Y-12639214D01*
X14821071Y-12624929D01*
X14835357Y-12610643D01*
X14849643Y-12582071D01*
X14849643Y-12510643D01*
X14835357Y-12482071D01*
X14821071Y-12467786D01*
X14792500Y-12453500D01*
X14735357Y-12453500D01*
X14706786Y-12467786D01*
X14692500Y-12482071D01*
X14678214Y-12510643D01*
X15035357Y-12339214D02*
X15063928Y-12339214D01*
X15092500Y-12353500D01*
X15106786Y-12367786D01*
X15121071Y-12396357D01*
X15135357Y-12453500D01*
X15135357Y-12524929D01*
X15121071Y-12582071D01*
X15106786Y-12610643D01*
X15092500Y-12624929D01*
X15063928Y-12639214D01*
X15035357Y-12639214D01*
X15006786Y-12624929D01*
X14992500Y-12610643D01*
X14978214Y-12582071D01*
X14963928Y-12524929D01*
X14963928Y-12453500D01*
X14978214Y-12396357D01*
X14992500Y-12367786D01*
X15006786Y-12353500D01*
X15035357Y-12339214D01*
X15263928Y-12639214D02*
X15263928Y-12439214D01*
X15263928Y-12467786D02*
X15278214Y-12453500D01*
X15306786Y-12439214D01*
X15349643Y-12439214D01*
X15378214Y-12453500D01*
X15392500Y-12482071D01*
X15392500Y-12639214D01*
X15392500Y-12482071D02*
X15406786Y-12453500D01*
X15435357Y-12439214D01*
X15478214Y-12439214D01*
X15506786Y-12453500D01*
X15521071Y-12482071D01*
X15521071Y-12639214D01*
X15663928Y-12639214D02*
X15663928Y-12439214D01*
X15663928Y-12467786D02*
X15678214Y-12453500D01*
X15706786Y-12439214D01*
X15749643Y-12439214D01*
X15778214Y-12453500D01*
X15792500Y-12482071D01*
X15792500Y-12639214D01*
X15792500Y-12482071D02*
X15806786Y-12453500D01*
X15835357Y-12439214D01*
X15878214Y-12439214D01*
X15906786Y-12453500D01*
X15921071Y-12482071D01*
X15921071Y-12639214D01*
X16506786Y-12324929D02*
X16249643Y-12710643D01*
X16892500Y-12339214D02*
X16921071Y-12339214D01*
X16949643Y-12353500D01*
X16963928Y-12367786D01*
X16978214Y-12396357D01*
X16992500Y-12453500D01*
X16992500Y-12524929D01*
X16978214Y-12582071D01*
X16963928Y-12610643D01*
X16949643Y-12624929D01*
X16921071Y-12639214D01*
X16892500Y-12639214D01*
X16863928Y-12624929D01*
X16849643Y-12610643D01*
X16835357Y-12582071D01*
X16821071Y-12524929D01*
X16821071Y-12453500D01*
X16835357Y-12396357D01*
X16849643Y-12367786D01*
X16863928Y-12353500D01*
X16892500Y-12339214D01*
X17121071Y-12610643D02*
X17135357Y-12624929D01*
X17121071Y-12639214D01*
X17106786Y-12624929D01*
X17121071Y-12610643D01*
X17121071Y-12639214D01*
X17321071Y-12339214D02*
X17349643Y-12339214D01*
X17378214Y-12353500D01*
X17392500Y-12367786D01*
X17406786Y-12396357D01*
X17421071Y-12453500D01*
X17421071Y-12524929D01*
X17406786Y-12582071D01*
X17392500Y-12610643D01*
X17378214Y-12624929D01*
X17349643Y-12639214D01*
X17321071Y-12639214D01*
X17292500Y-12624929D01*
X17278214Y-12610643D01*
X17263928Y-12582071D01*
X17249643Y-12524929D01*
X17249643Y-12453500D01*
X17263928Y-12396357D01*
X17278214Y-12367786D01*
X17292500Y-12353500D01*
X17321071Y-12339214D01*
X17535357Y-12367786D02*
X17549643Y-12353500D01*
X17578214Y-12339214D01*
X17649643Y-12339214D01*
X17678214Y-12353500D01*
X17692500Y-12367786D01*
X17706786Y-12396357D01*
X17706786Y-12424929D01*
X17692500Y-12467786D01*
X17521071Y-12639214D01*
X17706786Y-12639214D01*
X17963928Y-12439214D02*
X17963928Y-12639214D01*
X17892500Y-12324929D02*
X17821071Y-12539214D01*
X18006786Y-12539214D01*
X18106786Y-12339214D02*
X18106786Y-12396357D01*
X18221071Y-12339214D02*
X18221071Y-12396357D01*
X18663928Y-12753500D02*
X18649643Y-12739214D01*
X18621071Y-12696357D01*
X18606786Y-12667786D01*
X18592500Y-12624929D01*
X18578214Y-12553500D01*
X18578214Y-12496357D01*
X18592500Y-12424929D01*
X18606786Y-12382071D01*
X18621071Y-12353500D01*
X18649643Y-12310643D01*
X18663928Y-12296357D01*
X18749643Y-12339214D02*
X18935357Y-12339214D01*
X18835357Y-12453500D01*
X18878214Y-12453500D01*
X18906786Y-12467786D01*
X18921071Y-12482071D01*
X18935357Y-12510643D01*
X18935357Y-12582071D01*
X18921071Y-12610643D01*
X18906786Y-12624929D01*
X18878214Y-12639214D01*
X18792500Y-12639214D01*
X18763928Y-12624929D01*
X18749643Y-12610643D01*
X19292500Y-12639214D02*
X19292500Y-12339214D01*
X19421071Y-12639214D02*
X19421071Y-12482071D01*
X19406786Y-12453500D01*
X19378214Y-12439214D01*
X19335357Y-12439214D01*
X19306786Y-12453500D01*
X19292500Y-12467786D01*
X19606786Y-12639214D02*
X19578214Y-12624929D01*
X19563928Y-12610643D01*
X19549643Y-12582071D01*
X19549643Y-12496357D01*
X19563928Y-12467786D01*
X19578214Y-12453500D01*
X19606786Y-12439214D01*
X19649643Y-12439214D01*
X19678214Y-12453500D01*
X19692500Y-12467786D01*
X19706786Y-12496357D01*
X19706786Y-12582071D01*
X19692500Y-12610643D01*
X19678214Y-12624929D01*
X19649643Y-12639214D01*
X19606786Y-12639214D01*
X19878214Y-12639214D02*
X19849643Y-12624929D01*
X19835357Y-12596357D01*
X19835357Y-12339214D01*
X20106786Y-12624929D02*
X20078214Y-12639214D01*
X20021071Y-12639214D01*
X19992500Y-12624929D01*
X19978214Y-12596357D01*
X19978214Y-12482071D01*
X19992500Y-12453500D01*
X20021071Y-12439214D01*
X20078214Y-12439214D01*
X20106786Y-12453500D01*
X20121071Y-12482071D01*
X20121071Y-12510643D01*
X19978214Y-12539214D01*
X20235357Y-12624929D02*
X20263929Y-12639214D01*
X20321071Y-12639214D01*
X20349643Y-12624929D01*
X20363929Y-12596357D01*
X20363929Y-12582071D01*
X20349643Y-12553500D01*
X20321071Y-12539214D01*
X20278214Y-12539214D01*
X20249643Y-12524929D01*
X20235357Y-12496357D01*
X20235357Y-12482071D01*
X20249643Y-12453500D01*
X20278214Y-12439214D01*
X20321071Y-12439214D01*
X20349643Y-12453500D01*
X20463928Y-12753500D02*
X20478214Y-12739214D01*
X20506786Y-12696357D01*
X20521071Y-12667786D01*
X20535357Y-12624929D01*
X20549643Y-12553500D01*
X20549643Y-12496357D01*
X20535357Y-12424929D01*
X20521071Y-12382071D01*
X20506786Y-12353500D01*
X20478214Y-12310643D01*
X20463928Y-12296357D01*
X13952500Y-12859500D02*
X13952500Y-12939500D01*
X13912500Y-12899500D02*
X13992500Y-12899500D01*
X14321071Y-12735214D02*
X14349643Y-12735214D01*
X14378214Y-12749500D01*
X14392500Y-12763786D01*
X14406786Y-12792357D01*
X14421071Y-12849500D01*
X14421071Y-12920929D01*
X14406786Y-12978071D01*
X14392500Y-13006643D01*
X14378214Y-13020929D01*
X14349643Y-13035214D01*
X14321071Y-13035214D01*
X14292500Y-13020929D01*
X14278214Y-13006643D01*
X14263928Y-12978071D01*
X14249643Y-12920929D01*
X14249643Y-12849500D01*
X14263928Y-12792357D01*
X14278214Y-12763786D01*
X14292500Y-12749500D01*
X14321071Y-12735214D01*
X14549643Y-13006643D02*
X14563928Y-13020929D01*
X14549643Y-13035214D01*
X14535357Y-13020929D01*
X14549643Y-13006643D01*
X14549643Y-13035214D01*
X14735357Y-12863786D02*
X14706786Y-12849500D01*
X14692500Y-12835214D01*
X14678214Y-12806643D01*
X14678214Y-12792357D01*
X14692500Y-12763786D01*
X14706786Y-12749500D01*
X14735357Y-12735214D01*
X14792500Y-12735214D01*
X14821071Y-12749500D01*
X14835357Y-12763786D01*
X14849643Y-12792357D01*
X14849643Y-12806643D01*
X14835357Y-12835214D01*
X14821071Y-12849500D01*
X14792500Y-12863786D01*
X14735357Y-12863786D01*
X14706786Y-12878071D01*
X14692500Y-12892357D01*
X14678214Y-12920929D01*
X14678214Y-12978071D01*
X14692500Y-13006643D01*
X14706786Y-13020929D01*
X14735357Y-13035214D01*
X14792500Y-13035214D01*
X14821071Y-13020929D01*
X14835357Y-13006643D01*
X14849643Y-12978071D01*
X14849643Y-12920929D01*
X14835357Y-12892357D01*
X14821071Y-12878071D01*
X14792500Y-12863786D01*
X15035357Y-12735214D02*
X15063928Y-12735214D01*
X15092500Y-12749500D01*
X15106786Y-12763786D01*
X15121071Y-12792357D01*
X15135357Y-12849500D01*
X15135357Y-12920929D01*
X15121071Y-12978071D01*
X15106786Y-13006643D01*
X15092500Y-13020929D01*
X15063928Y-13035214D01*
X15035357Y-13035214D01*
X15006786Y-13020929D01*
X14992500Y-13006643D01*
X14978214Y-12978071D01*
X14963928Y-12920929D01*
X14963928Y-12849500D01*
X14978214Y-12792357D01*
X14992500Y-12763786D01*
X15006786Y-12749500D01*
X15035357Y-12735214D01*
X15263928Y-13035214D02*
X15263928Y-12835214D01*
X15263928Y-12863786D02*
X15278214Y-12849500D01*
X15306786Y-12835214D01*
X15349643Y-12835214D01*
X15378214Y-12849500D01*
X15392500Y-12878071D01*
X15392500Y-13035214D01*
X15392500Y-12878071D02*
X15406786Y-12849500D01*
X15435357Y-12835214D01*
X15478214Y-12835214D01*
X15506786Y-12849500D01*
X15521071Y-12878071D01*
X15521071Y-13035214D01*
X15663928Y-13035214D02*
X15663928Y-12835214D01*
X15663928Y-12863786D02*
X15678214Y-12849500D01*
X15706786Y-12835214D01*
X15749643Y-12835214D01*
X15778214Y-12849500D01*
X15792500Y-12878071D01*
X15792500Y-13035214D01*
X15792500Y-12878071D02*
X15806786Y-12849500D01*
X15835357Y-12835214D01*
X15878214Y-12835214D01*
X15906786Y-12849500D01*
X15921071Y-12878071D01*
X15921071Y-13035214D01*
X16506786Y-12720929D02*
X16249643Y-13106643D01*
X16892500Y-12735214D02*
X16921071Y-12735214D01*
X16949643Y-12749500D01*
X16963928Y-12763786D01*
X16978214Y-12792357D01*
X16992500Y-12849500D01*
X16992500Y-12920929D01*
X16978214Y-12978071D01*
X16963928Y-13006643D01*
X16949643Y-13020929D01*
X16921071Y-13035214D01*
X16892500Y-13035214D01*
X16863928Y-13020929D01*
X16849643Y-13006643D01*
X16835357Y-12978071D01*
X16821071Y-12920929D01*
X16821071Y-12849500D01*
X16835357Y-12792357D01*
X16849643Y-12763786D01*
X16863928Y-12749500D01*
X16892500Y-12735214D01*
X17121071Y-13006643D02*
X17135357Y-13020929D01*
X17121071Y-13035214D01*
X17106786Y-13020929D01*
X17121071Y-13006643D01*
X17121071Y-13035214D01*
X17321071Y-12735214D02*
X17349643Y-12735214D01*
X17378214Y-12749500D01*
X17392500Y-12763786D01*
X17406786Y-12792357D01*
X17421071Y-12849500D01*
X17421071Y-12920929D01*
X17406786Y-12978071D01*
X17392500Y-13006643D01*
X17378214Y-13020929D01*
X17349643Y-13035214D01*
X17321071Y-13035214D01*
X17292500Y-13020929D01*
X17278214Y-13006643D01*
X17263928Y-12978071D01*
X17249643Y-12920929D01*
X17249643Y-12849500D01*
X17263928Y-12792357D01*
X17278214Y-12763786D01*
X17292500Y-12749500D01*
X17321071Y-12735214D01*
X17521071Y-12735214D02*
X17706786Y-12735214D01*
X17606786Y-12849500D01*
X17649643Y-12849500D01*
X17678214Y-12863786D01*
X17692500Y-12878071D01*
X17706786Y-12906643D01*
X17706786Y-12978071D01*
X17692500Y-13006643D01*
X17678214Y-13020929D01*
X17649643Y-13035214D01*
X17563928Y-13035214D01*
X17535357Y-13020929D01*
X17521071Y-13006643D01*
X17992500Y-13035214D02*
X17821071Y-13035214D01*
X17906786Y-13035214D02*
X17906786Y-12735214D01*
X17878214Y-12778071D01*
X17849643Y-12806643D01*
X17821071Y-12820929D01*
X18106786Y-12735214D02*
X18106786Y-12792357D01*
X18221071Y-12735214D02*
X18221071Y-12792357D01*
X18663928Y-13149500D02*
X18649643Y-13135214D01*
X18621071Y-13092357D01*
X18606786Y-13063786D01*
X18592500Y-13020929D01*
X18578214Y-12949500D01*
X18578214Y-12892357D01*
X18592500Y-12820929D01*
X18606786Y-12778071D01*
X18621071Y-12749500D01*
X18649643Y-12706643D01*
X18663928Y-12692357D01*
X18749643Y-12735214D02*
X18935357Y-12735214D01*
X18835357Y-12849500D01*
X18878214Y-12849500D01*
X18906786Y-12863786D01*
X18921071Y-12878071D01*
X18935357Y-12906643D01*
X18935357Y-12978071D01*
X18921071Y-13006643D01*
X18906786Y-13020929D01*
X18878214Y-13035214D01*
X18792500Y-13035214D01*
X18763928Y-13020929D01*
X18749643Y-13006643D01*
X19121071Y-12735214D02*
X19149643Y-12735214D01*
X19178214Y-12749500D01*
X19192500Y-12763786D01*
X19206786Y-12792357D01*
X19221071Y-12849500D01*
X19221071Y-12920929D01*
X19206786Y-12978071D01*
X19192500Y-13006643D01*
X19178214Y-13020929D01*
X19149643Y-13035214D01*
X19121071Y-13035214D01*
X19092500Y-13020929D01*
X19078214Y-13006643D01*
X19063928Y-12978071D01*
X19049643Y-12920929D01*
X19049643Y-12849500D01*
X19063928Y-12792357D01*
X19078214Y-12763786D01*
X19092500Y-12749500D01*
X19121071Y-12735214D01*
X19578214Y-13035214D02*
X19578214Y-12735214D01*
X19706786Y-13035214D02*
X19706786Y-12878071D01*
X19692500Y-12849500D01*
X19663928Y-12835214D01*
X19621071Y-12835214D01*
X19592500Y-12849500D01*
X19578214Y-12863786D01*
X19892500Y-13035214D02*
X19863928Y-13020929D01*
X19849643Y-13006643D01*
X19835357Y-12978071D01*
X19835357Y-12892357D01*
X19849643Y-12863786D01*
X19863928Y-12849500D01*
X19892500Y-12835214D01*
X19935357Y-12835214D01*
X19963928Y-12849500D01*
X19978214Y-12863786D01*
X19992500Y-12892357D01*
X19992500Y-12978071D01*
X19978214Y-13006643D01*
X19963928Y-13020929D01*
X19935357Y-13035214D01*
X19892500Y-13035214D01*
X20163928Y-13035214D02*
X20135357Y-13020929D01*
X20121071Y-12992357D01*
X20121071Y-12735214D01*
X20392500Y-13020929D02*
X20363929Y-13035214D01*
X20306786Y-13035214D01*
X20278214Y-13020929D01*
X20263929Y-12992357D01*
X20263929Y-12878071D01*
X20278214Y-12849500D01*
X20306786Y-12835214D01*
X20363929Y-12835214D01*
X20392500Y-12849500D01*
X20406786Y-12878071D01*
X20406786Y-12906643D01*
X20263929Y-12935214D01*
X20521071Y-13020929D02*
X20549643Y-13035214D01*
X20606786Y-13035214D01*
X20635357Y-13020929D01*
X20649643Y-12992357D01*
X20649643Y-12978071D01*
X20635357Y-12949500D01*
X20606786Y-12935214D01*
X20563929Y-12935214D01*
X20535357Y-12920929D01*
X20521071Y-12892357D01*
X20521071Y-12878071D01*
X20535357Y-12849500D01*
X20563929Y-12835214D01*
X20606786Y-12835214D01*
X20635357Y-12849500D01*
X20749643Y-13149500D02*
X20763929Y-13135214D01*
X20792500Y-13092357D01*
X20806786Y-13063786D01*
X20821071Y-13020929D01*
X20835357Y-12949500D01*
X20835357Y-12892357D01*
X20821071Y-12820929D01*
X20806786Y-12778071D01*
X20792500Y-12749500D01*
X20763929Y-12706643D01*
X20749643Y-12692357D01*
X13979320Y-13327320D02*
X13979320Y-13263680D01*
X13915680Y-13263680D01*
X13915680Y-13327320D01*
X13979320Y-13327320D01*
X14321071Y-13131214D02*
X14349643Y-13131214D01*
X14378214Y-13145500D01*
X14392500Y-13159786D01*
X14406786Y-13188357D01*
X14421071Y-13245500D01*
X14421071Y-13316929D01*
X14406786Y-13374071D01*
X14392500Y-13402643D01*
X14378214Y-13416929D01*
X14349643Y-13431214D01*
X14321071Y-13431214D01*
X14292500Y-13416929D01*
X14278214Y-13402643D01*
X14263928Y-13374071D01*
X14249643Y-13316929D01*
X14249643Y-13245500D01*
X14263928Y-13188357D01*
X14278214Y-13159786D01*
X14292500Y-13145500D01*
X14321071Y-13131214D01*
X14549643Y-13402643D02*
X14563928Y-13416929D01*
X14549643Y-13431214D01*
X14535357Y-13416929D01*
X14549643Y-13402643D01*
X14549643Y-13431214D01*
X14706786Y-13431214D02*
X14763928Y-13431214D01*
X14792500Y-13416929D01*
X14806786Y-13402643D01*
X14835357Y-13359786D01*
X14849643Y-13302643D01*
X14849643Y-13188357D01*
X14835357Y-13159786D01*
X14821071Y-13145500D01*
X14792500Y-13131214D01*
X14735357Y-13131214D01*
X14706786Y-13145500D01*
X14692500Y-13159786D01*
X14678214Y-13188357D01*
X14678214Y-13259786D01*
X14692500Y-13288357D01*
X14706786Y-13302643D01*
X14735357Y-13316929D01*
X14792500Y-13316929D01*
X14821071Y-13302643D01*
X14835357Y-13288357D01*
X14849643Y-13259786D01*
X15035357Y-13131214D02*
X15063928Y-13131214D01*
X15092500Y-13145500D01*
X15106786Y-13159786D01*
X15121071Y-13188357D01*
X15135357Y-13245500D01*
X15135357Y-13316929D01*
X15121071Y-13374071D01*
X15106786Y-13402643D01*
X15092500Y-13416929D01*
X15063928Y-13431214D01*
X15035357Y-13431214D01*
X15006786Y-13416929D01*
X14992500Y-13402643D01*
X14978214Y-13374071D01*
X14963928Y-13316929D01*
X14963928Y-13245500D01*
X14978214Y-13188357D01*
X14992500Y-13159786D01*
X15006786Y-13145500D01*
X15035357Y-13131214D01*
X15263928Y-13431214D02*
X15263928Y-13231214D01*
X15263928Y-13259786D02*
X15278214Y-13245500D01*
X15306786Y-13231214D01*
X15349643Y-13231214D01*
X15378214Y-13245500D01*
X15392500Y-13274071D01*
X15392500Y-13431214D01*
X15392500Y-13274071D02*
X15406786Y-13245500D01*
X15435357Y-13231214D01*
X15478214Y-13231214D01*
X15506786Y-13245500D01*
X15521071Y-13274071D01*
X15521071Y-13431214D01*
X15663928Y-13431214D02*
X15663928Y-13231214D01*
X15663928Y-13259786D02*
X15678214Y-13245500D01*
X15706786Y-13231214D01*
X15749643Y-13231214D01*
X15778214Y-13245500D01*
X15792500Y-13274071D01*
X15792500Y-13431214D01*
X15792500Y-13274071D02*
X15806786Y-13245500D01*
X15835357Y-13231214D01*
X15878214Y-13231214D01*
X15906786Y-13245500D01*
X15921071Y-13274071D01*
X15921071Y-13431214D01*
X16506786Y-13116929D02*
X16249643Y-13502643D01*
X16892500Y-13131214D02*
X16921071Y-13131214D01*
X16949643Y-13145500D01*
X16963928Y-13159786D01*
X16978214Y-13188357D01*
X16992500Y-13245500D01*
X16992500Y-13316929D01*
X16978214Y-13374071D01*
X16963928Y-13402643D01*
X16949643Y-13416929D01*
X16921071Y-13431214D01*
X16892500Y-13431214D01*
X16863928Y-13416929D01*
X16849643Y-13402643D01*
X16835357Y-13374071D01*
X16821071Y-13316929D01*
X16821071Y-13245500D01*
X16835357Y-13188357D01*
X16849643Y-13159786D01*
X16863928Y-13145500D01*
X16892500Y-13131214D01*
X17121071Y-13402643D02*
X17135357Y-13416929D01*
X17121071Y-13431214D01*
X17106786Y-13416929D01*
X17121071Y-13402643D01*
X17121071Y-13431214D01*
X17321071Y-13131214D02*
X17349643Y-13131214D01*
X17378214Y-13145500D01*
X17392500Y-13159786D01*
X17406786Y-13188357D01*
X17421071Y-13245500D01*
X17421071Y-13316929D01*
X17406786Y-13374071D01*
X17392500Y-13402643D01*
X17378214Y-13416929D01*
X17349643Y-13431214D01*
X17321071Y-13431214D01*
X17292500Y-13416929D01*
X17278214Y-13402643D01*
X17263928Y-13374071D01*
X17249643Y-13316929D01*
X17249643Y-13245500D01*
X17263928Y-13188357D01*
X17278214Y-13159786D01*
X17292500Y-13145500D01*
X17321071Y-13131214D01*
X17521071Y-13131214D02*
X17706786Y-13131214D01*
X17606786Y-13245500D01*
X17649643Y-13245500D01*
X17678214Y-13259786D01*
X17692500Y-13274071D01*
X17706786Y-13302643D01*
X17706786Y-13374071D01*
X17692500Y-13402643D01*
X17678214Y-13416929D01*
X17649643Y-13431214D01*
X17563928Y-13431214D01*
X17535357Y-13416929D01*
X17521071Y-13402643D01*
X17978214Y-13131214D02*
X17835357Y-13131214D01*
X17821071Y-13274071D01*
X17835357Y-13259786D01*
X17863928Y-13245500D01*
X17935357Y-13245500D01*
X17963928Y-13259786D01*
X17978214Y-13274071D01*
X17992500Y-13302643D01*
X17992500Y-13374071D01*
X17978214Y-13402643D01*
X17963928Y-13416929D01*
X17935357Y-13431214D01*
X17863928Y-13431214D01*
X17835357Y-13416929D01*
X17821071Y-13402643D01*
X18106786Y-13131214D02*
X18106786Y-13188357D01*
X18221071Y-13131214D02*
X18221071Y-13188357D01*
X18663928Y-13545500D02*
X18649643Y-13531214D01*
X18621071Y-13488357D01*
X18606786Y-13459786D01*
X18592500Y-13416929D01*
X18578214Y-13345500D01*
X18578214Y-13288357D01*
X18592500Y-13216929D01*
X18606786Y-13174071D01*
X18621071Y-13145500D01*
X18649643Y-13102643D01*
X18663928Y-13088357D01*
X18821071Y-13259786D02*
X18792500Y-13245500D01*
X18778214Y-13231214D01*
X18763928Y-13202643D01*
X18763928Y-13188357D01*
X18778214Y-13159786D01*
X18792500Y-13145500D01*
X18821071Y-13131214D01*
X18878214Y-13131214D01*
X18906786Y-13145500D01*
X18921071Y-13159786D01*
X18935357Y-13188357D01*
X18935357Y-13202643D01*
X18921071Y-13231214D01*
X18906786Y-13245500D01*
X18878214Y-13259786D01*
X18821071Y-13259786D01*
X18792500Y-13274071D01*
X18778214Y-13288357D01*
X18763928Y-13316929D01*
X18763928Y-13374071D01*
X18778214Y-13402643D01*
X18792500Y-13416929D01*
X18821071Y-13431214D01*
X18878214Y-13431214D01*
X18906786Y-13416929D01*
X18921071Y-13402643D01*
X18935357Y-13374071D01*
X18935357Y-13316929D01*
X18921071Y-13288357D01*
X18906786Y-13274071D01*
X18878214Y-13259786D01*
X19292500Y-13431214D02*
X19292500Y-13131214D01*
X19421071Y-13431214D02*
X19421071Y-13274071D01*
X19406786Y-13245500D01*
X19378214Y-13231214D01*
X19335357Y-13231214D01*
X19306786Y-13245500D01*
X19292500Y-13259786D01*
X19606786Y-13431214D02*
X19578214Y-13416929D01*
X19563928Y-13402643D01*
X19549643Y-13374071D01*
X19549643Y-13288357D01*
X19563928Y-13259786D01*
X19578214Y-13245500D01*
X19606786Y-13231214D01*
X19649643Y-13231214D01*
X19678214Y-13245500D01*
X19692500Y-13259786D01*
X19706786Y-13288357D01*
X19706786Y-13374071D01*
X19692500Y-13402643D01*
X19678214Y-13416929D01*
X19649643Y-13431214D01*
X19606786Y-13431214D01*
X19878214Y-13431214D02*
X19849643Y-13416929D01*
X19835357Y-13388357D01*
X19835357Y-13131214D01*
X20106786Y-13416929D02*
X20078214Y-13431214D01*
X20021071Y-13431214D01*
X19992500Y-13416929D01*
X19978214Y-13388357D01*
X19978214Y-13274071D01*
X19992500Y-13245500D01*
X20021071Y-13231214D01*
X20078214Y-13231214D01*
X20106786Y-13245500D01*
X20121071Y-13274071D01*
X20121071Y-13302643D01*
X19978214Y-13331214D01*
X20235357Y-13416929D02*
X20263929Y-13431214D01*
X20321071Y-13431214D01*
X20349643Y-13416929D01*
X20363929Y-13388357D01*
X20363929Y-13374071D01*
X20349643Y-13345500D01*
X20321071Y-13331214D01*
X20278214Y-13331214D01*
X20249643Y-13316929D01*
X20235357Y-13288357D01*
X20235357Y-13274071D01*
X20249643Y-13245500D01*
X20278214Y-13231214D01*
X20321071Y-13231214D01*
X20349643Y-13245500D01*
X20463928Y-13545500D02*
X20478214Y-13531214D01*
X20506786Y-13488357D01*
X20521071Y-13459786D01*
X20535357Y-13416929D01*
X20549643Y-13345500D01*
X20549643Y-13288357D01*
X20535357Y-13216929D01*
X20521071Y-13174071D01*
X20506786Y-13145500D01*
X20478214Y-13102643D01*
X20463928Y-13088357D01*
X13942500Y-13741500D02*
X13992500Y-13691500D01*
X13942500Y-13641500D01*
X13892500Y-13691500D01*
X13942500Y-13741500D01*
X14421071Y-13827214D02*
X14249643Y-13827214D01*
X14335357Y-13827214D02*
X14335357Y-13527214D01*
X14306786Y-13570071D01*
X14278214Y-13598643D01*
X14249643Y-13612929D01*
X14549643Y-13798643D02*
X14563928Y-13812929D01*
X14549643Y-13827214D01*
X14535357Y-13812929D01*
X14549643Y-13798643D01*
X14549643Y-13827214D01*
X14749643Y-13527214D02*
X14778214Y-13527214D01*
X14806786Y-13541500D01*
X14821071Y-13555786D01*
X14835357Y-13584357D01*
X14849643Y-13641500D01*
X14849643Y-13712929D01*
X14835357Y-13770071D01*
X14821071Y-13798643D01*
X14806786Y-13812929D01*
X14778214Y-13827214D01*
X14749643Y-13827214D01*
X14721071Y-13812929D01*
X14706786Y-13798643D01*
X14692500Y-13770071D01*
X14678214Y-13712929D01*
X14678214Y-13641500D01*
X14692500Y-13584357D01*
X14706786Y-13555786D01*
X14721071Y-13541500D01*
X14749643Y-13527214D01*
X15035357Y-13527214D02*
X15063928Y-13527214D01*
X15092500Y-13541500D01*
X15106786Y-13555786D01*
X15121071Y-13584357D01*
X15135357Y-13641500D01*
X15135357Y-13712929D01*
X15121071Y-13770071D01*
X15106786Y-13798643D01*
X15092500Y-13812929D01*
X15063928Y-13827214D01*
X15035357Y-13827214D01*
X15006786Y-13812929D01*
X14992500Y-13798643D01*
X14978214Y-13770071D01*
X14963928Y-13712929D01*
X14963928Y-13641500D01*
X14978214Y-13584357D01*
X14992500Y-13555786D01*
X15006786Y-13541500D01*
X15035357Y-13527214D01*
X15263928Y-13827214D02*
X15263928Y-13627214D01*
X15263928Y-13655786D02*
X15278214Y-13641500D01*
X15306786Y-13627214D01*
X15349643Y-13627214D01*
X15378214Y-13641500D01*
X15392500Y-13670071D01*
X15392500Y-13827214D01*
X15392500Y-13670071D02*
X15406786Y-13641500D01*
X15435357Y-13627214D01*
X15478214Y-13627214D01*
X15506786Y-13641500D01*
X15521071Y-13670071D01*
X15521071Y-13827214D01*
X15663928Y-13827214D02*
X15663928Y-13627214D01*
X15663928Y-13655786D02*
X15678214Y-13641500D01*
X15706786Y-13627214D01*
X15749643Y-13627214D01*
X15778214Y-13641500D01*
X15792500Y-13670071D01*
X15792500Y-13827214D01*
X15792500Y-13670071D02*
X15806786Y-13641500D01*
X15835357Y-13627214D01*
X15878214Y-13627214D01*
X15906786Y-13641500D01*
X15921071Y-13670071D01*
X15921071Y-13827214D01*
X16506786Y-13512929D02*
X16249643Y-13898643D01*
X16892500Y-13527214D02*
X16921071Y-13527214D01*
X16949643Y-13541500D01*
X16963928Y-13555786D01*
X16978214Y-13584357D01*
X16992500Y-13641500D01*
X16992500Y-13712929D01*
X16978214Y-13770071D01*
X16963928Y-13798643D01*
X16949643Y-13812929D01*
X16921071Y-13827214D01*
X16892500Y-13827214D01*
X16863928Y-13812929D01*
X16849643Y-13798643D01*
X16835357Y-13770071D01*
X16821071Y-13712929D01*
X16821071Y-13641500D01*
X16835357Y-13584357D01*
X16849643Y-13555786D01*
X16863928Y-13541500D01*
X16892500Y-13527214D01*
X17121071Y-13798643D02*
X17135357Y-13812929D01*
X17121071Y-13827214D01*
X17106786Y-13812929D01*
X17121071Y-13798643D01*
X17121071Y-13827214D01*
X17321071Y-13527214D02*
X17349643Y-13527214D01*
X17378214Y-13541500D01*
X17392500Y-13555786D01*
X17406786Y-13584357D01*
X17421071Y-13641500D01*
X17421071Y-13712929D01*
X17406786Y-13770071D01*
X17392500Y-13798643D01*
X17378214Y-13812929D01*
X17349643Y-13827214D01*
X17321071Y-13827214D01*
X17292500Y-13812929D01*
X17278214Y-13798643D01*
X17263928Y-13770071D01*
X17249643Y-13712929D01*
X17249643Y-13641500D01*
X17263928Y-13584357D01*
X17278214Y-13555786D01*
X17292500Y-13541500D01*
X17321071Y-13527214D01*
X17521071Y-13527214D02*
X17706786Y-13527214D01*
X17606786Y-13641500D01*
X17649643Y-13641500D01*
X17678214Y-13655786D01*
X17692500Y-13670071D01*
X17706786Y-13698643D01*
X17706786Y-13770071D01*
X17692500Y-13798643D01*
X17678214Y-13812929D01*
X17649643Y-13827214D01*
X17563928Y-13827214D01*
X17535357Y-13812929D01*
X17521071Y-13798643D01*
X17849643Y-13827214D02*
X17906786Y-13827214D01*
X17935357Y-13812929D01*
X17949643Y-13798643D01*
X17978214Y-13755786D01*
X17992500Y-13698643D01*
X17992500Y-13584357D01*
X17978214Y-13555786D01*
X17963928Y-13541500D01*
X17935357Y-13527214D01*
X17878214Y-13527214D01*
X17849643Y-13541500D01*
X17835357Y-13555786D01*
X17821071Y-13584357D01*
X17821071Y-13655786D01*
X17835357Y-13684357D01*
X17849643Y-13698643D01*
X17878214Y-13712929D01*
X17935357Y-13712929D01*
X17963928Y-13698643D01*
X17978214Y-13684357D01*
X17992500Y-13655786D01*
X18106786Y-13527214D02*
X18106786Y-13584357D01*
X18221071Y-13527214D02*
X18221071Y-13584357D01*
X18663928Y-13941500D02*
X18649643Y-13927214D01*
X18621071Y-13884357D01*
X18606786Y-13855786D01*
X18592500Y-13812929D01*
X18578214Y-13741500D01*
X18578214Y-13684357D01*
X18592500Y-13612929D01*
X18606786Y-13570071D01*
X18621071Y-13541500D01*
X18649643Y-13498643D01*
X18663928Y-13484357D01*
X18763928Y-13555786D02*
X18778214Y-13541500D01*
X18806786Y-13527214D01*
X18878214Y-13527214D01*
X18906786Y-13541500D01*
X18921071Y-13555786D01*
X18935357Y-13584357D01*
X18935357Y-13612929D01*
X18921071Y-13655786D01*
X18749643Y-13827214D01*
X18935357Y-13827214D01*
X19192500Y-13627214D02*
X19192500Y-13827214D01*
X19121071Y-13512929D02*
X19049643Y-13727214D01*
X19235357Y-13727214D01*
X19363928Y-13827214D02*
X19421071Y-13827214D01*
X19449643Y-13812929D01*
X19463928Y-13798643D01*
X19492500Y-13755786D01*
X19506786Y-13698643D01*
X19506786Y-13584357D01*
X19492500Y-13555786D01*
X19478214Y-13541500D01*
X19449643Y-13527214D01*
X19392500Y-13527214D01*
X19363928Y-13541500D01*
X19349643Y-13555786D01*
X19335357Y-13584357D01*
X19335357Y-13655786D01*
X19349643Y-13684357D01*
X19363928Y-13698643D01*
X19392500Y-13712929D01*
X19449643Y-13712929D01*
X19478214Y-13698643D01*
X19492500Y-13684357D01*
X19506786Y-13655786D01*
X19863928Y-13827214D02*
X19863928Y-13527214D01*
X19992500Y-13827214D02*
X19992500Y-13670071D01*
X19978214Y-13641500D01*
X19949643Y-13627214D01*
X19906786Y-13627214D01*
X19878214Y-13641500D01*
X19863928Y-13655786D01*
X20178214Y-13827214D02*
X20149643Y-13812929D01*
X20135357Y-13798643D01*
X20121071Y-13770071D01*
X20121071Y-13684357D01*
X20135357Y-13655786D01*
X20149643Y-13641500D01*
X20178214Y-13627214D01*
X20221071Y-13627214D01*
X20249643Y-13641500D01*
X20263928Y-13655786D01*
X20278214Y-13684357D01*
X20278214Y-13770071D01*
X20263928Y-13798643D01*
X20249643Y-13812929D01*
X20221071Y-13827214D01*
X20178214Y-13827214D01*
X20449643Y-13827214D02*
X20421071Y-13812929D01*
X20406786Y-13784357D01*
X20406786Y-13527214D01*
X20678214Y-13812929D02*
X20649643Y-13827214D01*
X20592500Y-13827214D01*
X20563929Y-13812929D01*
X20549643Y-13784357D01*
X20549643Y-13670071D01*
X20563929Y-13641500D01*
X20592500Y-13627214D01*
X20649643Y-13627214D01*
X20678214Y-13641500D01*
X20692500Y-13670071D01*
X20692500Y-13698643D01*
X20549643Y-13727214D01*
X20806786Y-13812929D02*
X20835357Y-13827214D01*
X20892500Y-13827214D01*
X20921071Y-13812929D01*
X20935357Y-13784357D01*
X20935357Y-13770071D01*
X20921071Y-13741500D01*
X20892500Y-13727214D01*
X20849643Y-13727214D01*
X20821071Y-13712929D01*
X20806786Y-13684357D01*
X20806786Y-13670071D01*
X20821071Y-13641500D01*
X20849643Y-13627214D01*
X20892500Y-13627214D01*
X20921071Y-13641500D01*
X21035357Y-13941500D02*
X21049643Y-13927214D01*
X21078214Y-13884357D01*
X21092500Y-13855786D01*
X21106786Y-13812929D01*
X21121071Y-13741500D01*
X21121071Y-13684357D01*
X21106786Y-13612929D01*
X21092500Y-13570071D01*
X21078214Y-13541500D01*
X21049643Y-13498643D01*
X21035357Y-13484357D01*
X13890900Y-14036700D02*
X13992500Y-14138300D01*
X13992500Y-14036700D02*
X13890900Y-14138300D01*
X13992500Y-14087500D02*
G75*
G03X13992500Y-14087500I-50800J0D01*
G01*
X14421071Y-14223214D02*
X14249643Y-14223214D01*
X14335357Y-14223214D02*
X14335357Y-13923214D01*
X14306786Y-13966071D01*
X14278214Y-13994643D01*
X14249643Y-14008929D01*
X14549643Y-14194643D02*
X14563928Y-14208929D01*
X14549643Y-14223214D01*
X14535357Y-14208929D01*
X14549643Y-14194643D01*
X14549643Y-14223214D01*
X14749643Y-13923214D02*
X14778214Y-13923214D01*
X14806786Y-13937500D01*
X14821071Y-13951786D01*
X14835357Y-13980357D01*
X14849643Y-14037500D01*
X14849643Y-14108929D01*
X14835357Y-14166071D01*
X14821071Y-14194643D01*
X14806786Y-14208929D01*
X14778214Y-14223214D01*
X14749643Y-14223214D01*
X14721071Y-14208929D01*
X14706786Y-14194643D01*
X14692500Y-14166071D01*
X14678214Y-14108929D01*
X14678214Y-14037500D01*
X14692500Y-13980357D01*
X14706786Y-13951786D01*
X14721071Y-13937500D01*
X14749643Y-13923214D01*
X14963928Y-13951786D02*
X14978214Y-13937500D01*
X15006786Y-13923214D01*
X15078214Y-13923214D01*
X15106786Y-13937500D01*
X15121071Y-13951786D01*
X15135357Y-13980357D01*
X15135357Y-14008929D01*
X15121071Y-14051786D01*
X14949643Y-14223214D01*
X15135357Y-14223214D01*
X15263928Y-14223214D02*
X15263928Y-14023214D01*
X15263928Y-14051786D02*
X15278214Y-14037500D01*
X15306786Y-14023214D01*
X15349643Y-14023214D01*
X15378214Y-14037500D01*
X15392500Y-14066071D01*
X15392500Y-14223214D01*
X15392500Y-14066071D02*
X15406786Y-14037500D01*
X15435357Y-14023214D01*
X15478214Y-14023214D01*
X15506786Y-14037500D01*
X15521071Y-14066071D01*
X15521071Y-14223214D01*
X15663928Y-14223214D02*
X15663928Y-14023214D01*
X15663928Y-14051786D02*
X15678214Y-14037500D01*
X15706786Y-14023214D01*
X15749643Y-14023214D01*
X15778214Y-14037500D01*
X15792500Y-14066071D01*
X15792500Y-14223214D01*
X15792500Y-14066071D02*
X15806786Y-14037500D01*
X15835357Y-14023214D01*
X15878214Y-14023214D01*
X15906786Y-14037500D01*
X15921071Y-14066071D01*
X15921071Y-14223214D01*
X16506786Y-13908929D02*
X16249643Y-14294643D01*
X16892500Y-13923214D02*
X16921071Y-13923214D01*
X16949643Y-13937500D01*
X16963928Y-13951786D01*
X16978214Y-13980357D01*
X16992500Y-14037500D01*
X16992500Y-14108929D01*
X16978214Y-14166071D01*
X16963928Y-14194643D01*
X16949643Y-14208929D01*
X16921071Y-14223214D01*
X16892500Y-14223214D01*
X16863928Y-14208929D01*
X16849643Y-14194643D01*
X16835357Y-14166071D01*
X16821071Y-14108929D01*
X16821071Y-14037500D01*
X16835357Y-13980357D01*
X16849643Y-13951786D01*
X16863928Y-13937500D01*
X16892500Y-13923214D01*
X17121071Y-14194643D02*
X17135357Y-14208929D01*
X17121071Y-14223214D01*
X17106786Y-14208929D01*
X17121071Y-14194643D01*
X17121071Y-14223214D01*
X17321071Y-13923214D02*
X17349643Y-13923214D01*
X17378214Y-13937500D01*
X17392500Y-13951786D01*
X17406786Y-13980357D01*
X17421071Y-14037500D01*
X17421071Y-14108929D01*
X17406786Y-14166071D01*
X17392500Y-14194643D01*
X17378214Y-14208929D01*
X17349643Y-14223214D01*
X17321071Y-14223214D01*
X17292500Y-14208929D01*
X17278214Y-14194643D01*
X17263928Y-14166071D01*
X17249643Y-14108929D01*
X17249643Y-14037500D01*
X17263928Y-13980357D01*
X17278214Y-13951786D01*
X17292500Y-13937500D01*
X17321071Y-13923214D01*
X17678214Y-14023214D02*
X17678214Y-14223214D01*
X17606786Y-13908929D02*
X17535357Y-14123214D01*
X17721071Y-14123214D01*
X17892500Y-13923214D02*
X17921071Y-13923214D01*
X17949643Y-13937500D01*
X17963928Y-13951786D01*
X17978214Y-13980357D01*
X17992500Y-14037500D01*
X17992500Y-14108929D01*
X17978214Y-14166071D01*
X17963928Y-14194643D01*
X17949643Y-14208929D01*
X17921071Y-14223214D01*
X17892500Y-14223214D01*
X17863928Y-14208929D01*
X17849643Y-14194643D01*
X17835357Y-14166071D01*
X17821071Y-14108929D01*
X17821071Y-14037500D01*
X17835357Y-13980357D01*
X17849643Y-13951786D01*
X17863928Y-13937500D01*
X17892500Y-13923214D01*
X18106786Y-13923214D02*
X18106786Y-13980357D01*
X18221071Y-13923214D02*
X18221071Y-13980357D01*
X18663928Y-14337500D02*
X18649643Y-14323214D01*
X18621071Y-14280357D01*
X18606786Y-14251786D01*
X18592500Y-14208929D01*
X18578214Y-14137500D01*
X18578214Y-14080357D01*
X18592500Y-14008929D01*
X18606786Y-13966071D01*
X18621071Y-13937500D01*
X18649643Y-13894643D01*
X18663928Y-13880357D01*
X18749643Y-13923214D02*
X18935357Y-13923214D01*
X18835357Y-14037500D01*
X18878214Y-14037500D01*
X18906786Y-14051786D01*
X18921071Y-14066071D01*
X18935357Y-14094643D01*
X18935357Y-14166071D01*
X18921071Y-14194643D01*
X18906786Y-14208929D01*
X18878214Y-14223214D01*
X18792500Y-14223214D01*
X18763928Y-14208929D01*
X18749643Y-14194643D01*
X19106786Y-14051786D02*
X19078214Y-14037500D01*
X19063928Y-14023214D01*
X19049643Y-13994643D01*
X19049643Y-13980357D01*
X19063928Y-13951786D01*
X19078214Y-13937500D01*
X19106786Y-13923214D01*
X19163928Y-13923214D01*
X19192500Y-13937500D01*
X19206786Y-13951786D01*
X19221071Y-13980357D01*
X19221071Y-13994643D01*
X19206786Y-14023214D01*
X19192500Y-14037500D01*
X19163928Y-14051786D01*
X19106786Y-14051786D01*
X19078214Y-14066071D01*
X19063928Y-14080357D01*
X19049643Y-14108929D01*
X19049643Y-14166071D01*
X19063928Y-14194643D01*
X19078214Y-14208929D01*
X19106786Y-14223214D01*
X19163928Y-14223214D01*
X19192500Y-14208929D01*
X19206786Y-14194643D01*
X19221071Y-14166071D01*
X19221071Y-14108929D01*
X19206786Y-14080357D01*
X19192500Y-14066071D01*
X19163928Y-14051786D01*
X19578214Y-14223214D02*
X19578214Y-13923214D01*
X19706786Y-14223214D02*
X19706786Y-14066071D01*
X19692500Y-14037500D01*
X19663928Y-14023214D01*
X19621071Y-14023214D01*
X19592500Y-14037500D01*
X19578214Y-14051786D01*
X19892500Y-14223214D02*
X19863928Y-14208929D01*
X19849643Y-14194643D01*
X19835357Y-14166071D01*
X19835357Y-14080357D01*
X19849643Y-14051786D01*
X19863928Y-14037500D01*
X19892500Y-14023214D01*
X19935357Y-14023214D01*
X19963928Y-14037500D01*
X19978214Y-14051786D01*
X19992500Y-14080357D01*
X19992500Y-14166071D01*
X19978214Y-14194643D01*
X19963928Y-14208929D01*
X19935357Y-14223214D01*
X19892500Y-14223214D01*
X20163928Y-14223214D02*
X20135357Y-14208929D01*
X20121071Y-14180357D01*
X20121071Y-13923214D01*
X20392500Y-14208929D02*
X20363929Y-14223214D01*
X20306786Y-14223214D01*
X20278214Y-14208929D01*
X20263929Y-14180357D01*
X20263929Y-14066071D01*
X20278214Y-14037500D01*
X20306786Y-14023214D01*
X20363929Y-14023214D01*
X20392500Y-14037500D01*
X20406786Y-14066071D01*
X20406786Y-14094643D01*
X20263929Y-14123214D01*
X20521071Y-14208929D02*
X20549643Y-14223214D01*
X20606786Y-14223214D01*
X20635357Y-14208929D01*
X20649643Y-14180357D01*
X20649643Y-14166071D01*
X20635357Y-14137500D01*
X20606786Y-14123214D01*
X20563929Y-14123214D01*
X20535357Y-14108929D01*
X20521071Y-14080357D01*
X20521071Y-14066071D01*
X20535357Y-14037500D01*
X20563929Y-14023214D01*
X20606786Y-14023214D01*
X20635357Y-14037500D01*
X20749643Y-14337500D02*
X20763929Y-14323214D01*
X20792500Y-14280357D01*
X20806786Y-14251786D01*
X20821071Y-14208929D01*
X20835357Y-14137500D01*
X20835357Y-14080357D01*
X20821071Y-14008929D01*
X20806786Y-13966071D01*
X20792500Y-13937500D01*
X20763929Y-13894643D01*
X20749643Y-13880357D01*
M02*
