M48
;DRILL file {KiCad 4.0.7+dfsg1-1~bpo8+1} date Thu Sep  6 01:00:09 2018
;FORMAT={-:-/ absolute / metric / decimal}
FMAT,2
METRIC,TZ
T1C0.400
T2C0.600
T3C0.800
T4C0.900
T5C1.000
T6C1.016
%
G90
G05
M71
T1
X185.42Y-58.242
X186.518Y-56.93
X188.025Y-54.688
X190.683Y-60.295
X191.96Y-79.883
X192.57Y-60.386
X193.815Y-87.338
X194.212Y-59.896
X197.498Y-88.316
X197.547Y-60.489
X198.072Y-63.518
X198.133Y-58.204
X203.276Y-94.209
X203.81Y-92.71
X209.093Y-57.671
X209.093Y-82.55
X213.068Y-96.723
X213.944Y-57.175
X217.678Y-82.398
X222.352Y-78.334
X222.948Y-84.252
X227.178Y-45.745
X230.264Y-100.914
X231.724Y-84.277
X232.397Y-100.914
X243.789Y-110.109
T2
X193.802Y-53.594
X195.072Y-54.864
X196.342Y-53.594
T3
X190.5Y-63.5
X190.5Y-66.04
X190.5Y-68.58
X190.5Y-71.12
X190.5Y-73.66
X190.5Y-76.2
X190.5Y-78.74
X190.5Y-81.28
X190.5Y-83.82
X190.5Y-86.36
X190.5Y-88.9
X190.5Y-91.44
X190.5Y-93.98
X190.5Y-96.52
X190.5Y-99.06
X205.74Y-63.5
X205.74Y-66.04
X205.74Y-68.58
X205.74Y-71.12
X205.74Y-73.66
X205.74Y-76.2
X205.74Y-78.74
X205.74Y-81.28
X205.74Y-83.82
X205.74Y-86.36
X205.74Y-88.9
X205.74Y-91.44
X205.74Y-93.98
X205.74Y-96.52
X205.74Y-99.06
T4
X219.71Y-54.61
X219.71Y-57.15
X227.33Y-54.61
X227.33Y-57.15
X236.22Y-54.61
X236.22Y-57.15
X243.84Y-54.61
X243.84Y-57.15
T5
X145.796Y-47.244
X145.796Y-49.784
X145.796Y-52.324
X145.796Y-72.136
X145.796Y-74.676
X145.796Y-77.216
X145.796Y-97.536
X145.796Y-100.076
X145.796Y-102.616
X147.066Y-61.976
X149.606Y-47.244
X149.606Y-49.784
X149.606Y-52.324
X149.606Y-61.976
X149.606Y-72.136
X149.606Y-74.676
X149.606Y-77.216
X149.606Y-97.536
X149.606Y-100.076
X149.606Y-102.616
X152.146Y-61.976
X153.416Y-47.244
X153.416Y-49.784
X153.416Y-52.324
X153.416Y-72.136
X153.416Y-74.676
X153.416Y-77.216
X153.416Y-97.536
X153.416Y-100.076
X153.416Y-102.616
X158.75Y-57.912
X161.29Y-57.912
X161.29Y-62.738
X161.417Y-92.514
X162.56Y-44.196
X162.814Y-39.878
X163.83Y-57.912
X163.83Y-62.738
X163.83Y-97.79
X163.83Y-101.6
X163.83Y-105.41
X163.957Y-92.514
X165.1Y-44.196
X165.1Y-68.014
X165.354Y-39.878
X166.37Y-57.912
X166.37Y-62.738
X166.37Y-97.79
X166.37Y-101.6
X166.37Y-105.41
X166.497Y-92.514
X167.64Y-44.196
X167.64Y-68.014
X167.894Y-39.878
X168.91Y-57.912
X168.91Y-62.738
X168.91Y-97.79
X168.91Y-101.6
X168.91Y-105.41
X169.037Y-92.514
X170.18Y-44.196
X170.18Y-68.014
X170.434Y-39.878
X171.45Y-57.912
X171.45Y-62.738
X171.45Y-97.79
X171.45Y-101.6
X171.45Y-105.41
X171.577Y-92.514
X172.72Y-44.196
X172.72Y-68.014
X173.99Y-57.912
X173.99Y-62.738
X174.117Y-92.514
X175.26Y-44.196
X175.26Y-68.014
X176.53Y-57.912
X176.53Y-62.738
X176.657Y-92.514
X178.816Y-40.996
X178.816Y-43.536
X179.07Y-57.912
X179.07Y-62.738
X181.61Y-57.912
X182.88Y-40.132
X182.88Y-44.196
X185.42Y-40.132
X185.42Y-44.196
X185.42Y-63.5
X185.42Y-66.04
X185.42Y-68.58
X185.42Y-71.12
X185.42Y-73.66
X185.42Y-76.2
X185.42Y-78.74
X185.42Y-81.28
X185.42Y-83.82
X185.42Y-86.36
X185.42Y-88.9
X185.42Y-91.44
X185.42Y-93.98
X185.42Y-96.52
X185.42Y-99.06
X186.69Y-48.26
X187.96Y-40.132
X187.96Y-44.196
X189.23Y-48.26
X190.5Y-40.132
X190.5Y-44.196
X191.77Y-48.26
X193.04Y-40.132
X193.04Y-44.196
X194.31Y-48.26
X195.58Y-40.132
X195.58Y-44.196
X196.85Y-48.26
X198.12Y-40.132
X198.12Y-44.196
X199.39Y-48.26
X199.39Y-105.41
X199.39Y-107.95
X199.978Y-55.372
X200.152Y-51.816
X200.66Y-40.132
X200.66Y-44.196
X201.93Y-48.26
X201.93Y-105.41
X201.93Y-107.95
X203.2Y-40.132
X203.2Y-44.196
X204.47Y-48.26
X204.47Y-105.41
X204.47Y-107.95
X205.74Y-40.132
X205.74Y-44.196
X207.01Y-48.26
X207.01Y-105.41
X207.01Y-107.95
X208.28Y-40.132
X208.28Y-44.196
X209.55Y-105.41
X209.55Y-107.95
X209.978Y-55.372
X210.152Y-51.816
X210.82Y-40.132
X210.82Y-44.196
X210.82Y-63.5
X210.82Y-66.04
X210.82Y-68.58
X210.82Y-71.12
X210.82Y-73.66
X210.82Y-76.2
X210.82Y-78.74
X210.82Y-81.28
X210.82Y-83.82
X210.82Y-86.36
X210.82Y-88.9
X210.82Y-91.44
X210.82Y-93.98
X210.82Y-96.52
X210.82Y-99.06
X212.09Y-105.41
X212.09Y-107.95
X214.63Y-105.41
X214.63Y-107.95
X214.922Y-40.983
X214.922Y-43.523
X215.392Y-48.26
X215.472Y-60.452
X215.9Y-63.5
X217.17Y-80.01
X217.17Y-105.41
X217.17Y-107.95
X218.44Y-63.5
X218.44Y-91.44
X218.44Y-93.98
X218.44Y-96.52
X218.44Y-99.06
X218.592Y-40.983
X218.592Y-43.523
X219.71Y-80.01
X219.71Y-105.41
X219.71Y-107.95
X220.5Y-83.75
X220.5Y-87.5
X220.98Y-63.5
X222.25Y-91.44
X222.25Y-93.98
X222.25Y-96.52
X222.25Y-99.06
X222.25Y-105.41
X222.25Y-107.95
X224.765Y-63.5
X224.79Y-105.41
X224.79Y-107.95
X225.392Y-48.26
X225.472Y-60.452
X226.06Y-80.01
X227.305Y-63.5
X227.33Y-105.41
X227.33Y-107.95
X228.6Y-80.01
X229.845Y-63.5
X229.87Y-105.41
X229.87Y-107.95
X231.22Y-48.26
X231.22Y-60.452
X232.41Y-105.41
X232.41Y-107.95
X233.68Y-63.5
X234.95Y-80.01
X234.95Y-105.41
X234.95Y-107.95
X236.22Y-63.5
X236.22Y-85.09
X237.49Y-80.01
X237.49Y-105.41
X237.49Y-107.95
X238.76Y-63.5
X238.76Y-85.09
X240.03Y-91.44
X240.03Y-93.98
X240.03Y-96.52
X240.03Y-99.06
X240.03Y-105.41
X240.03Y-107.95
X241.22Y-48.26
X241.22Y-60.452
X241.3Y-85.09
X242.57Y-63.5
X242.57Y-105.41
X242.57Y-107.95
X243.84Y-80.01
X243.84Y-85.09
X243.84Y-91.44
X243.84Y-93.98
X243.84Y-96.52
X243.84Y-99.06
X245.11Y-63.5
X245.11Y-105.41
X245.11Y-107.95
X246.38Y-80.01
X246.38Y-85.09
X247.65Y-63.5
X247.65Y-92.71
X247.65Y-95.25
X247.65Y-97.79
X247.65Y-105.41
X247.65Y-107.95
T6
X215.9Y-66.04
X215.9Y-73.66
X220.98Y-66.04
X220.98Y-73.66
X224.79Y-66.04
X224.79Y-73.66
X226.06Y-40.64
X226.06Y-43.18
X227.33Y-88.9
X227.33Y-91.44
X227.33Y-93.98
X227.33Y-96.52
X227.33Y-99.06
X227.33Y-101.6
X228.6Y-40.64
X228.6Y-43.18
X229.87Y-66.04
X229.87Y-73.66
X231.14Y-40.64
X231.14Y-43.18
X233.68Y-40.64
X233.68Y-43.18
X233.68Y-66.04
X233.68Y-73.66
X236.22Y-40.64
X236.22Y-43.18
X237.49Y-88.9
X237.49Y-91.44
X237.49Y-93.98
X237.49Y-96.52
X237.49Y-99.06
X237.49Y-101.6
X238.76Y-66.04
X238.76Y-73.66
X242.57Y-66.04
X242.57Y-73.66
X247.65Y-66.04
X247.65Y-73.66
T0
M30
