G04 #@! TF.FileFunction,Copper,L1,Top,Signal*
%FSLAX46Y46*%
G04 Gerber Fmt 4.6, Leading zero omitted, Abs format (unit mm)*
G04 Created by KiCad (PCBNEW 4.0.7+dfsg1-1~bpo8+1) date Thu Sep  6 01:00:45 2018*
%MOMM*%
%LPD*%
G01*
G04 APERTURE LIST*
%ADD10C,0.100000*%
%ADD11C,0.381000*%
%ADD12C,1.500000*%
%ADD13R,1.500000X1.500000*%
%ADD14R,1.524000X2.032000*%
%ADD15R,1.800000X1.800000*%
%ADD16C,1.800000*%
%ADD17R,1.700000X1.700000*%
%ADD18O,1.700000X1.700000*%
%ADD19R,1.500000X1.300000*%
%ADD20O,1.500000X1.500000*%
%ADD21C,1.727200*%
%ADD22C,1.574800*%
%ADD23R,0.800000X0.900000*%
%ADD24C,1.000000*%
%ADD25R,1.000000X1.000000*%
%ADD26R,1.727200X1.727200*%
%ADD27C,0.600000*%
%ADD28C,0.250000*%
G04 APERTURE END LIST*
D10*
D11*
X153543000Y-83139280D02*
X153543000Y-83538060D01*
X152841960Y-84338160D02*
X154142440Y-84338160D01*
X154043380Y-84640420D02*
X152841960Y-84640420D01*
X152742900Y-84940140D02*
X154043380Y-84940140D01*
X153543000Y-85338920D02*
X153543000Y-86639400D01*
X153642060Y-86840060D02*
X153842720Y-86840060D01*
X153842720Y-86840060D02*
X153842720Y-85239860D01*
X153243280Y-85338920D02*
X153243280Y-86840060D01*
X153243280Y-86840060D02*
X153743660Y-86840060D01*
X152742900Y-84038440D02*
X154244040Y-84038440D01*
X154244040Y-84038440D02*
X154244040Y-85239860D01*
X154244040Y-85239860D02*
X152742900Y-85239860D01*
X152742900Y-85239860D02*
X152742900Y-84038440D01*
X153858666Y-83339940D02*
G75*
G03X153858666Y-83339940I-315666J0D01*
G01*
X153543000Y-82539840D02*
X153443940Y-82539840D01*
X153443940Y-82539840D02*
X152841960Y-82638900D01*
X152841960Y-82638900D02*
X152344120Y-82839560D01*
X152344120Y-82839560D02*
X151843740Y-83238340D01*
X151843740Y-83238340D02*
X151343360Y-83840320D01*
X151343360Y-83840320D02*
X151142700Y-84239100D01*
X151142700Y-84239100D02*
X151043640Y-84739480D01*
X151043640Y-84739480D02*
X151043640Y-85338920D01*
X151043640Y-85338920D02*
X151241760Y-86139020D01*
X151241760Y-86139020D02*
X151843740Y-86840060D01*
X151843740Y-86840060D02*
X152344120Y-87238840D01*
X152344120Y-87238840D02*
X153042620Y-87538560D01*
X153042620Y-87538560D02*
X153842720Y-87538560D01*
X153842720Y-87538560D02*
X154442160Y-87340440D01*
X154442160Y-87340440D02*
X155044140Y-87038180D01*
X155044140Y-87038180D02*
X155541980Y-86540340D01*
X155541980Y-86540340D02*
X155943300Y-85839300D01*
X155943300Y-85839300D02*
X156042360Y-85239860D01*
X156042360Y-85239860D02*
X156042360Y-84640420D01*
X156042360Y-84640420D02*
X155844240Y-84038440D01*
X155844240Y-84038440D02*
X155541980Y-83538060D01*
X155541980Y-83538060D02*
X155044140Y-83040220D01*
X155044140Y-83040220D02*
X154543760Y-82737960D01*
X154543760Y-82737960D02*
X154142440Y-82638900D01*
X154142440Y-82638900D02*
X153543000Y-82539840D01*
X148856700Y-39230300D02*
X149529800Y-39230300D01*
X149529800Y-39230300D02*
X149567900Y-39319200D01*
X149567900Y-39319200D02*
X149682200Y-39814500D01*
X149682200Y-39814500D02*
X149923500Y-39941500D01*
X149923500Y-39941500D02*
X150329900Y-39700200D01*
X150329900Y-39700200D02*
X150456900Y-39674800D01*
X150456900Y-39674800D02*
X150863300Y-40093900D01*
X150863300Y-40093900D02*
X150837900Y-40246300D01*
X150837900Y-40246300D02*
X150558500Y-40614600D01*
X150558500Y-40614600D02*
X150609300Y-40830500D01*
X150609300Y-40830500D02*
X151041100Y-40944800D01*
X151041100Y-40944800D02*
X151079200Y-40957500D01*
X151079200Y-40957500D02*
X151155400Y-40970200D01*
X151155400Y-40970200D02*
X151180800Y-41046400D01*
X151180800Y-41046400D02*
X151180800Y-41503600D01*
X151180800Y-41503600D02*
X151142700Y-41668700D01*
X151142700Y-41668700D02*
X150622000Y-41770300D01*
X150622000Y-41770300D02*
X150558500Y-41910000D01*
X150558500Y-41910000D02*
X150825200Y-42316400D01*
X150825200Y-42316400D02*
X150863300Y-42481500D01*
X150863300Y-42481500D02*
X150482300Y-42849800D01*
X150482300Y-42849800D02*
X150342600Y-42875200D01*
X150342600Y-42875200D02*
X149885400Y-42595800D01*
X149885400Y-42595800D02*
X149720300Y-42672000D01*
X149720300Y-42672000D02*
X149618700Y-43167300D01*
X149618700Y-43167300D02*
X149580600Y-43205400D01*
X149580600Y-43205400D02*
X149009100Y-43218100D01*
X149009100Y-43218100D02*
X148818600Y-42697400D01*
X148818600Y-42697400D02*
X148577300Y-42595800D01*
X148577300Y-42595800D02*
X148056600Y-42760900D01*
X148056600Y-42760900D02*
X147751800Y-42456100D01*
X147751800Y-42456100D02*
X148005800Y-41998900D01*
X148005800Y-41998900D02*
X148577300Y-41567100D01*
X147650200Y-40728900D02*
X147777200Y-40500300D01*
X147777200Y-40500300D02*
X147459700Y-40005000D01*
X147459700Y-40005000D02*
X147942300Y-39547800D01*
X147942300Y-39547800D02*
X148475700Y-39890700D01*
X148475700Y-39890700D02*
X148805900Y-39789100D01*
X148805900Y-39789100D02*
X148894800Y-39306500D01*
X148577300Y-41567100D02*
X148793200Y-41706800D01*
X148793200Y-41706800D02*
X148971000Y-41783000D01*
X148971000Y-41783000D02*
X149263100Y-41783000D01*
X149263100Y-41783000D02*
X149504400Y-41643300D01*
X149504400Y-41643300D02*
X149644100Y-41427400D01*
X149644100Y-41427400D02*
X149694900Y-41160700D01*
X149694900Y-41160700D02*
X149567900Y-40894000D01*
X149567900Y-40894000D02*
X149377400Y-40754300D01*
X149377400Y-40754300D02*
X149123400Y-40652700D01*
X149123400Y-40652700D02*
X148856700Y-40728900D01*
X148856700Y-40728900D02*
X148678900Y-40843200D01*
X148678900Y-40843200D02*
X148539200Y-41046400D01*
X148539200Y-41046400D02*
X148399500Y-41059100D01*
X148399500Y-41059100D02*
X147739100Y-40741600D01*
X151599900Y-41122600D02*
X151599900Y-41300400D01*
X151599900Y-41300400D02*
X151625300Y-41579800D01*
X151625300Y-41579800D02*
X151663400Y-41783000D01*
X151663400Y-41783000D02*
X151765000Y-42062400D01*
X151765000Y-42062400D02*
X151917400Y-42252900D01*
X151917400Y-42252900D02*
X152107900Y-42405300D01*
X152107900Y-42405300D02*
X152349200Y-42519600D01*
X152349200Y-42519600D02*
X152577800Y-42545000D01*
X152577800Y-42545000D02*
X152679400Y-42545000D01*
X152679400Y-42545000D02*
X152958800Y-42519600D01*
X152958800Y-42519600D02*
X153200100Y-42405300D01*
X153200100Y-42405300D02*
X153428700Y-42265600D01*
X153428700Y-42265600D02*
X153606500Y-42075100D01*
X153606500Y-42075100D02*
X153746200Y-41795700D01*
X153746200Y-41795700D02*
X153822400Y-41516300D01*
X153822400Y-41516300D02*
X153835100Y-41224200D01*
X153835100Y-41224200D02*
X153835100Y-41084500D01*
X153835100Y-41084500D02*
X153784300Y-40779700D01*
X153784300Y-40779700D02*
X153682700Y-40513000D01*
X153682700Y-40513000D02*
X153504900Y-40259000D01*
X153504900Y-40259000D02*
X153301700Y-40106600D01*
X153301700Y-40106600D02*
X153098500Y-39966900D01*
X153098500Y-39966900D02*
X152857200Y-39903400D01*
X152857200Y-39903400D02*
X152488900Y-39903400D01*
X152488900Y-39903400D02*
X152057100Y-39954200D01*
X152057100Y-39954200D02*
X151777700Y-40068500D01*
X151777700Y-40068500D02*
X151841200Y-40424100D01*
X151841200Y-40424100D02*
X152158700Y-40309800D01*
X152158700Y-40309800D02*
X152476200Y-40271700D01*
X152476200Y-40271700D02*
X152895300Y-40284400D01*
X152895300Y-40284400D02*
X153149300Y-40424100D01*
X153149300Y-40424100D02*
X153314400Y-40601900D01*
X153314400Y-40601900D02*
X153454100Y-40894000D01*
X153454100Y-40894000D02*
X153517600Y-41211500D01*
X153517600Y-41211500D02*
X153492200Y-41541700D01*
X153492200Y-41541700D02*
X153377900Y-41846500D01*
X153377900Y-41846500D02*
X153212800Y-42062400D01*
X153212800Y-42062400D02*
X152933400Y-42240200D01*
X152933400Y-42240200D02*
X152679400Y-42291000D01*
X152679400Y-42291000D02*
X152374600Y-42227500D01*
X152374600Y-42227500D02*
X152196800Y-42100500D01*
X152196800Y-42100500D02*
X152044400Y-41935400D01*
X152044400Y-41935400D02*
X151942800Y-41694100D01*
X151942800Y-41694100D02*
X151942800Y-41503600D01*
X151942800Y-41503600D02*
X151917400Y-41135300D01*
X151917400Y-41135300D02*
X153327100Y-41135300D01*
X153327100Y-41135300D02*
X153784300Y-41224200D01*
X153784300Y-41224200D02*
X153377900Y-41287700D01*
X153377900Y-41287700D02*
X151599900Y-41287700D01*
X151599900Y-41287700D02*
X151599900Y-41122600D01*
X151599900Y-41122600D02*
X151917400Y-41135300D01*
X151599900Y-41122600D02*
X151917400Y-41135300D01*
X151599900Y-41287700D02*
X151599900Y-41122600D01*
X153377900Y-41287700D02*
X151599900Y-41287700D01*
X153784300Y-41224200D02*
X153377900Y-41287700D01*
X153327100Y-41135300D02*
X153784300Y-41224200D01*
X151917400Y-41135300D02*
X153327100Y-41135300D01*
X151942800Y-41503600D02*
X151917400Y-41135300D01*
X151942800Y-41694100D02*
X151942800Y-41503600D01*
X152044400Y-41935400D02*
X151942800Y-41694100D01*
X152196800Y-42100500D02*
X152044400Y-41935400D01*
X152374600Y-42227500D02*
X152196800Y-42100500D01*
X152679400Y-42291000D02*
X152374600Y-42227500D01*
X152933400Y-42240200D02*
X152679400Y-42291000D01*
X153212800Y-42062400D02*
X152933400Y-42240200D01*
X153377900Y-41846500D02*
X153212800Y-42062400D01*
X153492200Y-41541700D02*
X153377900Y-41846500D01*
X153517600Y-41211500D02*
X153492200Y-41541700D01*
X153454100Y-40894000D02*
X153517600Y-41211500D01*
X153314400Y-40601900D02*
X153454100Y-40894000D01*
X153149300Y-40424100D02*
X153314400Y-40601900D01*
X152895300Y-40284400D02*
X153149300Y-40424100D01*
X152476200Y-40271700D02*
X152895300Y-40284400D01*
X152158700Y-40309800D02*
X152476200Y-40271700D01*
X151841200Y-40424100D02*
X152158700Y-40309800D01*
X151777700Y-40068500D02*
X151841200Y-40424100D01*
X152057100Y-39954200D02*
X151777700Y-40068500D01*
X152488900Y-39903400D02*
X152057100Y-39954200D01*
X152857200Y-39903400D02*
X152488900Y-39903400D01*
X153098500Y-39966900D02*
X152857200Y-39903400D01*
X153301700Y-40106600D02*
X153098500Y-39966900D01*
X153504900Y-40259000D02*
X153301700Y-40106600D01*
X153682700Y-40513000D02*
X153504900Y-40259000D01*
X153784300Y-40779700D02*
X153682700Y-40513000D01*
X153835100Y-41084500D02*
X153784300Y-40779700D01*
X153835100Y-41224200D02*
X153835100Y-41084500D01*
X153822400Y-41516300D02*
X153835100Y-41224200D01*
X153746200Y-41795700D02*
X153822400Y-41516300D01*
X153606500Y-42075100D02*
X153746200Y-41795700D01*
X153428700Y-42265600D02*
X153606500Y-42075100D01*
X153200100Y-42405300D02*
X153428700Y-42265600D01*
X152958800Y-42519600D02*
X153200100Y-42405300D01*
X152679400Y-42545000D02*
X152958800Y-42519600D01*
X152577800Y-42545000D02*
X152679400Y-42545000D01*
X152349200Y-42519600D02*
X152577800Y-42545000D01*
X152107900Y-42405300D02*
X152349200Y-42519600D01*
X151917400Y-42252900D02*
X152107900Y-42405300D01*
X151765000Y-42062400D02*
X151917400Y-42252900D01*
X151663400Y-41783000D02*
X151765000Y-42062400D01*
X151625300Y-41579800D02*
X151663400Y-41783000D01*
X151599900Y-41300400D02*
X151625300Y-41579800D01*
X151599900Y-41122600D02*
X151599900Y-41300400D01*
X148399500Y-41059100D02*
X147739100Y-40741600D01*
X148539200Y-41046400D02*
X148399500Y-41059100D01*
X148678900Y-40843200D02*
X148539200Y-41046400D01*
X148856700Y-40728900D02*
X148678900Y-40843200D01*
X149123400Y-40652700D02*
X148856700Y-40728900D01*
X149377400Y-40754300D02*
X149123400Y-40652700D01*
X149567900Y-40894000D02*
X149377400Y-40754300D01*
X149694900Y-41160700D02*
X149567900Y-40894000D01*
X149644100Y-41427400D02*
X149694900Y-41160700D01*
X149504400Y-41643300D02*
X149644100Y-41427400D01*
X149263100Y-41783000D02*
X149504400Y-41643300D01*
X148971000Y-41783000D02*
X149263100Y-41783000D01*
X148793200Y-41706800D02*
X148971000Y-41783000D01*
X148577300Y-41567100D02*
X148793200Y-41706800D01*
X148805900Y-39789100D02*
X148894800Y-39306500D01*
X148475700Y-39890700D02*
X148805900Y-39789100D01*
X147942300Y-39547800D02*
X148475700Y-39890700D01*
X147459700Y-40005000D02*
X147942300Y-39547800D01*
X147777200Y-40500300D02*
X147459700Y-40005000D01*
X147650200Y-40728900D02*
X147777200Y-40500300D01*
X148005800Y-41998900D02*
X148577300Y-41567100D01*
X147751800Y-42456100D02*
X148005800Y-41998900D01*
X148056600Y-42760900D02*
X147751800Y-42456100D01*
X148577300Y-42595800D02*
X148056600Y-42760900D01*
X148818600Y-42697400D02*
X148577300Y-42595800D01*
X149009100Y-43218100D02*
X148818600Y-42697400D01*
X149580600Y-43205400D02*
X149009100Y-43218100D01*
X149618700Y-43167300D02*
X149580600Y-43205400D01*
X149720300Y-42672000D02*
X149618700Y-43167300D01*
X149885400Y-42595800D02*
X149720300Y-42672000D01*
X150342600Y-42875200D02*
X149885400Y-42595800D01*
X150482300Y-42849800D02*
X150342600Y-42875200D01*
X150863300Y-42481500D02*
X150482300Y-42849800D01*
X150825200Y-42316400D02*
X150863300Y-42481500D01*
X150558500Y-41910000D02*
X150825200Y-42316400D01*
X150622000Y-41770300D02*
X150558500Y-41910000D01*
X151142700Y-41668700D02*
X150622000Y-41770300D01*
X151180800Y-41503600D02*
X151142700Y-41668700D01*
X151180800Y-41046400D02*
X151180800Y-41503600D01*
X151155400Y-40970200D02*
X151180800Y-41046400D01*
X151079200Y-40957500D02*
X151155400Y-40970200D01*
X151041100Y-40944800D02*
X151079200Y-40957500D01*
X150609300Y-40830500D02*
X151041100Y-40944800D01*
X150558500Y-40614600D02*
X150609300Y-40830500D01*
X150837900Y-40246300D02*
X150558500Y-40614600D01*
X150863300Y-40093900D02*
X150837900Y-40246300D01*
X150456900Y-39674800D02*
X150863300Y-40093900D01*
X150329900Y-39700200D02*
X150456900Y-39674800D01*
X149923500Y-39941500D02*
X150329900Y-39700200D01*
X149682200Y-39814500D02*
X149923500Y-39941500D01*
X149567900Y-39319200D02*
X149682200Y-39814500D01*
X149529800Y-39230300D02*
X149567900Y-39319200D01*
X148856700Y-39230300D02*
X149529800Y-39230300D01*
D12*
X185420000Y-99060000D03*
D13*
X210820000Y-99060000D03*
D12*
X185420000Y-96520000D03*
X210820000Y-96520000D03*
X185420000Y-93980000D03*
X210820000Y-93980000D03*
X185420000Y-91440000D03*
X210820000Y-91440000D03*
X185420000Y-88900000D03*
X210820000Y-88900000D03*
X185420000Y-86360000D03*
X210820000Y-86360000D03*
X185420000Y-83820000D03*
X210820000Y-83820000D03*
X185420000Y-81280000D03*
X210820000Y-81280000D03*
X185420000Y-78740000D03*
X210820000Y-78740000D03*
X185420000Y-76200000D03*
X210820000Y-76200000D03*
X185420000Y-73660000D03*
X210820000Y-73660000D03*
X185420000Y-71120000D03*
X210820000Y-71120000D03*
X185420000Y-68580000D03*
X210820000Y-68580000D03*
X185420000Y-66040000D03*
X210820000Y-66040000D03*
X185420000Y-63500000D03*
X210820000Y-63500000D03*
D14*
X244983000Y-51308000D03*
X241681000Y-51308000D03*
D15*
X243840000Y-54610000D03*
D16*
X243840000Y-57150000D03*
D14*
X237490000Y-51308000D03*
X234188000Y-51308000D03*
D15*
X236220000Y-54610000D03*
D16*
X236220000Y-57150000D03*
D14*
X228727000Y-51308000D03*
X225425000Y-51308000D03*
D15*
X227330000Y-54610000D03*
D16*
X227330000Y-57150000D03*
D14*
X220980000Y-51308000D03*
X217678000Y-51308000D03*
D15*
X219710000Y-54610000D03*
D16*
X219710000Y-57150000D03*
D17*
X145796000Y-47244000D03*
D18*
X145796000Y-49784000D03*
X145796000Y-52324000D03*
D17*
X145796000Y-72136000D03*
D18*
X145796000Y-74676000D03*
X145796000Y-77216000D03*
D17*
X145796000Y-97536000D03*
D18*
X145796000Y-100076000D03*
X145796000Y-102616000D03*
D17*
X153416000Y-47244000D03*
D18*
X153416000Y-49784000D03*
X153416000Y-52324000D03*
D17*
X153416000Y-72136000D03*
D18*
X153416000Y-74676000D03*
X153416000Y-77216000D03*
D17*
X153416000Y-97536000D03*
D18*
X153416000Y-100076000D03*
X153416000Y-102616000D03*
D17*
X149606000Y-47244000D03*
D18*
X149606000Y-49784000D03*
X149606000Y-52324000D03*
D17*
X149606000Y-72136000D03*
D18*
X149606000Y-74676000D03*
X149606000Y-77216000D03*
D17*
X149606000Y-97536000D03*
D18*
X149606000Y-100076000D03*
X149606000Y-102616000D03*
D17*
X243840000Y-99060000D03*
D18*
X243840000Y-96520000D03*
X243840000Y-93980000D03*
X243840000Y-91440000D03*
D17*
X240030000Y-99060000D03*
D18*
X240030000Y-96520000D03*
X240030000Y-93980000D03*
X240030000Y-91440000D03*
D17*
X247650000Y-92710000D03*
D18*
X247650000Y-95250000D03*
X247650000Y-97790000D03*
D17*
X222250000Y-99060000D03*
D18*
X222250000Y-96520000D03*
X222250000Y-93980000D03*
X222250000Y-91440000D03*
D17*
X218440000Y-99060000D03*
D18*
X218440000Y-96520000D03*
X218440000Y-93980000D03*
X218440000Y-91440000D03*
D17*
X163830000Y-101600000D03*
D18*
X166370000Y-101600000D03*
X168910000Y-101600000D03*
X171450000Y-101600000D03*
D17*
X163830000Y-97790000D03*
D18*
X166370000Y-97790000D03*
X168910000Y-97790000D03*
X171450000Y-97790000D03*
D19*
X236554000Y-60452000D03*
X233854000Y-60452000D03*
D20*
X231220000Y-60452000D03*
X241220000Y-60452000D03*
D19*
X234028000Y-48260000D03*
X236728000Y-48260000D03*
D20*
X241220000Y-48260000D03*
X231220000Y-48260000D03*
D19*
X220472000Y-60452000D03*
X217772000Y-60452000D03*
D20*
X215472000Y-60452000D03*
X225472000Y-60452000D03*
D19*
X217772000Y-48260000D03*
X220472000Y-48260000D03*
D20*
X225392000Y-48260000D03*
X215392000Y-48260000D03*
D17*
X170434000Y-39878000D03*
D18*
X167894000Y-39878000D03*
X165354000Y-39878000D03*
X162814000Y-39878000D03*
D13*
X175260000Y-44196000D03*
D20*
X172720000Y-44196000D03*
X170180000Y-44196000D03*
X167640000Y-44196000D03*
X165100000Y-44196000D03*
X162560000Y-44196000D03*
D17*
X181610000Y-57912000D03*
D18*
X179070000Y-57912000D03*
X176530000Y-57912000D03*
X173990000Y-57912000D03*
X171450000Y-57912000D03*
X168910000Y-57912000D03*
X166370000Y-57912000D03*
X163830000Y-57912000D03*
X161290000Y-57912000D03*
X158750000Y-57912000D03*
D17*
X179070000Y-62738000D03*
D18*
X176530000Y-62738000D03*
X173990000Y-62738000D03*
X171450000Y-62738000D03*
X168910000Y-62738000D03*
X166370000Y-62738000D03*
X163830000Y-62738000D03*
X161290000Y-62738000D03*
D13*
X176657000Y-92514000D03*
X175260000Y-68014000D03*
D12*
X174117000Y-92514000D03*
X172720000Y-68014000D03*
X171577000Y-92514000D03*
X170180000Y-68014000D03*
X169037000Y-92514000D03*
X167640000Y-68014000D03*
X166497000Y-92514000D03*
X165100000Y-68014000D03*
X163957000Y-92514000D03*
X161417000Y-92514000D03*
D21*
X237490000Y-101600000D03*
X237490000Y-99060000D03*
X237490000Y-96520000D03*
X237490000Y-93980000D03*
X237490000Y-91440000D03*
X237490000Y-88900000D03*
X227330000Y-88900000D03*
X227330000Y-91440000D03*
X227330000Y-93980000D03*
X227330000Y-96520000D03*
X227330000Y-99060000D03*
X227330000Y-101600000D03*
D22*
X205740000Y-63500000D03*
X190500000Y-63500000D03*
X205740000Y-66040000D03*
X190500000Y-66040000D03*
X205740000Y-68580000D03*
X190500000Y-68580000D03*
X205740000Y-71120000D03*
X190500000Y-71120000D03*
X205740000Y-73660000D03*
X190500000Y-73660000D03*
X205740000Y-76200000D03*
X190500000Y-76200000D03*
X205740000Y-78740000D03*
X190500000Y-78740000D03*
X205740000Y-81280000D03*
X190500000Y-81280000D03*
X205740000Y-83820000D03*
X190500000Y-83820000D03*
X205740000Y-86360000D03*
X190500000Y-86360000D03*
X205740000Y-88900000D03*
X190500000Y-88900000D03*
X205740000Y-91440000D03*
X190500000Y-91440000D03*
X205740000Y-93980000D03*
X190500000Y-93980000D03*
X205740000Y-96520000D03*
X190500000Y-96520000D03*
X205740000Y-99060000D03*
X190500000Y-99060000D03*
D17*
X246380000Y-85090000D03*
D18*
X243840000Y-85090000D03*
X241300000Y-85090000D03*
X238760000Y-85090000D03*
X236220000Y-85090000D03*
D17*
X243840000Y-80010000D03*
D18*
X246380000Y-80010000D03*
D17*
X234950000Y-80010000D03*
D18*
X237490000Y-80010000D03*
D17*
X226060000Y-80010000D03*
D18*
X228600000Y-80010000D03*
D17*
X217170000Y-80010000D03*
D18*
X219710000Y-80010000D03*
D17*
X147066000Y-61976000D03*
D18*
X149606000Y-61976000D03*
X152146000Y-61976000D03*
D17*
X220500000Y-83750000D03*
X220500000Y-87500000D03*
X182880000Y-40132000D03*
D18*
X185420000Y-40132000D03*
X187960000Y-40132000D03*
X190500000Y-40132000D03*
X193040000Y-40132000D03*
X195580000Y-40132000D03*
X198120000Y-40132000D03*
X200660000Y-40132000D03*
X203200000Y-40132000D03*
X205740000Y-40132000D03*
X208280000Y-40132000D03*
X210820000Y-40132000D03*
D17*
X186690000Y-48260000D03*
D18*
X189230000Y-48260000D03*
X191770000Y-48260000D03*
X194310000Y-48260000D03*
X196850000Y-48260000D03*
X199390000Y-48260000D03*
X201930000Y-48260000D03*
X204470000Y-48260000D03*
X207010000Y-48260000D03*
D17*
X247650000Y-63500000D03*
D18*
X245110000Y-63500000D03*
X242570000Y-63500000D03*
D17*
X238760000Y-63500000D03*
D18*
X236220000Y-63500000D03*
X233680000Y-63500000D03*
D17*
X229844600Y-63500000D03*
D18*
X227304600Y-63500000D03*
X224764600Y-63500000D03*
D17*
X220980000Y-63500000D03*
D18*
X218440000Y-63500000D03*
X215900000Y-63500000D03*
D23*
X189926000Y-52848000D03*
X188026000Y-52848000D03*
X188976000Y-54848000D03*
D24*
X195072000Y-54864000D03*
X193802000Y-53594000D03*
D25*
X196342000Y-53594000D03*
D19*
X246540000Y-76200000D03*
X243840000Y-76200000D03*
X234790000Y-76200000D03*
X237490000Y-76200000D03*
X228760000Y-76200000D03*
X226060000Y-76200000D03*
X219870000Y-76200000D03*
X217170000Y-76200000D03*
X205058000Y-55372000D03*
X202358000Y-55372000D03*
D20*
X199978000Y-55372000D03*
X209978000Y-55372000D03*
D19*
X202358000Y-51816000D03*
X205058000Y-51816000D03*
D20*
X210152000Y-51816000D03*
X200152000Y-51816000D03*
D21*
X247650000Y-66040000D03*
X247650000Y-73660000D03*
X242570000Y-73660000D03*
X242570000Y-66040000D03*
X238760000Y-66040000D03*
X238760000Y-73660000D03*
X233680000Y-73660000D03*
X233680000Y-66040000D03*
X229870000Y-66040000D03*
X229870000Y-73660000D03*
X224790000Y-73660000D03*
X224790000Y-66040000D03*
X220980000Y-66040000D03*
X220980000Y-73660000D03*
X215900000Y-73660000D03*
X215900000Y-66040000D03*
D17*
X199390000Y-107950000D03*
D18*
X199390000Y-105410000D03*
X201930000Y-107950000D03*
X201930000Y-105410000D03*
X204470000Y-107950000D03*
X204470000Y-105410000D03*
X207010000Y-107950000D03*
X207010000Y-105410000D03*
X209550000Y-107950000D03*
X209550000Y-105410000D03*
X212090000Y-107950000D03*
X212090000Y-105410000D03*
X214630000Y-107950000D03*
X214630000Y-105410000D03*
X217170000Y-107950000D03*
X217170000Y-105410000D03*
X219710000Y-107950000D03*
X219710000Y-105410000D03*
X222250000Y-107950000D03*
X222250000Y-105410000D03*
X224790000Y-107950000D03*
X224790000Y-105410000D03*
X227330000Y-107950000D03*
X227330000Y-105410000D03*
X229870000Y-107950000D03*
X229870000Y-105410000D03*
X232410000Y-107950000D03*
X232410000Y-105410000D03*
X234950000Y-107950000D03*
X234950000Y-105410000D03*
X237490000Y-107950000D03*
X237490000Y-105410000D03*
X240030000Y-107950000D03*
X240030000Y-105410000D03*
X242570000Y-107950000D03*
X242570000Y-105410000D03*
X245110000Y-107950000D03*
X245110000Y-105410000D03*
X247650000Y-107950000D03*
X247650000Y-105410000D03*
D17*
X182880000Y-44196000D03*
D18*
X185420000Y-44196000D03*
X187960000Y-44196000D03*
X190500000Y-44196000D03*
X193040000Y-44196000D03*
X195580000Y-44196000D03*
X198120000Y-44196000D03*
X200660000Y-44196000D03*
X203200000Y-44196000D03*
X205740000Y-44196000D03*
X208280000Y-44196000D03*
X210820000Y-44196000D03*
D17*
X163830000Y-105410000D03*
D18*
X166370000Y-105410000D03*
X168910000Y-105410000D03*
X171450000Y-105410000D03*
D17*
X178816000Y-40995600D03*
D18*
X178816000Y-43535600D03*
D17*
X214922100Y-40982900D03*
D18*
X214922100Y-43522900D03*
D17*
X218592400Y-43522900D03*
D18*
X218592400Y-40982900D03*
D26*
X236220000Y-40640000D03*
D21*
X236220000Y-43180000D03*
X233680000Y-40640000D03*
X233680000Y-43180000D03*
X231140000Y-40640000D03*
X231140000Y-43180000D03*
X228600000Y-40640000D03*
X228600000Y-43180000D03*
X226060000Y-40640000D03*
X226060000Y-43180000D03*
D27*
X227177600Y-45745400D03*
X203809600Y-92710000D03*
X243789200Y-110109000D03*
X190683300Y-60295200D03*
X192570100Y-60385800D03*
X203276200Y-94208600D03*
X194212500Y-59895800D03*
X197547500Y-60489500D03*
X209092800Y-57670700D03*
X213944200Y-57175400D03*
X186518400Y-56930400D03*
X188024800Y-54688300D03*
X217678000Y-82397600D03*
X191960500Y-79883000D03*
X209092800Y-82550000D03*
X193814700Y-87337900D03*
X185420000Y-58242200D03*
X198132700Y-58204100D03*
X198072300Y-63517900D03*
X213067900Y-96723200D03*
X197497700Y-88315800D03*
X231724200Y-84277200D03*
X222948500Y-84251800D03*
X232397300Y-100914200D03*
X230263700Y-100914200D03*
X222351600Y-78333600D03*
D28*
X234950000Y-80010000D02*
X234950000Y-78700000D01*
X234950000Y-78700000D02*
X234500000Y-78250000D01*
X234500000Y-78250000D02*
X226500000Y-78250000D01*
X226500000Y-78250000D02*
X226060000Y-78690000D01*
X226060000Y-78690000D02*
X226060000Y-79150000D01*
X226060000Y-79150000D02*
X226060000Y-80010000D01*
X248500000Y-75600000D02*
X248500000Y-77700000D01*
X248500000Y-77700000D02*
X248050000Y-78150000D01*
X248050000Y-78150000D02*
X244600000Y-78150000D01*
X244600000Y-78150000D02*
X243840000Y-78910000D01*
X243840000Y-78910000D02*
X243840000Y-80010000D01*
X248500000Y-75600000D02*
X248500000Y-75250000D01*
X247710000Y-73660000D02*
X248500000Y-74450000D01*
X248500000Y-74450000D02*
X248500000Y-75600000D01*
X247650000Y-73660000D02*
X247710000Y-73660000D01*
X227330000Y-93980000D02*
X228551314Y-93980000D01*
X228551314Y-93980000D02*
X237490000Y-93980000D01*
X215607900Y-95859600D02*
X216236000Y-95231500D01*
X215607900Y-97116900D02*
X215607900Y-95859600D01*
X214896700Y-97828100D02*
X215607900Y-97116900D01*
X212902800Y-97828100D02*
X214896700Y-97828100D01*
X212344699Y-97269999D02*
X212902800Y-97828100D01*
X210820000Y-96520000D02*
X211569999Y-97269999D01*
X211569999Y-97269999D02*
X212344699Y-97269999D01*
X216236000Y-95231500D02*
X216236000Y-92468700D01*
X216236000Y-92468700D02*
X217264700Y-91440000D01*
X217264700Y-91440000D02*
X218440000Y-91440000D01*
X243382800Y-47294800D02*
X243382800Y-48920400D01*
X244547200Y-49606200D02*
X243611400Y-49606200D01*
X243611400Y-49606200D02*
X243382800Y-49606200D01*
X243382800Y-48920400D02*
X243382800Y-49377600D01*
X243382800Y-49377600D02*
X243611400Y-49606200D01*
X242925600Y-49606200D02*
X240279100Y-49606200D01*
X243382800Y-49606200D02*
X242925600Y-49606200D01*
X242925600Y-49606200D02*
X243154200Y-49606200D01*
X243382800Y-49377600D02*
X243382800Y-49606200D01*
X243154200Y-49606200D02*
X243382800Y-49377600D01*
X242570000Y-46482000D02*
X243382800Y-47294800D01*
X239217200Y-46482000D02*
X242570000Y-46482000D01*
X238607600Y-45872400D02*
X239217200Y-46482000D01*
X238607600Y-41806286D02*
X238607600Y-45872400D01*
X236220000Y-40640000D02*
X237441314Y-40640000D01*
X237441314Y-40640000D02*
X238607600Y-41806286D01*
X244983000Y-51308000D02*
X244983000Y-50042000D01*
X238577300Y-51308000D02*
X237490000Y-51308000D01*
X244983000Y-50042000D02*
X244547200Y-49606200D01*
X240279100Y-49606200D02*
X238577300Y-51308000D01*
X237134400Y-53086000D02*
X237490000Y-52730400D01*
X237490000Y-52730400D02*
X237490000Y-51308000D01*
X236594000Y-53086000D02*
X237134400Y-53086000D01*
X236220000Y-54610000D02*
X236220000Y-53460000D01*
X236220000Y-53460000D02*
X236594000Y-53086000D01*
X237490000Y-51308000D02*
X237490000Y-51562000D01*
X237490000Y-51562000D02*
X237372500Y-51679500D01*
X228727000Y-54381400D02*
X228498400Y-54610000D01*
X228498400Y-54610000D02*
X227330000Y-54610000D01*
X228727000Y-51308000D02*
X228727000Y-54381400D01*
X228346000Y-49580800D02*
X228727000Y-49961800D01*
X228727000Y-49961800D02*
X228727000Y-51308000D01*
X222986600Y-49580800D02*
X228346000Y-49580800D01*
X222663500Y-49903900D02*
X222986600Y-49580800D01*
X222663100Y-49903900D02*
X222663500Y-49903900D01*
X219710000Y-54610000D02*
X219710000Y-53384700D01*
X219710000Y-53384700D02*
X220980000Y-52114700D01*
X220980000Y-52114700D02*
X220980000Y-51587000D01*
X213156800Y-50342800D02*
X213156800Y-51460400D01*
X214172800Y-54635400D02*
X213156800Y-53619400D01*
X213156800Y-51460400D02*
X213156800Y-51708300D01*
X213156800Y-53619400D02*
X213156800Y-51460400D01*
X218534600Y-54635400D02*
X214172800Y-54635400D01*
X219710000Y-54610000D02*
X218560000Y-54610000D01*
X218560000Y-54610000D02*
X218534600Y-54635400D01*
X207010000Y-48260000D02*
X211074000Y-48260000D01*
X211074000Y-48260000D02*
X213156800Y-50342800D01*
X221894400Y-103809800D02*
X222250000Y-104165400D01*
X222250000Y-104165400D02*
X222250000Y-105410000D01*
X215028119Y-103809800D02*
X221894400Y-103809800D01*
X214630000Y-105410000D02*
X214630000Y-104207919D01*
X214630000Y-104207919D02*
X215028119Y-103809800D01*
X222250000Y-91440000D02*
X224790000Y-91440000D01*
X224790000Y-91440000D02*
X227330000Y-93980000D01*
X234950000Y-105410000D02*
X236220000Y-106680000D01*
X236220000Y-106680000D02*
X238760000Y-106680000D01*
X238760000Y-106680000D02*
X240030000Y-105410000D01*
X187300700Y-52848000D02*
X184332200Y-55816500D01*
X179387500Y-55816500D02*
X184332200Y-55816500D01*
X179070000Y-56134000D02*
X179387500Y-55816500D01*
X178752500Y-55816500D02*
X179070000Y-56134000D01*
X179070000Y-56134000D02*
X179070000Y-57912000D01*
X172343419Y-55816500D02*
X178752500Y-55816500D01*
X171450000Y-56709919D02*
X172343419Y-55816500D01*
X171450000Y-57912000D02*
X171450000Y-56709919D01*
X171450000Y-56709919D02*
X171513500Y-56646419D01*
X168322081Y-107200000D02*
X152000000Y-107200000D01*
X168910000Y-106612081D02*
X168322081Y-107200000D01*
X168910000Y-105410000D02*
X168910000Y-106612081D01*
X152000000Y-107200000D02*
X149606000Y-104806000D01*
X149606000Y-104806000D02*
X149606000Y-102616000D01*
X153416000Y-72136000D02*
X153416000Y-70616000D01*
X146832000Y-70000000D02*
X145796000Y-71036000D01*
X153416000Y-70616000D02*
X152800000Y-70000000D01*
X152800000Y-70000000D02*
X146832000Y-70000000D01*
X145796000Y-71036000D02*
X145796000Y-72136000D01*
X245400000Y-106680000D02*
X241300000Y-106680000D01*
X245572100Y-106680000D02*
X245400000Y-106680000D01*
X245400000Y-106680000D02*
X246380000Y-106680000D01*
X246380000Y-106680000D02*
X246400000Y-106700000D01*
X247650000Y-107950000D02*
X246400000Y-106700000D01*
X246400000Y-106700000D02*
X246400000Y-100215300D01*
X246400000Y-100215300D02*
X247650000Y-98965300D01*
X247650000Y-98965300D02*
X247650000Y-97790000D01*
X206500000Y-50200000D02*
X207010000Y-49690000D01*
X207010000Y-49690000D02*
X207010000Y-48260000D01*
X189974000Y-50200000D02*
X206500000Y-50200000D01*
X188026000Y-52848000D02*
X188026000Y-52148000D01*
X188026000Y-52148000D02*
X189974000Y-50200000D01*
X172720000Y-44196000D02*
X172720000Y-45256660D01*
X172720000Y-45256660D02*
X170732660Y-47244000D01*
X170732660Y-47244000D02*
X168731100Y-47244000D01*
X241300000Y-106680000D02*
X240030000Y-105410000D01*
X240220000Y-72200000D02*
X246190000Y-72200000D01*
X246190000Y-72200000D02*
X247650000Y-73660000D01*
X238760000Y-73660000D02*
X240220000Y-72200000D01*
X238760000Y-73660000D02*
X237900000Y-72800000D01*
X231500000Y-72030000D02*
X237130000Y-72030000D01*
X237130000Y-72030000D02*
X237900000Y-72800000D01*
X229870000Y-73660000D02*
X231500000Y-72030000D01*
X229200000Y-72990000D02*
X229870000Y-73660000D01*
X221418686Y-72000000D02*
X228210000Y-72000000D01*
X228210000Y-72000000D02*
X229200000Y-72990000D01*
X220980000Y-73660000D02*
X220980000Y-72438686D01*
X220980000Y-72438686D02*
X221418686Y-72000000D01*
X230457700Y-107950000D02*
X231707700Y-106700000D01*
X231707700Y-106700000D02*
X233660000Y-106700000D01*
X233660000Y-106700000D02*
X234950000Y-105410000D01*
X209550000Y-107950000D02*
X208300000Y-106700000D01*
X208300000Y-106700000D02*
X205760000Y-106700000D01*
X205760000Y-106700000D02*
X204470000Y-105410000D01*
X151980000Y-95000000D02*
X150206000Y-95000000D01*
X150206000Y-95000000D02*
X149606000Y-94400000D01*
X153416000Y-97536000D02*
X153416000Y-96436000D01*
X153416000Y-96436000D02*
X151980000Y-95000000D01*
X149606000Y-94400000D02*
X149606000Y-77216000D01*
X147232000Y-95000000D02*
X149006000Y-95000000D01*
X149006000Y-95000000D02*
X149606000Y-94400000D01*
X145796000Y-97536000D02*
X145796000Y-96436000D01*
X145796000Y-96436000D02*
X147232000Y-95000000D01*
X171450000Y-97790000D02*
X172625300Y-97790000D01*
X174117000Y-92514000D02*
X174117000Y-96520000D01*
X173895300Y-96520000D02*
X172625300Y-97790000D01*
X174117000Y-96520000D02*
X173895300Y-96520000D01*
X174117000Y-96520000D02*
X185420000Y-96520000D01*
X153416000Y-47244000D02*
X168731100Y-47244000D01*
X220980000Y-51308000D02*
X220980000Y-51587000D01*
X218440000Y-91440000D02*
X219615300Y-91440000D01*
X222250000Y-91440000D02*
X219615300Y-91440000D01*
X188251000Y-52848000D02*
X188501200Y-52848000D01*
X220980000Y-51587000D02*
X222663100Y-49903900D01*
X236220000Y-54610000D02*
X236220000Y-53997300D01*
X228727000Y-51308000D02*
X229814300Y-51308000D01*
X229870000Y-107950000D02*
X230457700Y-107950000D01*
X232503600Y-53997300D02*
X236220000Y-53997300D01*
X229814300Y-51308000D02*
X232503600Y-53997300D01*
X244575400Y-52649300D02*
X244983000Y-52649300D01*
X243840000Y-53384700D02*
X244575400Y-52649300D01*
X243840000Y-54610000D02*
X243840000Y-53384700D01*
X244983000Y-51308000D02*
X244983000Y-52649300D01*
X206459100Y-48260000D02*
X207010000Y-48260000D01*
X238854700Y-92615300D02*
X237490000Y-93980000D01*
X238854700Y-91440000D02*
X238854700Y-92615300D01*
X240030000Y-91440000D02*
X238854700Y-91440000D01*
X179070000Y-57912000D02*
X179070000Y-56736700D01*
X188251000Y-52848000D02*
X188026000Y-52848000D01*
X188026000Y-52848000D02*
X187300700Y-52848000D01*
X188572400Y-52848000D02*
X188587500Y-52863100D01*
X188501200Y-52848000D02*
X188572400Y-52848000D01*
X193772600Y-53623400D02*
X193802000Y-53594000D01*
X189347800Y-53623400D02*
X193772600Y-53623400D01*
X188587500Y-52863100D02*
X189347800Y-53623400D01*
X241681000Y-56325000D02*
X241681000Y-51308000D01*
X236554000Y-60452000D02*
X237554000Y-60452000D01*
X237554000Y-60452000D02*
X241681000Y-56325000D01*
X234028000Y-49806700D02*
X234188000Y-49966700D01*
X234028000Y-48260000D02*
X234028000Y-49806700D01*
X234188000Y-51308000D02*
X234188000Y-49966700D01*
X225425000Y-54523700D02*
X225425000Y-51308000D01*
X220472000Y-59476700D02*
X225425000Y-54523700D01*
X220472000Y-60452000D02*
X220472000Y-59476700D01*
X217772000Y-49872700D02*
X217678000Y-49966700D01*
X217772000Y-48260000D02*
X217772000Y-49872700D01*
X217678000Y-51308000D02*
X217678000Y-49966700D01*
X216877900Y-93357700D02*
X217551000Y-92684600D01*
X216154000Y-96405700D02*
X216877900Y-95681800D01*
X216877900Y-95681800D02*
X216877900Y-93357700D01*
X216154000Y-98622690D02*
X216154000Y-96405700D01*
X215716690Y-99060000D02*
X216154000Y-98622690D01*
X210820000Y-99060000D02*
X215716690Y-99060000D01*
X229600000Y-95329400D02*
X230308000Y-96037400D01*
X230911400Y-99009200D02*
X230308000Y-98405800D01*
X230308000Y-98405800D02*
X230308000Y-96037400D01*
X233779486Y-99009200D02*
X230911400Y-99009200D01*
X236268686Y-96520000D02*
X233779486Y-99009200D01*
X224586800Y-92684600D02*
X225806000Y-93903800D01*
X225806000Y-93903800D02*
X225806000Y-94716600D01*
X217551000Y-92684600D02*
X224586800Y-92684600D01*
X226339400Y-95250000D02*
X229514400Y-95250000D01*
X225806000Y-94716600D02*
X226339400Y-95250000D01*
X229514400Y-95250000D02*
X229593800Y-95329400D01*
X229593800Y-95329400D02*
X229600000Y-95329400D01*
X236268686Y-96520000D02*
X237490000Y-96520000D01*
X208280000Y-45339000D02*
X208280000Y-44196000D01*
X207873600Y-45745400D02*
X208280000Y-45339000D01*
X175809400Y-45745400D02*
X207873600Y-45745400D01*
X175260000Y-44196000D02*
X175260000Y-45196000D01*
X175260000Y-45196000D02*
X175809400Y-45745400D01*
X148400000Y-51100000D02*
X150897919Y-51100000D01*
X148200000Y-101300000D02*
X152192000Y-101300000D01*
X152192000Y-101300000D02*
X153416000Y-100076000D01*
X147825999Y-100925999D02*
X148200000Y-101300000D01*
X145796000Y-100076000D02*
X146645999Y-100925999D01*
X146645999Y-100925999D02*
X147825999Y-100925999D01*
X147066000Y-61976000D02*
X147066000Y-60876000D01*
X147066000Y-60876000D02*
X147842000Y-60100000D01*
X157476700Y-60100000D02*
X160114700Y-62738000D01*
X147842000Y-60100000D02*
X157476700Y-60100000D01*
X160114700Y-62738000D02*
X161290000Y-62738000D01*
X153416000Y-49784000D02*
X152213919Y-49784000D01*
X152213919Y-49784000D02*
X150897919Y-51100000D01*
X148400000Y-51100000D02*
X147084000Y-49784000D01*
X147084000Y-49784000D02*
X145796000Y-49784000D01*
X167894000Y-39878000D02*
X167894000Y-41080081D01*
X167894000Y-41080081D02*
X169113919Y-42300000D01*
X169113919Y-42300000D02*
X174364000Y-42300000D01*
X174364000Y-42300000D02*
X175260000Y-43196000D01*
X175260000Y-43196000D02*
X175260000Y-44196000D01*
X163830000Y-101600000D02*
X163830000Y-100500000D01*
X163830000Y-100500000D02*
X164930000Y-99400000D01*
X177103400Y-99400000D02*
X178824800Y-97678600D01*
X164930000Y-99400000D02*
X177103400Y-99400000D01*
X178824800Y-97678600D02*
X204581400Y-97678600D01*
X204581400Y-97678600D02*
X205740000Y-96520000D01*
X240030000Y-93980000D02*
X243840000Y-93980000D01*
X245204700Y-93980000D02*
X246474700Y-95250000D01*
X243840000Y-93980000D02*
X245204700Y-93980000D01*
X247650000Y-95250000D02*
X246474700Y-95250000D01*
X151065400Y-73500700D02*
X152240700Y-74676000D01*
X148146600Y-73500700D02*
X151065400Y-73500700D01*
X146971300Y-74676000D02*
X148146600Y-73500700D01*
X145796000Y-74676000D02*
X146971300Y-74676000D01*
X153416000Y-74676000D02*
X152240700Y-74676000D01*
X210152000Y-51816000D02*
X205058000Y-51816000D01*
X161130700Y-100076000D02*
X162654700Y-101600000D01*
X153416000Y-100076000D02*
X161130700Y-100076000D01*
X163830000Y-101600000D02*
X162654700Y-101600000D01*
X153416000Y-49784000D02*
X152240700Y-49784000D01*
X159715200Y-52324000D02*
X153416000Y-52324000D01*
X166370000Y-57912000D02*
X166370000Y-56709919D01*
X166370000Y-56709919D02*
X161984081Y-52324000D01*
X161984081Y-52324000D02*
X159715200Y-52324000D01*
X146872000Y-53400000D02*
X147172000Y-53700000D01*
X147172000Y-53700000D02*
X152040000Y-53700000D01*
X152040000Y-53700000D02*
X152566001Y-53173999D01*
X152566001Y-53173999D02*
X153416000Y-52324000D01*
X145796000Y-52324000D02*
X146872000Y-53400000D01*
X149606000Y-49784000D02*
X148403919Y-49784000D01*
X148387919Y-49800000D02*
X148100000Y-49800000D01*
X148403919Y-49784000D02*
X148387919Y-49800000D01*
X148100000Y-49800000D02*
X146800000Y-48500000D01*
X146800000Y-48500000D02*
X144800000Y-48500000D01*
X143900000Y-49400000D02*
X143900000Y-51700000D01*
X144800000Y-48500000D02*
X143900000Y-49400000D01*
X143900000Y-51700000D02*
X144524000Y-52324000D01*
X144524000Y-52324000D02*
X145796000Y-52324000D01*
X145956000Y-52324000D02*
X145796000Y-52324000D01*
X153416000Y-77216000D02*
X152213919Y-77216000D01*
X152213919Y-77216000D02*
X152000000Y-77002081D01*
X152000000Y-77002081D02*
X152000000Y-76300000D01*
X152000000Y-76300000D02*
X151225999Y-75525999D01*
X151225999Y-75525999D02*
X150455999Y-75525999D01*
X150455999Y-75525999D02*
X149606000Y-74676000D01*
X147112000Y-75900000D02*
X148382000Y-75900000D01*
X148382000Y-75900000D02*
X149606000Y-74676000D01*
X145796000Y-77216000D02*
X147112000Y-75900000D01*
X230809800Y-46024800D02*
X235000800Y-46024800D01*
X225392000Y-48260000D02*
X228574600Y-48260000D01*
X228574600Y-48260000D02*
X230809800Y-46024800D01*
X235000800Y-46024800D02*
X236220000Y-44805600D01*
X236220000Y-44805600D02*
X236220000Y-43180000D01*
X220472000Y-48260000D02*
X225392000Y-48260000D01*
X232996314Y-45085000D02*
X227838000Y-45085000D01*
X227838000Y-45085000D02*
X227177600Y-45745400D01*
X233680000Y-43180000D02*
X233680000Y-44401314D01*
X233680000Y-44401314D02*
X232996314Y-45085000D01*
X241220000Y-48260000D02*
X236728000Y-48260000D01*
X215472000Y-60452000D02*
X217772000Y-60452000D01*
X233854000Y-60452000D02*
X233854000Y-61352000D01*
X240300000Y-61600000D02*
X240600000Y-61900000D01*
X233854000Y-61352000D02*
X234102000Y-61600000D01*
X234102000Y-61600000D02*
X240300000Y-61600000D01*
X240600000Y-61900000D02*
X244712081Y-61900000D01*
X244712081Y-61900000D02*
X245110000Y-62297919D01*
X245110000Y-62297919D02*
X245110000Y-63500000D01*
X231220000Y-60452000D02*
X233854000Y-60452000D01*
X207387000Y-95961200D02*
X207387000Y-99538600D01*
X207387000Y-99538600D02*
X208991200Y-101142800D01*
X208991200Y-101142800D02*
X217678000Y-101142800D01*
X217678000Y-101142800D02*
X218440000Y-100380800D01*
X218440000Y-100380800D02*
X218440000Y-99060000D01*
X226466401Y-100736401D02*
X225450400Y-100736401D01*
X225018600Y-98882200D02*
X225018600Y-100304601D01*
X225018600Y-100304601D02*
X225450400Y-100736401D01*
X223901000Y-97764600D02*
X225018600Y-98882200D01*
X220421200Y-97764600D02*
X223901000Y-97764600D01*
X220116400Y-98069400D02*
X220421200Y-97764600D01*
X220116400Y-98483600D02*
X220116400Y-98069400D01*
X218440000Y-99060000D02*
X219540000Y-99060000D01*
X219540000Y-99060000D02*
X220116400Y-98483600D01*
X227330000Y-101600000D02*
X226466401Y-100736401D01*
X206959200Y-95250000D02*
X203960400Y-95250000D01*
X203960400Y-95250000D02*
X203835000Y-95375400D01*
X207387000Y-95677800D02*
X206959200Y-95250000D01*
X207387000Y-95961200D02*
X207387000Y-95754000D01*
X207387000Y-95961200D02*
X207387000Y-95677800D01*
X172400000Y-94400000D02*
X169500000Y-94400000D01*
X180656900Y-92710000D02*
X178946900Y-91000000D01*
X169047700Y-93947700D02*
X169037000Y-93947700D01*
X203835000Y-95375400D02*
X195129200Y-95375400D01*
X192463800Y-92710000D02*
X180656900Y-92710000D01*
X195129200Y-95375400D02*
X192463800Y-92710000D01*
X178946900Y-91000000D02*
X173600000Y-91000000D01*
X173600000Y-91000000D02*
X172847000Y-91753000D01*
X172847000Y-91753000D02*
X172847000Y-93953000D01*
X172847000Y-93953000D02*
X172400000Y-94400000D01*
X169500000Y-94400000D02*
X169047700Y-93947700D01*
X169037000Y-92514000D02*
X169037000Y-93947700D01*
X166370000Y-96614700D02*
X166370000Y-97790000D01*
X169037000Y-93947700D02*
X166370000Y-96614700D01*
X205409800Y-92710000D02*
X206641700Y-92710000D01*
X206641700Y-92710000D02*
X206641700Y-92735400D01*
X206641700Y-92735400D02*
X207378300Y-93472000D01*
X209397600Y-100558600D02*
X215595200Y-100558600D01*
X215595200Y-100558600D02*
X216712800Y-99441000D01*
X207378300Y-93472000D02*
X207378300Y-94830900D01*
X207378300Y-94830900D02*
X208915000Y-96367600D01*
X208915000Y-96367600D02*
X208915000Y-100076000D01*
X208915000Y-100076000D02*
X209397600Y-100558600D01*
X216712800Y-99441000D02*
X216712800Y-97071900D01*
X216712800Y-97071900D02*
X217264700Y-96520000D01*
X217264700Y-96520000D02*
X218440000Y-96520000D01*
X218440000Y-96520000D02*
X219735400Y-95224600D01*
X224991086Y-97942400D02*
X226108686Y-99060000D01*
X219735400Y-95224600D02*
X223467086Y-95224600D01*
X223467086Y-95224600D02*
X224991086Y-96748600D01*
X224991086Y-96748600D02*
X224991086Y-97942400D01*
X226108686Y-99060000D02*
X227330000Y-99060000D01*
X205173100Y-92710000D02*
X205409800Y-92710000D01*
X203809600Y-92710000D02*
X204233864Y-92710000D01*
X204233864Y-92710000D02*
X205409800Y-92710000D01*
X197226000Y-92710000D02*
X203809600Y-92710000D01*
X166497000Y-92514000D02*
X166497000Y-91453340D01*
X166497000Y-91453340D02*
X170212140Y-87738200D01*
X170212140Y-87738200D02*
X192254200Y-87738200D01*
X192254200Y-87738200D02*
X197226000Y-92710000D01*
X218759900Y-96520000D02*
X218440000Y-96520000D01*
X247650000Y-92710000D02*
X243810000Y-92710000D01*
X243810000Y-92710000D02*
X243800000Y-92700000D01*
X243800000Y-92700000D02*
X239406410Y-92700000D01*
X239406410Y-92700000D02*
X238800000Y-93306410D01*
X238800000Y-93306410D02*
X238800000Y-97400000D01*
X238400000Y-97800000D02*
X236337000Y-97800000D01*
X235610400Y-98526600D02*
X235610400Y-99161600D01*
X235026200Y-99745800D02*
X229500000Y-99745800D01*
X238800000Y-97400000D02*
X238400000Y-97800000D01*
X236337000Y-97800000D02*
X235610400Y-98526600D01*
X235610400Y-99161600D02*
X235026200Y-99745800D01*
X229500000Y-99745800D02*
X229500000Y-101600000D01*
X229500000Y-98000000D02*
X229500000Y-99745800D01*
X224028000Y-93980000D02*
X225577400Y-95529400D01*
X226517200Y-96520000D02*
X225577400Y-95580200D01*
X225577400Y-95580200D02*
X225577400Y-95529400D01*
X227330000Y-96520000D02*
X226517200Y-96520000D01*
X222250000Y-93980000D02*
X224028000Y-93980000D01*
X201930000Y-105410000D02*
X201930000Y-104207919D01*
X201930000Y-104207919D02*
X204436319Y-101701600D01*
X204436319Y-101701600D02*
X225247500Y-101701600D01*
X225247500Y-101701600D02*
X226339400Y-102793500D01*
X226339400Y-102793500D02*
X227600000Y-102793500D01*
X226060000Y-43180000D02*
X223055900Y-46184100D01*
X223055900Y-46184100D02*
X215315800Y-46184100D01*
X215315800Y-46184100D02*
X214814700Y-46685200D01*
X214814700Y-46685200D02*
X187164800Y-46685200D01*
X187164800Y-46685200D02*
X186690000Y-47160000D01*
X186690000Y-47160000D02*
X186690000Y-48260000D01*
X163830000Y-97790000D02*
X163830000Y-96614700D01*
X163830000Y-96614700D02*
X163976900Y-96614700D01*
X168600000Y-90800000D02*
X170923660Y-90800000D01*
X163976900Y-96614700D02*
X167767000Y-92824600D01*
X167767000Y-92824600D02*
X167767000Y-91633000D01*
X171577000Y-91453340D02*
X171577000Y-92514000D01*
X167767000Y-91633000D02*
X168600000Y-90800000D01*
X170923660Y-90800000D02*
X171577000Y-91453340D01*
X229500000Y-97739900D02*
X229500000Y-98000000D01*
X227330000Y-96520000D02*
X228551314Y-96520000D01*
X228551314Y-96520000D02*
X229500000Y-97468686D01*
X229500000Y-97468686D02*
X229500000Y-98000000D01*
X229560100Y-97800000D02*
X229500000Y-97739900D01*
X229500000Y-101600000D02*
X228306500Y-102793500D01*
X228306500Y-102793500D02*
X227600000Y-102793500D01*
X227600000Y-102793500D02*
X227827900Y-102793500D01*
X151956600Y-48419300D02*
X150781300Y-47244000D01*
X185355400Y-48419300D02*
X151956600Y-48419300D01*
X185514700Y-48260000D02*
X185355400Y-48419300D01*
X186690000Y-48260000D02*
X185514700Y-48260000D01*
X149606000Y-47244000D02*
X150781300Y-47244000D01*
X161733300Y-98711400D02*
X162654700Y-97790000D01*
X151956700Y-98711400D02*
X161733300Y-98711400D01*
X150781300Y-97536000D02*
X151956700Y-98711400D01*
X149606000Y-97536000D02*
X150781300Y-97536000D01*
X163830000Y-97790000D02*
X162654700Y-97790000D01*
X191770000Y-105410000D02*
X185420000Y-99060000D01*
X199390000Y-105410000D02*
X191770000Y-105410000D01*
X222250000Y-93980000D02*
X218440000Y-93980000D01*
X199390000Y-105410000D02*
X200565300Y-105410000D01*
X201930000Y-105410000D02*
X200565300Y-105410000D01*
X201930000Y-107950000D02*
X201930000Y-107569000D01*
X224839500Y-102184200D02*
X225933000Y-103277700D01*
X201930000Y-107569000D02*
X202724300Y-106774700D01*
X203200000Y-104000000D02*
X204335800Y-102864200D01*
X202724300Y-106774700D02*
X202725300Y-106774700D01*
X204348800Y-102864200D02*
X205028800Y-102184200D01*
X234014500Y-102417100D02*
X234831600Y-101600000D01*
X202725300Y-106774700D02*
X203200000Y-106300000D01*
X203200000Y-106300000D02*
X203200000Y-104000000D01*
X204335800Y-102864200D02*
X204348800Y-102864200D01*
X205028800Y-102184200D02*
X224839500Y-102184200D01*
X225933000Y-103277700D02*
X228603000Y-103277700D01*
X228603000Y-103277700D02*
X229463600Y-102417100D01*
X229463600Y-102417100D02*
X234014500Y-102417100D01*
X234831600Y-101600000D02*
X237490000Y-101600000D01*
X166370000Y-101600000D02*
X167219999Y-100750001D01*
X167219999Y-100750001D02*
X167249999Y-100750001D01*
X167249999Y-100750001D02*
X167800000Y-100200000D01*
X167800000Y-100200000D02*
X177920600Y-100200000D01*
X201244200Y-106934000D02*
X201244200Y-106959400D01*
X177920600Y-100200000D02*
X184495300Y-106774700D01*
X184495300Y-106774700D02*
X198076100Y-106774700D01*
X198076100Y-106774700D02*
X198145400Y-106705400D01*
X198145400Y-106705400D02*
X201015600Y-106705400D01*
X201015600Y-106705400D02*
X201244200Y-106934000D01*
X201930000Y-107645200D02*
X201930000Y-107950000D01*
X201244200Y-106959400D02*
X201930000Y-107645200D01*
X168910000Y-62738000D02*
X168910000Y-61535919D01*
X173990000Y-59232800D02*
X173990000Y-57912000D01*
X168910000Y-61535919D02*
X169993919Y-60452000D01*
X169993919Y-60452000D02*
X172770800Y-60452000D01*
X172770800Y-60452000D02*
X173990000Y-59232800D01*
X243789200Y-110109000D02*
X243364936Y-110109000D01*
X243364936Y-110109000D02*
X243245126Y-110228810D01*
X204470000Y-109152081D02*
X204917919Y-109600000D01*
X204917919Y-109600000D02*
X215111600Y-109600000D01*
X215111600Y-109600000D02*
X215740410Y-110228810D01*
X215740410Y-110228810D02*
X243245126Y-110228810D01*
X166370000Y-62738000D02*
X166370000Y-63940081D01*
X166370000Y-63940081D02*
X167072919Y-64643000D01*
X167072919Y-64643000D02*
X171805600Y-64643000D01*
X173856200Y-60484200D02*
X174531000Y-60484200D01*
X171805600Y-64643000D02*
X172720000Y-63728600D01*
X172720000Y-63728600D02*
X172720000Y-61620400D01*
X172720000Y-61620400D02*
X173856200Y-60484200D01*
X174531000Y-60484200D02*
X176593500Y-60484200D01*
X176593500Y-60484200D02*
X177705300Y-60484200D01*
X176530000Y-57912000D02*
X176530000Y-59114081D01*
X176530000Y-59114081D02*
X176593500Y-59177581D01*
X176593500Y-59177581D02*
X176593500Y-60484200D01*
X210820000Y-66040000D02*
X209140000Y-66040000D01*
X209140000Y-66040000D02*
X207880000Y-64780000D01*
X207880000Y-64780000D02*
X207880000Y-63100000D01*
X207880000Y-63100000D02*
X207078800Y-62298800D01*
X207078800Y-62298800D02*
X192786000Y-62298800D01*
X183166200Y-60484200D02*
X182816500Y-60484200D01*
X192786000Y-62298800D02*
X191955200Y-61468000D01*
X191955200Y-61468000D02*
X184150000Y-61468000D01*
X182816500Y-60484200D02*
X177705300Y-60484200D01*
X184150000Y-61468000D02*
X183166200Y-60484200D01*
X204470000Y-109152081D02*
X204022081Y-109600000D01*
X197074700Y-109600000D02*
X196600000Y-109125300D01*
X196600000Y-109125300D02*
X178600000Y-109125300D01*
X168910000Y-101600000D02*
X168910000Y-102802081D01*
X169600000Y-103492081D02*
X172966781Y-103492081D01*
X168910000Y-102802081D02*
X169600000Y-103492081D01*
X204022081Y-109600000D02*
X197074700Y-109600000D01*
X172966781Y-103492081D02*
X178600000Y-109125300D01*
X204470000Y-107950000D02*
X204470000Y-109152081D01*
X211635700Y-59238800D02*
X214017300Y-61620400D01*
X224637600Y-61738600D02*
X232354300Y-61738600D01*
X214017300Y-61620400D02*
X224519400Y-61620400D01*
X224519400Y-61620400D02*
X224637600Y-61738600D01*
X190683300Y-60295200D02*
X191739700Y-59238800D01*
X191739700Y-59238800D02*
X211635700Y-59238800D01*
X232354300Y-61738600D02*
X232800000Y-62184300D01*
X240079000Y-62184300D02*
X241394700Y-63500000D01*
X232800000Y-62184300D02*
X240079000Y-62184300D01*
X241394700Y-63500000D02*
X242570000Y-63500000D01*
X216179400Y-87604600D02*
X208991200Y-87604600D01*
X208254600Y-86144100D02*
X208254600Y-86868000D01*
X208254600Y-86868000D02*
X208991200Y-87604600D01*
X207162400Y-85051900D02*
X208254600Y-86144100D01*
X201062500Y-85051900D02*
X198560600Y-82550000D01*
X201062500Y-85051900D02*
X207162400Y-85051900D01*
X227330000Y-91440000D02*
X226108686Y-91440000D01*
X189509400Y-82550000D02*
X189001400Y-82042000D01*
X226108686Y-91440000D02*
X223965500Y-89296814D01*
X223965500Y-89296814D02*
X223965500Y-87364300D01*
X189001400Y-82042000D02*
X189001400Y-79070200D01*
X223965500Y-87364300D02*
X222925800Y-86324600D01*
X222925800Y-86324600D02*
X217467300Y-86324600D01*
X198560600Y-82550000D02*
X189509400Y-82550000D01*
X217467300Y-86324600D02*
X216291700Y-87500200D01*
X189331600Y-78740000D02*
X190500000Y-78740000D01*
X216291700Y-87500200D02*
X216283800Y-87500200D01*
X216283800Y-87500200D02*
X216179400Y-87604600D01*
X189001400Y-79070200D02*
X189331600Y-78740000D01*
X208368900Y-85090000D02*
X213317500Y-85090000D01*
X207759300Y-83324700D02*
X207759300Y-84480400D01*
X207759300Y-84480400D02*
X208368900Y-85090000D01*
X206984600Y-82550000D02*
X207759300Y-83324700D01*
X199590000Y-81280000D02*
X200860000Y-82550000D01*
X200860000Y-82550000D02*
X206984600Y-82550000D01*
X190500000Y-81280000D02*
X199590000Y-81280000D01*
X213317500Y-85090000D02*
X213614000Y-85386500D01*
X225873900Y-85386500D02*
X227330000Y-86842600D01*
X213614000Y-85386500D02*
X225873900Y-85386500D01*
X227330000Y-86842600D02*
X227330000Y-88900000D01*
X231632010Y-62188610D02*
X231876600Y-62433200D01*
X233680000Y-63500000D02*
X232477919Y-63500000D01*
X232477919Y-63500000D02*
X231876600Y-62898681D01*
X231876600Y-62898681D02*
X231876600Y-62433200D01*
X223393000Y-64708300D02*
X225461300Y-64708300D01*
X225461300Y-64708300D02*
X226060000Y-64109600D01*
X226406190Y-62188610D02*
X231632010Y-62188610D01*
X226060000Y-64109600D02*
X226060000Y-62534800D01*
X226060000Y-62534800D02*
X226406190Y-62188610D01*
X223393000Y-64708300D02*
X223657900Y-64708300D01*
X222808800Y-64708300D02*
X223393000Y-64708300D01*
X210125200Y-64708300D02*
X222808800Y-64708300D01*
X192570100Y-60385800D02*
X193470800Y-61286500D01*
X193470800Y-61286500D02*
X207686500Y-61286500D01*
X207686500Y-61286500D02*
X209116900Y-62716900D01*
X209116900Y-62716900D02*
X209116900Y-63700000D01*
X209116900Y-63700000D02*
X210125200Y-64708300D01*
X243840000Y-85090000D02*
X243840000Y-83887919D01*
X243840000Y-83887919D02*
X242200000Y-82247919D01*
X242200000Y-82247919D02*
X242200000Y-76500000D01*
X242200000Y-76500000D02*
X242500000Y-76200000D01*
X242500000Y-76200000D02*
X243840000Y-76200000D01*
X248900000Y-105500000D02*
X248900000Y-109300000D01*
X248900000Y-109300000D02*
X248500000Y-109700000D01*
X248500000Y-109700000D02*
X244900000Y-109700000D01*
X227380800Y-109778800D02*
X227330000Y-109728000D01*
X244900000Y-109700000D02*
X244521600Y-109321600D01*
X227330000Y-109728000D02*
X217500200Y-109728000D01*
X217500200Y-109728000D02*
X217170000Y-109397800D01*
X244521600Y-109321600D02*
X243078400Y-109321600D01*
X243078400Y-109321600D02*
X242621200Y-109778800D01*
X242621200Y-109778800D02*
X227380800Y-109778800D01*
X217170000Y-109397800D02*
X217170000Y-107950000D01*
X248825400Y-91250700D02*
X248000000Y-90425300D01*
X248000000Y-90425300D02*
X243840000Y-86265300D01*
X248900000Y-104200000D02*
X248900000Y-91325300D01*
X248900000Y-91325300D02*
X248000000Y-90425300D01*
X248900000Y-104200000D02*
X248900000Y-105500000D01*
X248900000Y-105500000D02*
X248900000Y-106100000D01*
X248825400Y-104125400D02*
X248900000Y-104200000D01*
X243840000Y-86265300D02*
X243840000Y-85090000D01*
X185420000Y-86360000D02*
X190500000Y-86360000D01*
X246380000Y-81374700D02*
X246380000Y-80010000D01*
X243840000Y-83914700D02*
X246380000Y-81374700D01*
X243840000Y-85090000D02*
X243840000Y-83914700D01*
X219710000Y-80010000D02*
X221522300Y-80010000D01*
X221522300Y-80010000D02*
X223598200Y-82085900D01*
X223598200Y-82085900D02*
X223598200Y-82094800D01*
X223598200Y-82094800D02*
X224085700Y-82582300D01*
X224085700Y-82582300D02*
X232782300Y-82582300D01*
X232782300Y-82582300D02*
X233600000Y-83400000D01*
X233600000Y-83400000D02*
X235732081Y-83400000D01*
X235732081Y-83400000D02*
X236220000Y-83887919D01*
X236220000Y-83887919D02*
X236220000Y-85090000D01*
X215900000Y-73954700D02*
X215900000Y-73660000D01*
X217170000Y-75224700D02*
X215900000Y-73954700D01*
X217170000Y-76200000D02*
X217170000Y-75224700D01*
X210820000Y-78740000D02*
X211880660Y-78740000D01*
X235900000Y-86600000D02*
X240992081Y-86600000D01*
X211880660Y-78740000D02*
X214573060Y-81432400D01*
X221989400Y-81432400D02*
X223908700Y-83351700D01*
X214573060Y-81432400D02*
X221989400Y-81432400D01*
X223908700Y-83351700D02*
X232301700Y-83351700D01*
X233000000Y-84050000D02*
X234100000Y-84050000D01*
X232301700Y-83351700D02*
X233000000Y-84050000D01*
X234100000Y-84050000D02*
X234700000Y-84650000D01*
X234700000Y-84650000D02*
X234700000Y-85400000D01*
X234700000Y-85400000D02*
X235900000Y-86600000D01*
X240992081Y-86600000D02*
X241300000Y-86292081D01*
X241300000Y-86292081D02*
X241300000Y-85090000D01*
X237000000Y-74500000D02*
X237490000Y-74990000D01*
X237490000Y-74990000D02*
X237490000Y-76200000D01*
X235741314Y-74500000D02*
X237000000Y-74500000D01*
X233680000Y-73660000D02*
X234901314Y-73660000D01*
X234901314Y-73660000D02*
X235741314Y-74500000D01*
X190500000Y-88900000D02*
X195046600Y-93446600D01*
X195046600Y-93446600D02*
X195163500Y-93563500D01*
X203276200Y-94208600D02*
X195808600Y-94208600D01*
X195808600Y-94208600D02*
X195046600Y-93446600D01*
X237490000Y-80010000D02*
X241300000Y-83820000D01*
X241300000Y-83820000D02*
X241300000Y-85090000D01*
X226060000Y-76200000D02*
X225300000Y-76200000D01*
X225300000Y-76200000D02*
X224350000Y-77150000D01*
X224350000Y-77150000D02*
X224350000Y-77163400D01*
X224350000Y-77163400D02*
X223613400Y-77900000D01*
X223613400Y-78300000D02*
X223824800Y-78511400D01*
X223413400Y-78100000D02*
X223613400Y-78300000D01*
X223613400Y-78300000D02*
X223613400Y-77900000D01*
X223213400Y-77900000D02*
X223413400Y-78100000D01*
X222965900Y-77652500D02*
X223213400Y-77900000D01*
X223613400Y-77900000D02*
X223413400Y-78100000D01*
X223213400Y-77900000D02*
X223613400Y-77900000D01*
X228371400Y-81722800D02*
X228701600Y-81722800D01*
X224293000Y-81722800D02*
X228371400Y-81722800D01*
X228498400Y-81722800D02*
X228600000Y-81621200D01*
X228371400Y-81722800D02*
X228498400Y-81722800D01*
X228701600Y-81722800D02*
X233222800Y-81722800D01*
X228600000Y-80010000D02*
X228600000Y-81621200D01*
X228600000Y-81621200D02*
X228701600Y-81722800D01*
X233222800Y-81722800D02*
X234038000Y-82538000D01*
X223824800Y-81254600D02*
X224293000Y-81722800D01*
X223824800Y-80010000D02*
X223824800Y-80778900D01*
X223824800Y-80010000D02*
X223824800Y-81254600D01*
X223824800Y-78511400D02*
X223824800Y-80010000D01*
X210820000Y-76200000D02*
X212258400Y-76200000D01*
X212258400Y-76200000D02*
X214163400Y-78105000D01*
X214163400Y-78105000D02*
X218952700Y-78105000D01*
X218952700Y-78105000D02*
X219405200Y-77652500D01*
X219405200Y-77652500D02*
X222965900Y-77652500D01*
X234038000Y-82538000D02*
X237410081Y-82538000D01*
X237410081Y-82538000D02*
X238760000Y-83887919D01*
X238760000Y-83887919D02*
X238760000Y-85090000D01*
X224764600Y-63500000D02*
X223469200Y-62204600D01*
X223469200Y-62204600D02*
X223037400Y-62204600D01*
X223037400Y-62204600D02*
X221767400Y-62204600D01*
X213279900Y-62204600D02*
X221767400Y-62204600D01*
X221767400Y-62204600D02*
X221894400Y-62204600D01*
X213279900Y-62204600D02*
X210920300Y-59845000D01*
X221894400Y-62204600D02*
X221945200Y-62255400D01*
X194263300Y-59845000D02*
X194212500Y-59895800D01*
X210920300Y-59845000D02*
X194263300Y-59845000D01*
X197547500Y-60489500D02*
X209989500Y-60489500D01*
X209989500Y-60489500D02*
X213000000Y-63500000D01*
X213000000Y-63500000D02*
X215900000Y-63500000D01*
X226246400Y-90170000D02*
X228200000Y-90170000D01*
X236258686Y-91450000D02*
X229480000Y-91450000D01*
X229480000Y-91450000D02*
X228200000Y-90170000D01*
X237490000Y-91440000D02*
X236268686Y-91440000D01*
X236268686Y-91440000D02*
X236258686Y-91450000D01*
X209092800Y-57670700D02*
X213448900Y-57670700D01*
X213448900Y-57670700D02*
X213944200Y-57175400D01*
X224136500Y-103327200D02*
X224942400Y-104133100D01*
X229423510Y-103921900D02*
X229167400Y-104178010D01*
X224942400Y-104133100D02*
X225044000Y-104234700D01*
X243840000Y-99060000D02*
X243840000Y-100660200D01*
X243840000Y-100660200D02*
X240578300Y-103921900D01*
X240578300Y-103921900D02*
X229423510Y-103921900D01*
X229167400Y-104178010D02*
X224987310Y-104178010D01*
X224987310Y-104178010D02*
X224942400Y-104133100D01*
X209550000Y-105410000D02*
X209550000Y-104207919D01*
X209550000Y-104207919D02*
X210430719Y-103327200D01*
X210430719Y-103327200D02*
X224136500Y-103327200D01*
X216890600Y-85836900D02*
X223758900Y-85836900D01*
X210820000Y-86360000D02*
X216367500Y-86360000D01*
X216367500Y-86360000D02*
X216890600Y-85836900D01*
X223758900Y-85836900D02*
X225509800Y-87587800D01*
X225509800Y-87587800D02*
X225509800Y-89433400D01*
X225509800Y-89433400D02*
X226246400Y-90170000D01*
X214325200Y-84734400D02*
X214526900Y-84936100D01*
X214526900Y-84936100D02*
X233399690Y-84936100D01*
X233399690Y-84936100D02*
X235400010Y-86936420D01*
X235400010Y-86936420D02*
X235400010Y-88031324D01*
X235400010Y-88031324D02*
X236268686Y-88900000D01*
X236268686Y-88900000D02*
X237490000Y-88900000D01*
X207010000Y-105410000D02*
X207010000Y-104207919D01*
X208500319Y-102717600D02*
X224414600Y-102717600D01*
X229381800Y-103327200D02*
X239420400Y-103327200D01*
X207010000Y-104207919D02*
X208500319Y-102717600D01*
X224414600Y-102717600D02*
X225425000Y-103728000D01*
X241833400Y-100914200D02*
X241833400Y-97351300D01*
X225425000Y-103728000D02*
X228981000Y-103728000D01*
X228981000Y-103728000D02*
X229381800Y-103327200D01*
X239420400Y-103327200D02*
X241833400Y-100914200D01*
X241833400Y-97351300D02*
X242664700Y-96520000D01*
X242664700Y-96520000D02*
X243840000Y-96520000D01*
X213410800Y-83820000D02*
X214325200Y-84734400D01*
X214325200Y-84734400D02*
X214426800Y-84836000D01*
X210820000Y-83820000D02*
X213410800Y-83820000D01*
X199978000Y-55372000D02*
X202358000Y-55372000D01*
X199978000Y-55372000D02*
X198902700Y-55372000D01*
X197344300Y-56930400D02*
X186518400Y-56930400D01*
X198902700Y-55372000D02*
X197344300Y-56930400D01*
X200152000Y-51816000D02*
X202358000Y-51816000D01*
X197298700Y-53594000D02*
X199076700Y-51816000D01*
X196342000Y-53594000D02*
X197298700Y-53594000D01*
X200152000Y-51816000D02*
X199076700Y-51816000D01*
X196342000Y-53594000D02*
X195516700Y-53594000D01*
X195032600Y-53594000D02*
X195516700Y-53594000D01*
X193778600Y-54848000D02*
X195032600Y-53594000D01*
X188976000Y-54848000D02*
X193778600Y-54848000D01*
X188976000Y-54848000D02*
X188250700Y-54848000D01*
X188091000Y-54688300D02*
X188250700Y-54848000D01*
X188024800Y-54688300D02*
X188091000Y-54688300D01*
X210820000Y-81280000D02*
X209613500Y-80073500D01*
X209613500Y-80073500D02*
X199872600Y-80073500D01*
X199872600Y-80073500D02*
X199682100Y-79883000D01*
X199682100Y-79883000D02*
X191960500Y-79883000D01*
X217576500Y-82296100D02*
X217678000Y-82397600D01*
X214172800Y-82296100D02*
X217576500Y-82296100D01*
X210820000Y-81280000D02*
X213156700Y-81280000D01*
X213156700Y-81280000D02*
X214172800Y-82296100D01*
X246240000Y-75000000D02*
X240750000Y-75000000D01*
X240100000Y-75650000D02*
X240750000Y-75000000D01*
X240100000Y-77100000D02*
X240100000Y-75650000D01*
X239490000Y-77710000D02*
X240100000Y-77100000D01*
X235400000Y-77710000D02*
X239490000Y-77710000D01*
X234790000Y-76200000D02*
X234790000Y-77100000D01*
X234790000Y-77100000D02*
X235400000Y-77710000D01*
X246540000Y-76200000D02*
X246540000Y-75300000D01*
X246540000Y-75300000D02*
X246240000Y-75000000D01*
X189636400Y-74955400D02*
X189814200Y-74955400D01*
X189814200Y-74955400D02*
X212901700Y-74955400D01*
X187299600Y-76758800D02*
X189103000Y-74955400D01*
X189103000Y-74955400D02*
X189814200Y-74955400D01*
X187299600Y-77444600D02*
X187299600Y-81838800D01*
X187299600Y-77292200D02*
X187299600Y-77444600D01*
X187299600Y-77444600D02*
X187299600Y-76758800D01*
X187299600Y-81838800D02*
X186588400Y-82550000D01*
X151700000Y-65272081D02*
X149606000Y-63178081D01*
X186588400Y-82550000D02*
X182198200Y-82550000D01*
X182198200Y-82550000D02*
X182016400Y-82368200D01*
X153710081Y-65272081D02*
X151700000Y-65272081D01*
X182016400Y-82368200D02*
X170806200Y-82368200D01*
X149606000Y-63178081D02*
X149606000Y-61976000D01*
X170806200Y-82368200D02*
X153710081Y-65272081D01*
X228574600Y-75006200D02*
X228760000Y-75191600D01*
X228760000Y-75191600D02*
X228760000Y-76200000D01*
X224282000Y-75006200D02*
X228574600Y-75006200D01*
X223088200Y-76200000D02*
X224282000Y-75006200D01*
X219870000Y-76200000D02*
X223088200Y-76200000D01*
X219870000Y-77175300D02*
X219870000Y-76200000D01*
X212901700Y-74955400D02*
X215441700Y-77495400D01*
X218729500Y-77495400D02*
X219049600Y-77175300D01*
X215441700Y-77495400D02*
X218729500Y-77495400D01*
X219049600Y-77175300D02*
X219870000Y-77175300D01*
X228760000Y-76200000D02*
X228760000Y-76184700D01*
X228760000Y-76184700D02*
X228760000Y-76169500D01*
X233699400Y-76184700D02*
X233714700Y-76200000D01*
X228760000Y-76184700D02*
X233699400Y-76184700D01*
X234790000Y-76200000D02*
X234252400Y-76200000D01*
X234252400Y-76200000D02*
X233714700Y-76200000D01*
X246540000Y-76200000D02*
X246540000Y-75224700D01*
X215087200Y-83750000D02*
X220500000Y-83750000D01*
X214071200Y-83261200D02*
X214401400Y-83591400D01*
X214934800Y-83750000D02*
X215087200Y-83750000D01*
X215087200Y-83750000D02*
X214560000Y-83750000D01*
X213360000Y-82550000D02*
X214071200Y-83261200D01*
X214560000Y-83750000D02*
X214071200Y-83261200D01*
X214934800Y-83750000D02*
X214763200Y-83750000D01*
X209092800Y-82550000D02*
X213360000Y-82550000D01*
X220500000Y-87500000D02*
X219324700Y-87500000D01*
X215384700Y-91440000D02*
X219324700Y-87500000D01*
X210820000Y-91440000D02*
X215384700Y-91440000D01*
X210820000Y-93980000D02*
X208889600Y-93980000D01*
X208889600Y-93980000D02*
X207530700Y-92621100D01*
X207530700Y-92621100D02*
X207530700Y-90690700D01*
X207530700Y-90690700D02*
X207010000Y-90170000D01*
X207010000Y-90170000D02*
X203301600Y-90170000D01*
X202765300Y-90170000D02*
X203301600Y-90170000D01*
X193814700Y-87337900D02*
X196215000Y-89738200D01*
X203301600Y-90170000D02*
X196646800Y-90170000D01*
X196646800Y-90170000D02*
X196215000Y-89738200D01*
X197670336Y-58242200D02*
X185420000Y-58242200D01*
X198132700Y-58204100D02*
X197708436Y-58204100D01*
X197708436Y-58204100D02*
X197670336Y-58242200D01*
X198072300Y-63517900D02*
X201954400Y-67400000D01*
X201954400Y-67400000D02*
X212064500Y-67400000D01*
X212064500Y-67400000D02*
X212364500Y-67700000D01*
X212364500Y-67700000D02*
X225644600Y-67700000D01*
X225644600Y-67700000D02*
X226085400Y-67259200D01*
X226085400Y-67259200D02*
X229844600Y-63500000D01*
X240030000Y-107950000D02*
X240030000Y-108686600D01*
X185420000Y-81280000D02*
X183261000Y-81280000D01*
X183261000Y-81280000D02*
X182626000Y-80645000D01*
X182626000Y-80645000D02*
X182626000Y-73406000D01*
X186436000Y-72390000D02*
X186867300Y-71958700D01*
X182626000Y-73406000D02*
X183642000Y-72390000D01*
X183642000Y-72390000D02*
X186436000Y-72390000D01*
X186867300Y-71958700D02*
X186867300Y-68377300D01*
X186867300Y-68377300D02*
X187934600Y-67310000D01*
X187934600Y-67310000D02*
X194280200Y-67310000D01*
X194280200Y-67310000D02*
X198072300Y-63517900D01*
X205740000Y-40132000D02*
X205740000Y-41334081D01*
X205740000Y-41334081D02*
X206087319Y-41681400D01*
X206087319Y-41681400D02*
X212001100Y-41681400D01*
X212001100Y-41681400D02*
X212699600Y-40982900D01*
X212699600Y-40982900D02*
X214922100Y-40982900D01*
X185420000Y-76200000D02*
X186804300Y-76200000D01*
X186804300Y-76200000D02*
X188658500Y-74345800D01*
X239068700Y-71273300D02*
X242000000Y-68342000D01*
X188658500Y-74345800D02*
X188658500Y-72961500D01*
X244300000Y-66042000D02*
X245000000Y-65342000D01*
X188658500Y-72961500D02*
X189230000Y-72390000D01*
X247650000Y-63550000D02*
X247650000Y-63500000D01*
X189230000Y-72390000D02*
X211526000Y-72390000D01*
X211526000Y-72390000D02*
X212642700Y-71273300D01*
X243558000Y-68342000D02*
X244300000Y-67600000D01*
X212642700Y-71273300D02*
X239068700Y-71273300D01*
X242000000Y-68342000D02*
X243558000Y-68342000D01*
X244300000Y-67600000D02*
X244300000Y-66042000D01*
X245000000Y-65342000D02*
X245858000Y-65342000D01*
X245858000Y-65342000D02*
X247650000Y-63550000D01*
X238760000Y-63500000D02*
X236300000Y-65960000D01*
X185420000Y-78740000D02*
X184359340Y-78740000D01*
X187805400Y-73685400D02*
X187805400Y-71401600D01*
X184359340Y-78740000D02*
X183769000Y-78149660D01*
X183769000Y-78149660D02*
X183769000Y-75311000D01*
X183769000Y-75311000D02*
X184150000Y-74930000D01*
X184150000Y-74930000D02*
X186560800Y-74930000D01*
X186560800Y-74930000D02*
X187805400Y-73685400D01*
X236300000Y-67400000D02*
X236300000Y-65960000D01*
X187805400Y-71401600D02*
X189357000Y-69850000D01*
X189357000Y-69850000D02*
X233850000Y-69850000D01*
X233850000Y-69850000D02*
X236300000Y-67400000D01*
X205058000Y-55372000D02*
X205058000Y-54396700D01*
X189926000Y-52848000D02*
X190651300Y-52848000D01*
X192764400Y-50734900D02*
X190651300Y-52848000D01*
X203168100Y-50734900D02*
X192764400Y-50734900D01*
X203796000Y-51362800D02*
X203168100Y-50734900D01*
X203796000Y-53134700D02*
X203796000Y-51362800D01*
X205058000Y-54396700D02*
X203796000Y-53134700D01*
X207927400Y-56347300D02*
X208902700Y-55372000D01*
X204093300Y-56347300D02*
X207927400Y-56347300D01*
X203433400Y-55687400D02*
X204093300Y-56347300D01*
X203433400Y-54587300D02*
X203433400Y-55687400D01*
X203123700Y-54277600D02*
X203433400Y-54587300D01*
X199372200Y-54277600D02*
X203123700Y-54277600D01*
X198785800Y-54864000D02*
X199372200Y-54277600D01*
X195072000Y-54864000D02*
X198785800Y-54864000D01*
X209978000Y-55372000D02*
X208902700Y-55372000D01*
X213067900Y-93497400D02*
X213067900Y-96723200D01*
X212280500Y-92710000D02*
X213067900Y-93497400D01*
X209562700Y-92710000D02*
X212280500Y-92710000D01*
X209029300Y-92176600D02*
X209562700Y-92710000D01*
X209029300Y-89636600D02*
X209029300Y-92176600D01*
X207022700Y-87630000D02*
X209029300Y-89636600D01*
X198607764Y-87630000D02*
X207022700Y-87630000D01*
X197497700Y-88315800D02*
X197921964Y-88315800D01*
X197921964Y-88315800D02*
X198607764Y-87630000D01*
X178816000Y-40995600D02*
X179916000Y-40995600D01*
X179916000Y-40995600D02*
X180449400Y-41529000D01*
X195580000Y-40957500D02*
X195580000Y-40132000D01*
X180449400Y-41529000D02*
X194995800Y-41529000D01*
X195389500Y-41135300D02*
X195402200Y-41135300D01*
X194995800Y-41529000D02*
X195389500Y-41135300D01*
X195402200Y-41135300D02*
X195580000Y-40957500D01*
X222250000Y-107950000D02*
X222250000Y-108458000D01*
X222948500Y-84251800D02*
X231698800Y-84251800D01*
X231698800Y-84251800D02*
X231724200Y-84277200D01*
X198120000Y-44196000D02*
X198120000Y-42993919D01*
X198120000Y-42993919D02*
X198488300Y-42625619D01*
X198488300Y-42625619D02*
X212441181Y-42625619D01*
X212441181Y-42625619D02*
X212750400Y-42316400D01*
X212750400Y-42316400D02*
X214769700Y-42316400D01*
X214769700Y-42316400D02*
X214782400Y-42303700D01*
X214782400Y-42303700D02*
X216069519Y-42303700D01*
X216069519Y-42303700D02*
X217390319Y-40982900D01*
X217390319Y-40982900D02*
X218592400Y-40982900D01*
X230687964Y-100914200D02*
X232397300Y-100914200D01*
X230263700Y-100914200D02*
X230687964Y-100914200D01*
X219837000Y-78277800D02*
X220078700Y-78277800D01*
X219654436Y-78277800D02*
X219837000Y-78277800D01*
X219837000Y-78277800D02*
X219892800Y-78333600D01*
X219892800Y-78333600D02*
X222351600Y-78333600D01*
X185420000Y-83820000D02*
X186480660Y-83820000D01*
X186480660Y-83820000D02*
X186506060Y-83794600D01*
X186506060Y-83794600D02*
X187096400Y-83794600D01*
X187096400Y-83794600D02*
X188112400Y-82778600D01*
X189255400Y-77495400D02*
X212115400Y-77495400D01*
X188112400Y-82778600D02*
X188112400Y-78638400D01*
X188112400Y-78638400D02*
X189255400Y-77495400D01*
X212115400Y-77495400D02*
X213283800Y-78663800D01*
X213283800Y-78663800D02*
X219268436Y-78663800D01*
X219268436Y-78663800D02*
X219654436Y-78277800D01*
M02*
